<?xml version="1.0" standalone="no"?>
<!DOCTYPE svg PUBLIC "-//W3C//DTD SVG 1.0//EN" "http://www.w3.org/TR/2001/REC-SVG-20010904/DTD/svg10.dtd">
<svg xmlns="http://www.w3.org/2000/svg" xmlns:xlink="http://www.w3.org/1999/xlink" id="body_1" width="196" height="88">

<g transform="matrix(0.14000002 0 0 0.1392405 0 0)">
    <path d="M0 0L0 632L356 632L359 625C 356.158 613.949 347.333 601.09 340.486 592.001C 337.788 588.419 334.619 584.246 329.996 583.279C 315.36 580.214 297.551 591.818 285 597.941C 281.053 599.867 275.458 601.956 272.589 605.39C 266.598 612.561 268.728 621.935 256.976 615.946C 255.549 615.219 253.841 614.726 252.782 613.44C 250.255 610.369 252.928 606.408 255.133 604.058C 260.766 598.053 269.349 593.291 276 588.371C 284.556 582.042 293.38 576.077 301.91 569.717C 304.575 567.73 309.384 564.799 309.365 561.001C 309.344 556.944 303.839 554.384 301 552.414C 292.305 546.379 282.56 540.522 273 536C 264.93 550.274 252.635 534.944 260.287 524.149C 264.051 518.839 272.187 523.114 277 524.887C 292.818 530.716 308.239 538.162 325 541L325 541L325 520C 307.102 518.585 288.729 515.128 271 512.246C 265.216 511.306 255.491 511.317 251.318 506.772C 245.053 499.948 245.396 481.024 243.127 472C 237.204 448.454 208.891 405.887 249 401C 248.981 376.712 216.258 392.481 203 395.762C 197.95 397.011 187.11 398.493 184.183 403.279C 182.223 406.484 183.963 410.118 185.63 413C 190.418 421.274 195.684 430.913 201.223 438.61C 204.389 443.01 213.475 446.285 206.655 452.427C 202.34 456.314 195.963 454.4 192.933 449.815C 191.274 447.304 192.104 444.29 190.683 441.745C 184.287 430.288 169.514 413.073 155 414.12C 145.84 414.78 137.411 422.729 129.83 427.21C 123.67 430.85 115.356 434.244 110.476 439.608C 106.871 443.57 110.177 448.902 103.981 451.782C 99.0981 454.052 89.2435 449.44 91.4113 443.173C 94.094 435.416 105.68 427.589 111.91 422.745C 119.987 416.467 134.37 408.834 138 399L138 399L99 387C 96.9095 392.813 87.1951 395.899 85.3372 387.91C 84.0809 382.507 89.4464 374.243 95.0008 374.148C 112.855 373.843 129.907 382.988 148 383L148 383L146 352C 129.289 352.002 112.668 354.228 96 355.039C 88.8521 355.386 81.4406 357.006 75.0579 352.412C 70.2483 348.95 70.4354 343.187 69.0772 338C 66.5883 328.495 63.7293 318.989 59.6883 310C 52.7573 294.581 44.4259 280.08 35.0656 266C 31.048 259.957 22.4819 251.382 21.7191 244C 20.4598 231.813 31.7671 214.078 36.2724 203C 39.3228 195.499 44.947 176.069 53.0432 173.225C 72.9884 166.217 84.4644 179.273 96.5355 194C 99.689 197.847 102.276 204.281 106.518 206.972C 111.76 210.299 121.209 207.073 127 207.004C 142.467 206.82 160.536 205.402 174.714 212.88C 183.268 217.393 189.147 226.317 194.255 234.166C 197.222 238.724 199.142 244.994 205 246C 209.647 225.914 216.382 206.189 223.576 187C 227.032 177.78 229.802 167.771 236.889 160.518C 255.735 141.229 295.427 138.07 321 138C 320.979 130.553 311.229 101.999 323 103C 322.904 91.4438 321.089 79.3937 319.246 68C 318.211 61.6009 316.283 53.675 320.434 48.0008C 326.548 39.6422 336.619 39.0358 346 37.196C 366.224 33.2296 386.469 30.3165 407 28.9105C 416.107 28.2869 428.428 27.1738 435.671 34.2747C 448.243 46.601 449.287 79.3881 450 96C 460.111 95.6237 463.114 122.847 465 131L465 131L605 129C 605 120.634 600.245 86.4868 613 91C 610.482 77.4394 610.857 60.7416 612.17 47C 612.699 41.4656 613.262 35.3532 617.225 31.1088C 623.525 24.3602 634.654 26 643 26L643 26L707 26C 715.319 26 726.23 24.4249 732.442 31.3295C 737 36.3947 736 43.7135 736 50L736 50L736 91C 747.665 89.6985 743 121.512 743 130L743 130L867 131C 868.849 123.011 872.217 96.1711 882 97C 882.635 82.2021 884.776 66.3275 888.64 52C 890.117 46.525 891.863 39.306 896.133 35.3403C 904.503 27.5677 915.642 28.787 926 29.9498C 945.427 32.1307 964.619 35.65 984 37.9506C 993.293 39.0537 1005.6 40.9732 1011.43 49.0046C 1015.91 55.1849 1013.27 62.2048 1012.3 69C 1010.68 80.3838 1009.03 92.4758 1009 104C 1021.1 102.008 1011.32 129.753 1011 137C 1035.6 137.508 1062.59 139.224 1086.09 146.486C 1097.76 150.093 1109.61 153.964 1117.61 164.015C 1130.4 180.084 1134.47 205.859 1141 225C 1156.66 218.033 1166.52 215 1184 215C 1193.14 215 1207.37 218.872 1215.9 215.397C 1220.39 213.567 1222.88 206.642 1225.86 203C 1237.1 189.264 1247.92 174.874 1267 179.924C 1280.1 183.391 1283.22 203.037 1288.36 214C 1292.9 223.698 1302.84 240.054 1301.74 251C 1300.99 258.492 1293.55 265.963 1289.52 272C 1280.95 284.819 1272.74 297.959 1266.31 312C 1262.19 320.986 1258.63 330.498 1255.91 340C 1254.37 345.394 1254.4 352.169 1251.16 356.895C 1247.44 362.3 1240.98 362.99 1235 363C 1222.13 363.021 1208.85 361.79 1196 360.91C 1189.24 360.447 1178.08 356.634 1177 366L1177 366L1180 366L1176 390C 1193.97 390 1211.25 380.668 1229 381.36C 1234.22 381.563 1239.3 389.772 1238.34 394.841C 1236.83 402.844 1227.25 401.266 1225 395C 1211.69 396.16 1198.18 400.702 1186 406C 1188.73 419.481 1212.12 430.366 1221.83 439.196C 1225.11 442.185 1233.37 448.979 1232.25 453.96C 1229.8 464.849 1211.32 461.579 1216 449C 1203.24 440.549 1176.27 416.444 1160 423.213C 1144.97 429.47 1137.44 443.766 1130.82 456.736C 1129.18 459.962 1123.63 463.466 1119.99 462.343C 1116.54 461.279 1112.45 457.075 1114.49 453.329C 1116.13 450.32 1119.91 449.3 1121.93 446.61C 1126.39 440.657 1129.13 433.148 1133.63 427C 1136.25 423.416 1141.5 418 1140.59 413.101C 1139.22 405.725 1116.34 402.449 1110 401C 1110.92 406.333 1115.01 411.634 1114.77 417.015C 1114.45 424.378 1109.01 431.235 1106.54 438C 1102.07 450.266 1098.77 463.281 1095.89 476C 1094.16 483.631 1094.92 499.27 1087.89 503.991C 1082.54 507.585 1074.16 507.251 1068 508.321C 1050.76 511.315 1033.24 512.798 1016 516L1016 516L1016 537C 1032.17 532.814 1047.43 527.22 1063 521.189C 1068.31 519.13 1075.62 514.525 1080.2 520.148C 1088.11 529.862 1077.59 545.374 1068 533C 1061.93 534.39 1056.32 538.135 1051 541.309C 1045.95 544.318 1033.1 549.754 1031.83 556.089C 1030.92 560.64 1037.03 564.447 1040 566.789C 1050.32 574.928 1061.56 581.873 1072 589.887C 1076.3 593.193 1093.86 601.989 1087.39 609.451C 1086.29 610.721 1084.57 611.376 1083.17 612.236C 1071.91 619.138 1073.6 606.909 1068.11 601.108C 1064.71 597.52 1058.33 595.585 1054 593.298C 1043.58 587.799 1020.02 573.595 1008.05 580.028C 999.872 584.426 993.203 599.066 988.858 607C 983.869 616.111 982.192 621.91 981 632L981 632L1400 632L1400 0L0 0z" stroke="none" fill="#FFFFFF" fill-rule="nonzero" />
    <path d="M613 44C 630.646 34.614 650.382 36 670 36C 693.099 36 716.095 33.0109 736 46C 735.999 39.015 736.154 31.6508 728.96 28.0502C 720.561 23.8467 708.127 26 699 26L699 26L650 26C 641.32 26 631.44 24.7135 623 27.0586C 614.914 29.3053 613.062 36.545 613 44z" stroke="none" fill="#ADACB2" fill-rule="nonzero" />
    <path d="M318 64L337 50.1983L365 44.561L439 39C 433.643 25.3251 412.735 27.7463 401 29.2894C 381.905 31.8001 362.989 33.8371 344 37.3889C 335.628 38.9549 325.907 39.6096 320.434 47.0046C 316.912 51.7633 318 58.4084 318 64z" stroke="none" fill="#ADAEB3" fill-rule="nonzero" />
    <path d="M387 30L387 31L400 30L387 30z" stroke="none" fill="#D2D2D2" fill-rule="nonzero" />
    <path d="M904 30L904 31L923 30L904 30z" stroke="none" fill="#DFDFE1" fill-rule="nonzero" />
    <path d="M892 42C 904.503 37.4431 920.079 40.2988 933 41.8449C 954.098 44.3694 978.176 44.7355 998 53.1049C 1004.15 55.7012 1008.3 60.9743 1014 64C 1014 56.9526 1014.72 50.3989 1008.91 45.2747C 1002.65 39.7534 990.974 38.8482 983 37.7145C 964.205 35.0424 945.032 30.4808 926 30.0146C 914.296 29.728 895.763 27.6227 892 42z" stroke="none" fill="#AEAFB4" fill-rule="nonzero" />
    <path d="M353 35L353 36L357 36L353 35z" stroke="none" fill="#D8D9DD" fill-rule="nonzero" />
    <path d="M614 129L735 129C 735 108.635 736 88.3913 736 68C 736 61.7132 738.146 50.4621 734.397 45.1049C 728.464 36.6268 717.031 37 708 37C 685.786 37 663.164 34.0992 641 36.7145C 633.007 37.6576 619.876 35.7983 614.434 43.5324C 610.717 48.8142 613 60.7661 613 67C 613 87.7136 614 108.276 614 129z" stroke="none" fill="#6D6E70" fill-rule="nonzero" />
    <path d="M688 36L688 37L708 37L688 36z" stroke="none" fill="#8F9095" fill-rule="nonzero" />
    <path d="M328 137L452 132C 449.505 100.384 446.494 70.0628 440 39C 410.254 39 379.05 39.9193 350 46.8696C 340.283 49.1945 324.936 51.3083 320.407 62.0038C 317.708 68.3799 320.675 80.3286 321.754 87C 324.366 103.145 327.662 120.644 328 137zM880 131L1004 136C 1005.31 119.415 1007.85 102.413 1010.41 86C 1011.32 80.1355 1014.36 68.3719 1011.67 63.0154C 1007.6 54.9344 996.884 52.3619 989 50.1528C 967.32 44.0774 944.236 43.3466 922 40.7145C 915.005 39.8865 897.899 36.8804 892.513 42.4337C 887.801 47.292 886.811 59.5312 885.754 66C 882.257 87.4033 883.929 109.835 880 131z" stroke="none" fill="#6D6E70" fill-rule="nonzero" />
    <path d="M441.333 44.6667L441.667 45.3333L441.333 44.6667z" stroke="none" fill="#B0B0B2" fill-rule="nonzero" />
    <path d="M612 44L612 89L613 89C 613 76.2581 616.91 55.701 612 44z" stroke="none" fill="#CDCDCD" fill-rule="nonzero" />
    <path d="M889.333 48.6667L889.667 49.3333L889.333 48.6667z" stroke="none" fill="#B4B4B6" fill-rule="nonzero" />
    <path d="M443 51L443 54L444 54L443 51z" stroke="none" fill="#BEBFC1" fill-rule="nonzero" />
    <path d="M888.333 52.6667L888.667 53.3333L888.333 52.6667z" stroke="none" fill="#B8B8BA" fill-rule="nonzero" />
    <path d="M887.333 56.6667L887.667 57.3333L887.333 56.6667z" stroke="none" fill="#C3C3C5" fill-rule="nonzero" />
    <path d="M445 61L445 64L446 64L445 61z" stroke="none" fill="#AFB0B2" fill-rule="nonzero" />
    <path d="M319 65L319 70L320 70L319 65z" stroke="none" fill="#B5B5B5" fill-rule="nonzero" />
    <path d="M446 67L446 70L447 70L446 67z" stroke="none" fill="#BFC0C2" fill-rule="nonzero" />
    <path d="M447 74L447 80L448 80L447 74z" stroke="none" fill="#9A9B9D" fill-rule="nonzero" />
    <path d="M884 74L884 78L885 78L884 74z" stroke="none" fill="#A6A6A6" fill-rule="nonzero" />
    <path d="M1011 74L1011 80L1012 80L1011 74z" stroke="none" fill="#B1B1B3" fill-rule="nonzero" />
    <path d="M320 75L320 80L321 80L320 75z" stroke="none" fill="#C9CACC" fill-rule="nonzero" />
    <path d="M883 80L883 88L884 88L883 80z" stroke="none" fill="#CACBCD" fill-rule="nonzero" />
    <path d="M448 83L448 88L449 88L448 83z" stroke="none" fill="#999999" fill-rule="nonzero" />
    <path d="M606 129L610 128L611 128L612 130C 614.891 120.243 614.672 108.117 613.91 98.0008C 613.719 95.4718 612.556 88.1701 608.339 89.7369C 605.239 90.889 606.004 96.4733 606 99L606 99L606 129z" stroke="none" fill="#B0AFB5" fill-rule="nonzero" />
    <path d="M449 90L449 96L450 96L449 90z" stroke="none" fill="#B9B9B9" fill-rule="nonzero" />
    <path d="M605 90L605 129L568 129L568 130L606 130L607 90L605 90z" stroke="none" fill="#DEE0DF" fill-rule="nonzero" />
    <path d="M735 129C 747.264 128.855 743 112.134 743 103C 743 99.9988 744.242 93.1008 741.401 91.0718C 735.201 86.6438 735.754 101.49 735.424 104C 734.987 107.334 735 110.643 735 114L735 114L735 129z" stroke="none" fill="#B0AFB5" fill-rule="nonzero" />
    <path d="M322 91L322 96L323 96L322 91zM882 91L882 97L883 97L882 91z" stroke="none" fill="#B6B7B9" fill-rule="nonzero" />
    <path d="M1009 91L1009 96L1010 96L1009 91z" stroke="none" fill="#AEAEAE" fill-rule="nonzero" />
    <path d="M450 109L451 109L451 106L452 106C 452.188 114.014 454.467 130.683 464 131C 463.815 122.306 461.221 104.483 455.861 97.4383C 449.921 89.6315 450 106.468 450 109z" stroke="none" fill="#ACADB2" fill-rule="nonzero" />
    <path d="M868 131C 870.21 130.928 872.576 131.054 874.299 129.397C 878.314 125.532 884.942 102.352 880.973 97.6227C 876.128 91.85 873.51 105.792 873.042 108C 872.332 111.344 871.421 114.67 870.64 118C 869.582 122.505 868.1 126.302 868 131z" stroke="none" fill="#AEADB2" fill-rule="nonzero" />
    <path d="M322 138C 333.118 137.134 324.642 110.133 324 102C 309.569 103.14 320.7 128.347 322 138z" stroke="none" fill="#AEAFB4" fill-rule="nonzero" />
    <path d="M1008 103L1004 136C 1014.32 135.657 1013.15 122.901 1014.58 115C 1015.08 112.223 1016.85 107.12 1014.96 104.607C 1013.49 102.657 1010.15 103.158 1008 103z" stroke="none" fill="#ADACB2" fill-rule="nonzero" />
    <path d="M451 106C 451 112.663 448.729 130.564 457 132L457 132L451 106z" stroke="none" fill="#FBFCFF" fill-rule="nonzero" />
    <path d="M880 110L876 131L880 131L880 110z" stroke="none" fill="#FDFDFF" fill-rule="nonzero" />
    <path d="M451 120L451 128L452 128L451 120z" stroke="none" fill="#B9BABE" fill-rule="nonzero" />
    <path d="M613 120L611 128L610 128C 603.065 132.928 587.252 130 579 130C 552.527 130 525.406 128.281 499 130.09C 491.443 130.607 469.587 135.076 465 128L465 128L464 128L464 131L458 129L457 129L453 130L452 130C 444.756 135.488 423.23 132.894 414 133.004C 383.296 133.369 352.541 136.22 322 138L322 138L322 134L321 134L321 138C 295.228 138.017 257.605 141.109 237.666 159.04C 229.938 165.99 227.089 176.617 223.576 186C 216.438 205.061 207.998 225.699 205 246C 199.631 244.325 197.66 238.652 194.833 234.166C 189.937 226.394 184.402 218.305 176.41 213.379C 157.019 201.426 128.34 208 107 208L107 208L110 216C 141.194 208.57 179.199 213.07 193 246L193 246L168 246L168 247L204 247C 200.206 265.148 193.535 283.086 188.64 301C 185.698 311.765 183.57 323.091 192.532 331.957C 205.883 345.164 229.8 342.912 247 344.09C 288.914 346.96 331.19 349.188 373 353.17C 559.866 370.965 749.849 364.247 937 356.039C 987.739 353.814 1038.35 348.558 1089 345.09C 1108.77 343.736 1136.4 346.636 1153.83 335.711C 1159.77 331.99 1161.53 326.791 1166 322L1166 322L1166 329C 1174.18 322.382 1178.74 314.597 1189 310.348C 1208.77 302.162 1234.26 309 1255 309C 1252.71 297.723 1238.82 301 1230 301C 1213.71 301 1195.15 298.263 1180 305.349C 1174.56 307.895 1170.8 312.563 1166 316C 1165.59 296.097 1155.14 274.213 1150 255L1150 255L1160 255L1160 254L1149 254C 1148.18 248.404 1144.06 240.515 1145.07 235.004C 1145.94 230.261 1152.07 227.32 1156 225.49C 1167.79 220.004 1182.36 222 1195 222C 1199.41 222 1206.91 223.531 1210 220L1210 220L1211 220L1214 222L1217 216C 1190.8 216 1164.07 209.821 1141 225C 1138.06 213.649 1133.38 203.159 1129.9 192C 1126.59 181.4 1124.03 169.44 1115.93 161.185C 1106.81 151.883 1093.84 147.897 1081.71 144.466C 1065.19 139.79 1046.97 139.785 1030 138.17C 1024.24 137.622 1014.53 139.458 1011 134L1011 134L1010 134C 1003.2 139.151 989.985 135.211 982 135.015C 956.686 134.393 931.315 132.305 906 132.004C 898.317 131.912 880.622 135.333 876 128L876 128L875 128C 872.401 130.624 870.186 131.323 868 128L868 128L867 128L867 131C 837.067 130.752 807.013 130 777 130C 768.197 130 750.11 133.387 743 128L743 128L696 130L614 130L613 120z" stroke="none" fill="#C7C8CD" fill-rule="nonzero" />
    <path d="M880 123L880 129L881 129L880 123z" stroke="none" fill="#ACADAF" fill-rule="nonzero" />
    <path d="M614 129L614 130L728 130L693 129L614 129z" stroke="none" fill="#A8A9AE" fill-rule="nonzero" />
    <path d="M880 131L880 132L899 132L880 131z" stroke="none" fill="#919297" fill-rule="nonzero" />
    <path d="M408 132L408 133L427 133L408 132z" stroke="none" fill="#929395" fill-rule="nonzero" />
    <path d="M912 132L912 133L932 133L912 132z" stroke="none" fill="#969799" fill-rule="nonzero" />
    <path d="M392 133L392 134L408 134L392 133z" stroke="none" fill="#A5A6A8" fill-rule="nonzero" />
    <path d="M944 133L944 134L960 134L944 133z" stroke="none" fill="#8B8C8E" fill-rule="nonzero" />
    <path d="M376 134L376 135L384 135L376 134z" stroke="none" fill="#A4A5A9" fill-rule="nonzero" />
    <path d="M971 134L971 135L987 135L971 134z" stroke="none" fill="#838488" fill-rule="nonzero" />
    <path d="M656 135.424C 602.771 142.499 543.68 147.098 499.015 180.779C 477.782 196.79 457.416 222.375 469.763 250.576C 482.757 280.254 515.313 296.997 544 307.908C 612.742 334.053 689.044 333.569 761 324.816C 800.596 319.999 854.195 304.334 882.475 274.804C 902.136 254.273 912.533 227.276 893.6 201.996C 878.393 181.693 853.252 168.486 830 159.579C 795.225 146.259 759.829 140.397 723 136.83C 701.433 134.742 677.62 132.551 656 135.424z" stroke="none" fill="#E8E8E8" fill-rule="nonzero" />
    <path d="M987 135L987 136L995 136L987 135z" stroke="none" fill="#9B9CA0" fill-rule="nonzero" />
    <path d="M328 137L328 138L335 138L328 137z" stroke="none" fill="#9FA0A4" fill-rule="nonzero" />
    <path d="M21 246L43.2006 243.682L52.3681 225.039L67.2724 185L73 171C 67.9161 168.926 53.8425 170.763 49.6481 174.6C 44.9043 178.939 43.3652 187.39 40.6273 193C 32.9191 208.794 22.4491 228.259 21 246z" stroke="none" fill="#ADAEB3" fill-rule="nonzero" />
    <path d="M71 171C 69.4473 186.579 60.417 206.295 53.9468 220.576C 51.3485 226.31 44.1188 237.772 44.9676 244C 45.7137 249.475 52.6988 256.083 56.0748 260.285C 63.0929 269.022 73.4065 282.024 76 293L76 293L123 293L123 292L106 292C 110.491 279.973 118.822 264.735 119.906 252C 121.872 228.9 106.022 203.166 91.0856 187.001C 85.5468 181.006 79.1289 173.214 71 171z" stroke="none" fill="#6D6E70" fill-rule="nonzero" />
    <path d="M1251.67 177.333L1252.33 177.667L1251.67 177.333z" stroke="none" fill="#BFC0C4" fill-rule="nonzero" />
    <path d="M1201 259L1201 260L1207.34 272L1217 300L1244.66 300.486L1252.42 289.3L1271.05 262.425L1278.23 249.996L1270.45 231L1257.8 194.999L1253 178C 1246.65 179.651 1242.12 184.803 1237.51 189.255C 1224.8 201.54 1214.19 217.26 1208.34 234C 1205.74 241.457 1205.74 252.843 1201 259z" stroke="none" fill="#6D6E70" fill-rule="nonzero" />
    <path d="M1252 179C 1255.13 189.811 1259.37 200.304 1262.84 211C 1265.13 218.062 1267.64 225.125 1270.45 232C 1275.04 243.229 1276.76 251.999 1290 252C 1293.33 252 1300.5 253.343 1301.46 248.852C 1302.91 242.071 1295.96 231.171 1293.51 225C 1286.17 206.491 1278.5 171.713 1252 179z" stroke="none" fill="#ADAEB3" fill-rule="nonzero" />
    <path d="M1281 197L1282 201L1283 201L1281 197z" stroke="none" fill="#D6D6D8" fill-rule="nonzero" />
    <path d="M1222 206L1222 208L1224 206L1222 206z" stroke="none" fill="#BCBCBC" fill-rule="nonzero" />
    <path d="M111 215L121 251L193 246C 181.987 207.857 140.949 214.918 111 215zM1210 220C 1205.74 223.228 1199.16 222 1194 222C 1182.68 222 1169.92 220.384 1159 223.901C 1154.09 225.481 1145.24 229.074 1144.62 235.004C 1144.03 240.648 1147.73 248.432 1149 254L1149 254L1203 259C 1203.37 250.331 1205.97 241.085 1209.06 233C 1210.87 228.292 1214.28 224.134 1210 220z" stroke="none" fill="#FFFFFF" fill-rule="nonzero" />
    <path d="M115.333 227.667L115.667 228.333L115.333 227.667z" stroke="none" fill="#A6A6A8" fill-rule="nonzero" />
    <path d="M118 237L118 240L119 240L118 237z" stroke="none" fill="#B9B9B9" fill-rule="nonzero" />
    <path d="M903 242C 900.579 246.919 899.845 252.593 896.757 257.196C 875.952 288.201 841.847 301.506 808 312.938C 729.192 339.557 633.792 336.211 555 311.492C 538.333 306.263 522.012 298.696 507.09 289.667C 499.433 285.034 493.221 277.53 485 274L485 274L484 278L485 278L487 276L485 279L485 280L489 280C 490.415 288.12 501.48 293.085 508 296.881C 528.381 308.746 548.691 315.791 571 323.035C 595.02 330.834 620.042 332.755 645 335.17C 705.174 340.993 764.818 334 822 315.358C 842.945 308.53 861.976 297.986 879.561 284.782C 886.636 279.469 895.779 270.151 896 261C 901.697 259.341 905.246 247.145 903 242z" stroke="none" fill="#BDBEC0" fill-rule="nonzero" />
    <path d="M43 243C 37.8807 246.878 28.2373 245 22 245C 24.5698 255.936 34.8651 266.613 40.9252 276C 50.8798 291.42 58.7583 307.787 65.0471 325C 67.8214 332.593 68.0439 349.848 76.0193 353.486C 83.2401 356.78 92.4708 354.605 100 354.09C 118.827 352.8 142.54 347.605 161 352L161 352L173 350L161 327L92 334C 91.6162 325.601 87.6335 307.324 80.3125 302.028C 77.3528 299.887 71.4744 301 68 301C 72.382 292.653 79.7264 294 88 294L88 294L88 293L76 293C 75.3123 287.868 71.9738 284.384 69.6119 279.91C 62.9327 267.255 53.3711 252.891 43 243z" stroke="none" fill="#82828C" fill-rule="nonzero" />
    <path d="M152 247L152 248L160 248L152 247z" stroke="none" fill="#A6A6A8" fill-rule="nonzero" />
    <path d="M160 247L160 248L202 248C 191.012 243.389 171.957 247 160 247z" stroke="none" fill="#5C5C5E" fill-rule="nonzero" />
    <path d="M202 247L203 250L204 250L204 247L202 247z" stroke="none" fill="#808186" fill-rule="nonzero" />
    <path d="M120 248L123 252L123 251L120 248z" stroke="none" fill="#B1B1B3" fill-rule="nonzero" />
    <path d="M136 248L136 249L144 249L136 248z" stroke="none" fill="#DBDBDD" fill-rule="nonzero" />
    <path d="M106 292C 120.699 292 136.678 292.616 148.985 301.76C 157.51 308.094 160.799 321.809 169.329 326.972C 173.289 329.37 180.516 328 185 328C 185 300.041 200.768 275.332 203 248C 182.538 248 161.315 246.414 141 248.845C 135.437 249.511 125.127 248.733 120.84 252.854C 112.955 260.432 108.772 281.635 106 292z" stroke="none" fill="#47484C" fill-rule="nonzero" />
    <path d="M130 249L130 250L136 250L130 249z" stroke="none" fill="#AFAFB1" fill-rule="nonzero" />
    <path d="M1279 250L1246 301C 1250.97 301.694 1253.42 304.324 1255 309C 1251.31 309 1245.63 307.957 1242.39 310.028C 1235.64 314.34 1232.06 333.58 1232 341C 1217.61 340.703 1203.36 336.175 1189 336.004C 1181.47 335.914 1170.29 337.788 1164 333L1164 333L1163 333L1150 358L1160 360L1161 360L1167 360C 1185.41 355.628 1207.24 361.555 1226 362.015C 1232.28 362.168 1238.85 364.265 1245 362.03C 1255.28 358.293 1254.78 343.933 1257.95 335C 1264.6 316.242 1272.74 298.793 1283.54 282C 1289.66 272.482 1300.81 261.555 1302 250L1302 250L1301 250C 1296 253.791 1284.36 252.982 1279 250z" stroke="none" fill="#82828A" fill-rule="nonzero" />
    <path d="M202.333 252.667L202.667 253.333L202.333 252.667z" stroke="none" fill="#8F9095" fill-rule="nonzero" />
    <path d="M1150 255L1166 316C 1171.57 313.302 1175.42 308.129 1181 305.274C 1192.27 299.505 1204.72 300 1217 300L1217 300L1204 260C 1186.53 256.006 1167.9 255 1150 255z" stroke="none" fill="#47484C" fill-rule="nonzero" />
    <path d="M1164 255L1164 256L1171 256L1164 255z" stroke="none" fill="#7B7B7B" fill-rule="nonzero" />
    <path d="M1171 255L1171 256L1176 256L1171 255z" stroke="none" fill="#D2D2D2" fill-rule="nonzero" />
    <path d="M1181 256L1181 257L1186 257L1181 256z" stroke="none" fill="#C9CACC" fill-rule="nonzero" />
    <path d="M1188 257L1188 258L1192 258L1188 257z" stroke="none" fill="#9D9EA2" fill-rule="nonzero" />
    <path d="M199.333 262.667L199.667 263.333L199.333 262.667z" stroke="none" fill="#818286" fill-rule="nonzero" />
    <path d="M193.333 283.667L193.667 284.333L193.333 283.667z" stroke="none" fill="#838489" fill-rule="nonzero" />
    <path d="M191.333 290.667L191.667 291.333L191.333 290.667z" stroke="none" fill="#7C7D81" fill-rule="nonzero" />
    <path d="M68 301C 93.1083 301 124.547 292.013 145.996 309.379C 153.21 315.219 158.659 324.054 163.345 331.961C 166.971 338.079 171.648 344.989 173 352C 185.834 345.709 168.902 326.803 163.947 319C 147.175 292.587 125.525 292.989 97 293C 88.0413 293.003 71.4155 291.072 68 301z" stroke="none" fill="#D1D2D7" fill-rule="nonzero" />
    <path d="M190.333 294.667L190.667 295.333L190.333 294.667z" stroke="none" fill="#7E7F83" fill-rule="nonzero" />
    <path d="M136.667 295.333L137.333 295.667L136.667 295.333z" stroke="none" fill="#909195" fill-rule="nonzero" />
    <path d="M103 299L103 300L123 300L103 299z" stroke="none" fill="#A3A4A8" fill-rule="nonzero" />
    <path d="M1162.33 299.667L1162.67 300.333L1162.33 299.667z" stroke="none" fill="#818286" fill-rule="nonzero" />
    <path d="M82 300L82 301L96 301L82 300z" stroke="none" fill="#A0A1A5" fill-rule="nonzero" />
    <path d="M81 301L90.3889 326L95 334L95 333C 90.4422 326.344 101.298 307.246 104 300L104 300L81 301z" stroke="none" fill="#6D6E70" fill-rule="nonzero" />
    <path d="M93 333L160 328C 155.663 309.706 135.187 300.208 118 300.004C 114.223 299.959 107.707 298.81 104.43 301.028C 98.2313 305.222 93.3622 325.942 93 333z" stroke="none" fill="#47484C" fill-rule="nonzero" />
    <path d="M124 300L124 301L129 301L124 300z" stroke="none" fill="#828387" fill-rule="nonzero" />
    <path d="M1196 300L1196 301L1229 301L1196 300z" stroke="none" fill="#818286" fill-rule="nonzero" />
    <path d="M1184.67 303.333L1185.33 303.667L1184.67 303.333z" stroke="none" fill="#9A9B9F" fill-rule="nonzero" />
    <path d="M1200 307L1200 308L1211 308L1200 307z" stroke="none" fill="#797A7E" fill-rule="nonzero" />
    <path d="M1211 307L1211 308L1220 308L1211 307z" stroke="none" fill="#9FA0A4" fill-rule="nonzero" />
    <path d="M1164 335L1231 341L1221 308C 1199.63 308 1170.3 308.422 1164 335z" stroke="none" fill="#47484C" fill-rule="nonzero" />
    <path d="M1221 308L1231 341L1232 341C 1232.23 330.108 1237.88 318.923 1242 309L1242 309L1221 308z" stroke="none" fill="#6D6E72" fill-rule="nonzero" />
    <path d="M1232 308L1232 309L1242 309L1232 308z" stroke="none" fill="#969799" fill-rule="nonzero" />
    <path d="M185 318C 185.398 337.277 197.381 347.531 216 349C 212.226 355.394 199.496 351.004 193 351C 189.135 362.336 175.839 360.495 178.152 375.981C 179.218 383.117 188.581 382.348 194 381.83C 211.651 380.144 229.236 376 247 376L247 376L244 352C 279.264 352.728 314.789 357.499 350 359.91C 409.639 363.995 469.278 367.345 529 369.961C 576.133 372.025 623.816 370 671 370C 730.265 370 789.84 371.551 849 368.961C 882.635 367.488 916.364 363.863 950 362.985C 1006.29 361.516 1062.76 351.025 1119 351C 1138.67 350.991 1165.98 346.533 1166 322C 1159.48 326.63 1157.38 334.152 1149 337.79C 1130.83 345.683 1107.39 343.761 1088 345.09C 1046.08 347.96 1003.81 350.123 962 354.17C 872.667 362.815 782.822 363 693 363C 599.339 363 506.285 362.514 413 356.09C 361.167 352.52 308.568 351.326 257 345.155C 236.936 342.754 210.811 346.401 194.185 332.7C 189.348 328.713 188.593 322.752 185 318z" stroke="none" fill="#FEFFFF" fill-rule="nonzero" />
    <path d="M185 324L185 328L170 328C 172.639 335.262 179.482 342.037 178 350C 182.416 358.606 165.365 371.439 177 379C 177.045 373.599 177.741 365.541 181.563 361.318C 185.897 356.53 191.401 358.897 193 351L193 351L216 352L216 350C 198.874 348.505 191.421 338.175 185 324z" stroke="none" fill="#818287" fill-rule="nonzero" />
    <path d="M67.3333 332.667L67.6667 333.333L67.3333 332.667z" stroke="none" fill="#C9CACE" fill-rule="nonzero" />
    <path d="M1157 342L1145 347L1145 348L1147 349C 1142.31 354.032 1145.97 357.368 1151 360L1151 360L1150 356C 1153.44 353.476 1157.62 346.265 1157 342z" stroke="none" fill="#D2D2D4" fill-rule="nonzero" />
    <path d="M177 348L168 362L167 362L167 359L166 359C 166.015 364.508 166.249 380.918 172.343 383.356C 175.418 384.587 179.866 382.461 183 382L183 382L183 381L178 377L176 379C 169.485 370.313 176.98 362.061 180 353C 181.115 349.656 178.436 350.257 179 348L179 348L177 348z" stroke="none" fill="#A7A8AA" fill-rule="nonzero" />
    <path d="M208 348L208 349L216 350L208 348z" stroke="none" fill="#CDCDCF" fill-rule="nonzero" />
    <path d="M1114 360L1131 358C 1131.67 366.824 1137.85 364.097 1142.16 369.318C 1145.63 373.53 1145.96 380.816 1146 386C 1159.7 379.481 1140.97 365.941 1145 358L1145 358L1147 348C 1137.24 348.228 1114.14 348.073 1114 360z" stroke="none" fill="#838486" fill-rule="nonzero" />
    <path d="M1136 349L1136 350L1139 350L1136 349z" stroke="none" fill="#C7C6CB" fill-rule="nonzero" />
    <path d="M161 350L147.638 352.028L145 360L148 366L149 366L149 362C 157.703 361.97 163.989 359.635 163 350L163 350L161 350z" stroke="none" fill="#6D6E70" fill-rule="nonzero" />
    <path d="M163 350L163 354L164 354L164 351L173 351L163 350z" stroke="none" fill="#A0A0A8" fill-rule="nonzero" />
    <path d="M138 351L138 352L146 352L138 351z" stroke="none" fill="#AEAEB6" fill-rule="nonzero" />
    <path d="M164 351L167 362L168 362L173 351L164 351z" stroke="none" fill="#FEFFFF" fill-rule="nonzero" />
    <path d="M202 351L202 352L209 352L202 351z" stroke="none" fill="#B4B4BC" fill-rule="nonzero" />
    <path d="M1108 351L1108 352L1120 352L1108 351z" stroke="none" fill="#CDCDCF" fill-rule="nonzero" />
    <path d="M126 352L126 353L136 353L126 352z" stroke="none" fill="#D6D6D8" fill-rule="nonzero" />
    <path d="M210 352L210 353L214 353L210 352z" stroke="none" fill="#C6C6C6" fill-rule="nonzero" />
    <path d="M244 352L250 401C 257.92 399.751 259.015 389.519 267.003 388.657C 277.026 387.576 278.579 401.557 286.043 401.543C 293.365 401.53 296.595 389.907 305 389.112C 313.91 388.269 324.162 392.556 333 393.83C 350.995 396.426 369.087 397.958 387 400.425C 398.663 402.032 431.86 400.923 433 416L433 416L492 415L489 369L352 360.09L295 356.039L244 352z" stroke="none" fill="#595D5C" fill-rule="nonzero" />
    <path d="M245 352L245 353L251 353L245 352z" stroke="none" fill="#BABCBB" fill-rule="nonzero" />
    <path d="M1098 352L1098 353L1102 353L1098 352z" stroke="none" fill="#C0C4C3" fill-rule="nonzero" />
    <path d="M1102 352L1102 353L1107 353L1102 352z" stroke="none" fill="#999B98" fill-rule="nonzero" />
    <path d="M862 369L859 415L907 415L905 409L911 401C 916.947 403.974 933.424 399.644 940 398C 957.302 393.674 975.935 395.266 993 391C 1000.3 389.174 1007.19 390.907 1013 388C 1017.36 385.821 1024.19 386.907 1028 385C 1035.32 381.339 1049.86 391.547 1049 395L1049 395L1054 395L1054 396L1051 397L1051 398C 1060.9 397.676 1062.94 383.854 1073 384.323C 1079.93 384.645 1081.58 391.797 1086.21 395.436C 1091.33 399.462 1102.62 400.722 1109 401L1109 401L1115 352L1040 357.83L965 362.09L862 369z" stroke="none" fill="#595D5C" fill-rule="nonzero" />
    <path d="M96 354L96 355L104 355L96 354z" stroke="none" fill="#BFBEC4" fill-rule="nonzero" />
    <path d="M164 354C 160.788 360.143 155.672 361.926 149 362L149 362L149 366L148 366L146 361C 147.578 369.111 153.473 379.68 151.427 387.961C 149.865 394.289 143.545 399.756 139 404C 126.797 415.394 110.69 432.923 95 439C 97.5641 446.725 107.297 441.699 112 438.807C 125.91 430.256 141.568 415.929 158 413L158 413L157 402C 176.75 405.902 184.257 436.95 202 444C 204.703 429.429 183.35 419.352 182.828 406.094C 182.623 400.884 192.295 399.033 196 397.837C 210.168 393.263 228.205 386.132 243 388L243 388L248 383L247 376C 227.605 376.833 208.431 381.998 189 382C 184.781 382.001 174.785 384.941 171.569 382.356C 165.289 377.31 166 361.234 166 354L166 354L164 354z" stroke="none" fill="#818286" fill-rule="nonzero" />
    <path d="M268 354L268 355L272 355L268 354z" stroke="none" fill="#979998" fill-rule="nonzero" />
    <path d="M272 354L272 355L280 355L272 354z" stroke="none" fill="#C8CAC9" fill-rule="nonzero" />
    <path d="M1070 354L1070 355L1075 355L1070 354z" stroke="none" fill="#D3D5D4" fill-rule="nonzero" />
    <path d="M1075 354L1075 355L1083 355L1075 354z" stroke="none" fill="#ABADAC" fill-rule="nonzero" />
    <path d="M82 355L82 356L92 356L82 355z" stroke="none" fill="#DDDCE2" fill-rule="nonzero" />
    <path d="M146 355L146 358L147 358L146 355z" stroke="none" fill="#B6B7B9" fill-rule="nonzero" />
    <path d="M244 355L244 359L245 359L244 355z" stroke="none" fill="#BFBFBF" fill-rule="nonzero" />
    <path d="M280 355L280 356L286 356L280 355z" stroke="none" fill="#838584" fill-rule="nonzero" />
    <path d="M286 355L286 356L291 356L286 355z" stroke="none" fill="#B2B2B2" fill-rule="nonzero" />
    <path d="M1058 355L1058 356L1064 356L1058 355zM299 356L299 357L307 357L299 356z" stroke="none" fill="#BCBCBC" fill-rule="nonzero" />
    <path d="M1045 356L1045 357L1051 357L1045 356z" stroke="none" fill="#B3B3B3" fill-rule="nonzero" />
    <path d="M307 357L307 358L312 358L307 357z" stroke="none" fill="#7F7F7F" fill-rule="nonzero" />
    <path d="M312 357L312 358L320 358L312 357z" stroke="none" fill="#ACACAC" fill-rule="nonzero" />
    <path d="M1029 357L1029 358L1035 358L1029 357z" stroke="none" fill="#BEBEBE" fill-rule="nonzero" />
    <path d="M1035 357L1035 358L1043 358L1035 357z" stroke="none" fill="#969696" fill-rule="nonzero" />
    <path d="M1143 358C 1146.36 371.566 1158.6 383.806 1138 389L1138 389L1138 390L1149 390L1150 390L1151 392C 1159.09 384.238 1159.35 355.067 1143 358z" stroke="none" fill="#A8A9AD" fill-rule="nonzero" />
    <path d="M144 358L148 383C 133.271 382.959 119.38 377.872 105 375.562C 99.0483 374.605 92.7108 372.19 88 377C 100.525 380.625 113.964 383.462 126 388.446C 129.981 390.095 137.13 391.903 137.752 397.09C 138.34 402.007 132.252 405.741 129 408.389C 118.674 416.798 107.526 424.527 98.1806 434.05C 93.2836 439.04 85.8915 447.22 96 451C 96.5387 446.22 98.1614 444.374 103 444L103 444L103 443C 99.1224 442.875 96.9282 442.498 95 439L95 439L110.385 429.054L140.96 403.075L151.656 387.961L146 358L144 358z" stroke="none" fill="#A8A9AB" fill-rule="nonzero" />
    <path d="M325 358L325 359L331 359L325 358z" stroke="none" fill="#9C9E9D" fill-rule="nonzero" />
    <path d="M331 358L331 359L336 359L331 358z" stroke="none" fill="#D1D3D2" fill-rule="nonzero" />
    <path d="M1016 358L1016 359L1024 359L1016 358z" stroke="none" fill="#AEB0AF" fill-rule="nonzero" />
    <path d="M1123 358L1123 359L1130 362L1131 362L1131 358L1123 358z" stroke="none" fill="#BCBDC1" fill-rule="nonzero" />
    <path d="M1151 358L1156 370L1157 370L1160 358L1151 358z" stroke="none" fill="#FEFFFF" fill-rule="nonzero" />
    <path d="M1178 368L1177 359L1167 360C 1164.51 357.148 1159.32 358.489 1160 363.005C 1161.44 372.674 1172.42 368.538 1178 368z" stroke="none" fill="#6D6E70" fill-rule="nonzero" />
    <path d="M182 359L182 360L187 360L182 359z" stroke="none" fill="#A8A9AB" fill-rule="nonzero" />
    <path d="M339 359L339 360L347 360L339 359z" stroke="none" fill="#949695" fill-rule="nonzero" />
    <path d="M1003 359L1003 360L1011 360L1003 359z" stroke="none" fill="#A4A6A5" fill-rule="nonzero" />
    <path d="M1111 388C 1122.33 388.486 1150.17 395.276 1144.85 376C 1144.26 373.866 1143.93 371.188 1142.69 369.318C 1139.53 364.574 1132.99 365.384 1130 359C 1126.23 359 1118.71 357.571 1115.6 360.028C 1110.91 363.732 1111.12 382.257 1111 388z" stroke="none" fill="#FFFFFF" fill-rule="nonzero" />
    <path d="M1178 359L1178 360L1189 360L1178 359z" stroke="none" fill="#A9AAAF" fill-rule="nonzero" />
    <path d="M355 360L355 361L363 361L355 360z" stroke="none" fill="#9B9D9C" fill-rule="nonzero" />
    <path d="M987 360L987 361L994 361L987 360z" stroke="none" fill="#AAACAB" fill-rule="nonzero" />
    <path d="M1177.33 360.667L1177.67 361.333L1177.33 360.667z" stroke="none" fill="#B3B4B8" fill-rule="nonzero" />
    <path d="M1192 360L1192 361L1203 361L1192 360z" stroke="none" fill="#CDCED2" fill-rule="nonzero" />
    <path d="M245 361L245 366L246 366L245 361z" stroke="none" fill="#9A9A9A" fill-rule="nonzero" />
    <path d="M371 361L371 362L376 362L371 361z" stroke="none" fill="#9FA1A0" fill-rule="nonzero" />
    <path d="M376 361L376 362L384 362L376 361z" stroke="none" fill="#DFE1E0" fill-rule="nonzero" />
    <path d="M971 361L971 362L976 362L971 361z" stroke="none" fill="#C4C6C5" fill-rule="nonzero" />
    <path d="M1158 361C 1157.42 368.407 1156.96 376.767 1155.37 383.996C 1154.78 386.641 1153.16 391.018 1150 390L1150 390L1149 390L1139 390.004L1111 388L1111 383L1110 383C 1110 387.272 1107.6 396.934 1110.61 400.146C 1116.63 406.588 1137.65 403.456 1140.21 413.101C 1141.37 417.499 1135.96 422.822 1133.63 426.001C 1128.23 433.346 1122.43 441.649 1122 451C 1139.7 443.814 1146.91 413.915 1166 409L1166 409L1164 421C 1180.55 422.659 1197.36 437.765 1211 446.413C 1216.17 449.693 1225 455.625 1229 448C 1213.33 439.013 1197.6 425.375 1185 412.501C 1180.2 407.599 1173.88 402.032 1172.48 394.985C 1170.72 386.08 1176.6 376.072 1177 367C 1170.02 370.543 1162.1 370.107 1160 361L1160 361L1158 361z" stroke="none" fill="#818284" fill-rule="nonzero" />
    <path d="M381 362L381 363L387 363L381 362z" stroke="none" fill="#7D7F7C" fill-rule="nonzero" />
    <path d="M387 362L387 363L394 363L387 362z" stroke="none" fill="#BABCB9" fill-rule="nonzero" />
    <path d="M955 362L955 363L962 363L955 362z" stroke="none" fill="#C8C9C4" fill-rule="nonzero" />
    <path d="M1224 362L1224 363L1232 363L1224 362z" stroke="none" fill="#B3B2B7" fill-rule="nonzero" />
    <path d="M395 363L395 364L402 364L395 363z" stroke="none" fill="#7E807D" fill-rule="nonzero" />
    <path d="M402 363L402 364L408 364L402 363z" stroke="none" fill="#B8BAB7" fill-rule="nonzero" />
    <path d="M941 363L941 364L947 364L941 363z" stroke="none" fill="#C1C3BE" fill-rule="nonzero" />
    <path d="M947 363L947 364L954 364L947 363z" stroke="none" fill="#878883" fill-rule="nonzero" />
    <path d="M931 364L931 365L936 365L931 364z" stroke="none" fill="#9B9C9E" fill-rule="nonzero" />
    <path d="M427 365L427 366L432 366L427 365z" stroke="none" fill="#979B9C" fill-rule="nonzero" />
    <path d="M432 365L432 366L440 366L432 365z" stroke="none" fill="#CACCCB" fill-rule="nonzero" />
    <path d="M912 365L912 366L920 366L912 365z" stroke="none" fill="#BABCBB" fill-rule="nonzero" />
    <path d="M1113 365L1113 368L1114 368L1113 365z" stroke="none" fill="#B4B6B3" fill-rule="nonzero" />
    <path d="M445 366L445 367L451 367L445 366z" stroke="none" fill="#BFBFC1" fill-rule="nonzero" />
    <path d="M899 366L899 367L904 367L899 366z" stroke="none" fill="#BDBEC0" fill-rule="nonzero" />
    <path d="M1178 366C 1175.54 374.749 1170.55 386.899 1172.48 395.961C 1173.91 402.68 1179.66 407.812 1184.26 412.501C 1196.13 424.594 1213.02 441.739 1229 448L1229 448L1227 459C 1237.5 455.31 1230.18 446.929 1225.12 441.615C 1215.83 431.872 1204.14 424.803 1194.01 416.003C 1190.65 413.08 1184.4 408.641 1186.03 403.326C 1187.44 398.7 1194.02 396.631 1198 395.13C 1208.39 391.215 1226.28 391.353 1234 383C 1215.14 378.509 1195.05 390 1176 390L1176 390L1180 366L1178 366z" stroke="none" fill="#A8A9AB" fill-rule="nonzero" />
    <path d="M459 367L459 368L464 368L459 367z" stroke="none" fill="#ABABAD" fill-rule="nonzero" />
    <path d="M464 367L464 368L472 368L464 367z" stroke="none" fill="#D5D5D5" fill-rule="nonzero" />
    <path d="M875 367L875 368L883 368L875 367z" stroke="none" fill="#DFDFDF" fill-rule="nonzero" />
    <path d="M883 367L883 368L891 368L883 367z" stroke="none" fill="#C0C0C0" fill-rule="nonzero" />
    <path d="M178.333 368.667L178.667 369.333L178.333 368.667z" stroke="none" fill="#BDBDBD" fill-rule="nonzero" />
    <path d="M476 368L476 369L489 369L476 368z" stroke="none" fill="#B0B2B1" fill-rule="nonzero" />
    <path d="M489 368L489 369L499 369L489 368z" stroke="none" fill="#DBDCDE" fill-rule="nonzero" />
    <path d="M853 368L853 369L862 369L853 368z" stroke="none" fill="#C8CAC9" fill-rule="nonzero" />
    <path d="M862 368L862 369L875 369L862 368z" stroke="none" fill="#989A99" fill-rule="nonzero" />
    <path d="M489 369L492 415L442 415L442 416L493 416L501 526L509 526L499 369L489 369z" stroke="none" fill="#A8A9AB" fill-rule="nonzero" />
    <path d="M499 369L505.83 478L509 521L510 521L522 416L601 416L603 396C 597.876 399.322 600 409.469 600 415L600 415L522 415L521 370L525 370L499 369zM824 369L824 370L833 370L829.089 426L839 523L841 523L850 369L824 369z" stroke="none" fill="#C7C8CD" fill-rule="nonzero" />
    <path d="M850 369C 850 421.442 844.124 474.745 840 527L840 527L849 527L858 416L907 416L908 430L909 430C 910.178 424.86 917.551 411.011 913.154 406.662C 909.755 403.301 906.776 414.218 902.956 414.852C 889.082 417.154 873.076 415 859 415L859 415L862 369L850 369z" stroke="none" fill="#A8A9AB" fill-rule="nonzero" />
    <path d="M521 370L521 392L522 392L521 370z" stroke="none" fill="#898A8E" fill-rule="nonzero" />
    <path d="M522 370L522 415L600 415C 600 410.302 598.484 402.355 601.028 398.229C 608.424 386.234 611 409.364 611 413C 635.507 403.2 656.817 403 683 403C 709.841 403 732.347 403.463 758 412C 758 407.632 760.565 385.981 767.972 399.109C 770.318 403.267 769 410.364 769 415L769 415L828 415L833 370L609 372L522 370z" stroke="none" fill="#5B5D5C" fill-rule="nonzero" />
    <path d="M544 370L544 371L560 371L544 370z" stroke="none" fill="#989A99" fill-rule="nonzero" />
    <path d="M560 370L560 371L736 371L719 370L684 370L560 370z" stroke="none" fill="#EAECEB" fill-rule="nonzero" />
    <path d="M736 370L736 371L784 371C 771.586 365.791 749.526 370 736 370z" stroke="none" fill="#CFD1D0" fill-rule="nonzero" />
    <path d="M784 370L784 371L808 371L784 370z" stroke="none" fill="#999B9A" fill-rule="nonzero" />
    <path d="M177 371L177 377L178 377L177 371z" stroke="none" fill="#D0D0D0" fill-rule="nonzero" />
    <path d="M600 371L600 372L744 372C 732.782 367.293 713.206 371 701 371L701 371L600 371z" stroke="none" fill="#777978" fill-rule="nonzero" />
    <path d="M832 374L832 378L833 378L832 374z" stroke="none" fill="#85868A" fill-rule="nonzero" />
    <path d="M1144.33 374.667L1144.67 375.333L1144.33 374.667z" stroke="none" fill="#C1C2C4" fill-rule="nonzero" />
    <path d="M235 376L235 377L242 377L235 376z" stroke="none" fill="#D0D0D2" fill-rule="nonzero" />
    <path d="M88 377C 88.8845 382.263 93.2152 384.689 98 386.455C 110.439 391.046 126.167 396.554 139 399C 137.277 392.496 132.841 390.866 127 388.446C 115.001 383.475 100.701 379.655 88 377z" stroke="none" fill="#818287" fill-rule="nonzero" />
    <path d="M228 377L228 378L232 378L228 377z" stroke="none" fill="#C2C2C4" fill-rule="nonzero" />
    <path d="M1111 377L1111 382L1112 382L1111 377z" stroke="none" fill="#A0A2A1" fill-rule="nonzero" />
    <path d="M219 378L219 379L224 379L219 378z" stroke="none" fill="#C8C8CA" fill-rule="nonzero" />
    <path d="M212 379L212 380L216 380L212 379z" stroke="none" fill="#C0C0C2" fill-rule="nonzero" />
    <path d="M203 380L203 381L208 381L203 380z" stroke="none" fill="#C6C6C6" fill-rule="nonzero" />
    <path d="M87.3179 381.887C 80.2518 384.15 87.924 394.662 94.8912 392.566C 103.603 389.944 92.2413 380.309 87.3179 381.887z" stroke="none" fill="#A8A7AC" fill-rule="nonzero" />
    <path d="M196 381L196 382L200 382L196 381z" stroke="none" fill="#B8B8B8" fill-rule="nonzero" />
    <path d="M1226 381L1226 382L1232 382L1226 381z" stroke="none" fill="#D6D6D6" fill-rule="nonzero" />
    <path d="M1232 382L1232 383L1235 384L1232 382z" stroke="none" fill="#D1D1D1" fill-rule="nonzero" />
    <path d="M241 389L249 392L248 383L241 389z" stroke="none" fill="#DEDEDE" fill-rule="nonzero" />
    <path d="M1069 384L1069 385L1076 385L1069 384z" stroke="none" fill="#999B9A" fill-rule="nonzero" />
    <path d="M1185 406C 1197.71 403.093 1211.52 398.458 1224 394.376C 1229.65 392.527 1234.49 390.521 1235 384C 1222.56 388.139 1209.21 390.523 1197 395.13C 1191.39 397.248 1185.94 399.546 1185 406z" stroke="none" fill="#818284" fill-rule="nonzero" />
    <path d="M1235 384C 1233.95 390.505 1228.13 393.446 1222 394L1222 394L1222 395C 1224.58 396.525 1226.12 399.747 1229.11 400.551C 1241.43 403.863 1237.71 389.766 1235 384z" stroke="none" fill="#A8A9AB" fill-rule="nonzero" />
    <path d="M911 401L905 409L907 413L908 413C 908.312 410.208 912.128 402.558 913.898 409.078C 916.142 417.343 906.681 426.562 907.252 434.891C 907.499 438.493 911.534 439.682 913.606 436.678C 916.084 433.086 917.279 427.24 918 423L918 423L926.576 441L942 483L949 453L942 458L941 458C 937.652 443.534 930.341 415.928 917 408L917 408L917 406C 936.511 402.434 942.745 437.015 949 451L949 451L950 451C 953.448 440.807 958.057 429.448 966.325 422.156C 975.876 413.732 988.964 410.688 1001 407.769C 1017.98 403.651 1035.43 399.012 1053 399L1053 399L1053 398L1051 397L1054 396L1054 395L1049 395C 1047.45 380.78 1024.51 386.435 1016.04 387.884C 997.508 391.053 978.557 392.207 960 395.464C 944.841 398.124 926.367 402.716 911 401zM1067 385L1058 397L1076 397L1067 385z" stroke="none" fill="#6D6E70" fill-rule="nonzero" />
    <path d="M1068 385C 1072.1 392.176 1077.33 395.146 1085 397C 1082.99 387.29 1076.95 385.001 1068 385z" stroke="none" fill="#D3D5D4" fill-rule="nonzero" />
    <path d="M256 400C 264.504 399.97 267.397 395.759 272 389C 263.685 387.193 257.927 391.872 256 400z" stroke="none" fill="#D3D4D8" fill-rule="nonzero" />
    <path d="M264 401L282 401L274 389C 268.819 391.438 265.942 395.706 264 401z" stroke="none" fill="#6C6D6F" fill-rule="nonzero" />
    <path d="M288 403C 301.648 403.001 314.775 406.814 328 409.522C 345.643 413.136 365.819 416.544 378.621 430.424C 384.666 436.978 387.757 446.849 391 455C 400.552 442.378 402.594 404.228 424 411C 407.767 423.48 411.211 447.342 398 461L398 461L392 457L398 488L399 488L421 427L422 427L427 443L434 442L427 409L431 409C 422.854 401.477 409.144 404.885 399 402.78C 377.707 398.362 355.621 396.949 334 393.83C 324.275 392.428 312.828 387.554 303 389.225C 296.114 390.395 291.014 397.164 288 403z" stroke="none" fill="#6D6E70" fill-rule="nonzero" />
    <path d="M1081 389L1083 392L1081 389z" stroke="none" fill="#B0B1B3" fill-rule="nonzero" />
    <path d="M1123 389L1123 390L1138 390L1123 389z" stroke="none" fill="#CBCDCC" fill-rule="nonzero" />
    <path d="M120.667 392.333L121.333 392.667L120.667 392.333z" stroke="none" fill="#C0C1C3" fill-rule="nonzero" />
    <path d="M521 392L521 410L522 410L521 392z" stroke="none" fill="#A3A4A8" fill-rule="nonzero" />
    <path d="M830 392L830 400L831 400L830 392z" stroke="none" fill="#A7ABAA" fill-rule="nonzero" />
    <path d="M249 394L249 402C 236.502 402.258 227.405 406.28 226 420C 258.063 420 289.273 424.578 321 428.711C 336.93 430.786 358.067 434.293 369.511 446.808C 387.918 466.937 390.718 501.164 394 527L394 527L395 527L429 443L422 427L421 427C 413.51 445.819 402 467.974 399 488L399 488L398 488C 397.206 469.5 391.195 442.322 377.79 428.718C 368.626 419.419 357.079 416.737 345 413.29C 316.808 405.245 279.286 395.592 250 401L250 401L249 394z" stroke="none" fill="#ADAEB3" fill-rule="nonzero" />
    <path d="M603 395L603 396L608 396L603 395z" stroke="none" fill="#BCBEBD" fill-rule="nonzero" />
    <path d="M762 447C 774.393 445.04 768.435 419.04 768.039 410C 767.88 406.371 769.149 400.589 766.972 397.434C 759.684 386.873 757.413 407.724 758.274 411.83C 759.421 417.3 761.97 421.095 761.999 427L761.999 427L762 447z" stroke="none" fill="#E7E8EA" fill-rule="nonzero" />
    <path d="M1076 395C 1069.67 399.792 1052.19 398.305 1044 399.285C 1020.46 402.103 985.023 405.376 966.325 421.428C 947.551 437.545 950.611 462.592 942 483L942 483L926.192 439L918 423L911 439C 928.19 462.881 932.802 496.742 946 523L946 523L947 523C 954.255 498.463 951.044 470.452 966.961 448.439C 977.234 434.233 991.666 430.51 1008 427.042C 1030.66 422.231 1053.91 419.492 1077 417.91C 1089.29 417.069 1102.85 413.107 1115 416L1115 416L1111 400C 1102.69 401.37 1092.61 398.381 1085 395L1085 395L1076 395z" stroke="none" fill="#ADAEB3" fill-rule="nonzero" />
    <path d="M608 447L608 504C 610.903 497.081 609 486.48 609 479C 609 459.471 607.755 439.48 609.089 420C 609.394 415.548 613.554 394.774 605.039 396.377C 599.402 397.437 601.085 405.918 600.985 410C 600.753 419.487 594.08 446.538 608 447z" stroke="none" fill="#E9E9E9" fill-rule="nonzero" />
    <path d="M610 398L610 416L611 416L610 398z" stroke="none" fill="#C7C9C8" fill-rule="nonzero" />
    <path d="M768 398L768 415L769 415L768 398z" stroke="none" fill="#AAAEAD" fill-rule="nonzero" />
    <path d="M190.667 399.333L191.333 399.667L190.667 399.333z" stroke="none" fill="#B6B7B9" fill-rule="nonzero" />
    <path d="M859 400L859 408L860 408L859 400z" stroke="none" fill="#898B8A" fill-rule="nonzero" />
    <path d="M244 401L244 402L249 402L244 401z" stroke="none" fill="#D5D6DB" fill-rule="nonzero" />
    <path d="M157 402L158 413L154 413L154 414C 169.95 414.729 181.615 429.64 190.196 441.745C 193.285 446.104 191.205 450.783 197 453L197 453L201 445C 192.37 433.823 182.525 423.51 172.59 413.421C 167.911 408.671 164.007 402.778 157 402z" stroke="none" fill="#A7A7A7" fill-rule="nonzero" />
    <path d="M1191 403L1191 404L1195 403L1191 403z" stroke="none" fill="#D2D2D4" fill-rule="nonzero" />
    <path d="M182 403L182 408L183 408L184 403L182 403z" stroke="none" fill="#ACADAF" fill-rule="nonzero" />
    <path d="M637 403L637 404L731 404L702 403L637 403z" stroke="none" fill="#959698" fill-rule="nonzero" />
    <path d="M609 431C 622.806 421.599 634.718 423 651 423L651 423L707 423C 718.624 423 732.71 420.855 744 423.761C 758.402 427.468 761 434.478 761 448C 764.395 439.91 764.362 417.338 756.671 411.765C 747.532 405.143 731.862 404 721 404L721 404L655 404C 642.179 404 626.451 403.774 615.054 410.728C 607.563 415.299 609 423.384 609 431z" stroke="none" fill="#ADAEB3" fill-rule="nonzero" />
    <path d="M917 406L917 407L926 406L917 406z" stroke="none" fill="#A9AAAC" fill-rule="nonzero" />
    <path d="M917 408C 930.401 419.696 935.626 441.513 941 458L941 458L942 458L949 453C 947.68 442.222 941.137 431.913 937.012 422C 935.2 417.646 933.902 411.818 930.443 408.434C 926.868 404.937 920.923 405.65 917 408z" stroke="none" fill="#D2D3D5" fill-rule="nonzero" />
    <path d="M828 408L828 415L829 415L828 408z" stroke="none" fill="#898A8E" fill-rule="nonzero" />
    <path d="M398 461C 402.904 457.643 404.664 448.456 406.681 443C 411.175 430.849 415.138 420.625 424 411C 407.099 403.87 402.43 428.188 397.603 440C 395.952 444.041 391.831 450.293 392.503 454.772C 392.905 457.45 396.609 458.766 398 461z" stroke="none" fill="#D2D3D5" fill-rule="nonzero" />
    <path d="M427 409L432 434C 436.177 427.885 436.198 409.717 427 409z" stroke="none" fill="#AFB0B5" fill-rule="nonzero" />
    <path d="M1122 451L1122 448L1118 451C 1122.86 452.554 1126.18 454.768 1127 460C 1132.59 457.533 1130.49 453.683 1133.4 449.285C 1141.15 437.543 1153.83 422.169 1169 422L1169 422L1169 421L1164 421L1166 409C 1159.65 409.925 1155.6 415.794 1151.49 420.282C 1142.76 429.809 1132.95 444.368 1122 451z" stroke="none" fill="#A5A6AA" fill-rule="nonzero" />
    <path d="M769 415L769 416L828 416L809 415L769 415z" stroke="none" fill="#B5B9B8" fill-rule="nonzero" />
    <path d="M769 416C 769 424.981 772.935 443.855 762 447C 762 463.52 763.221 480.595 761.286 497C 760.685 502.089 762.56 509.573 758.566 513.566C 754.554 517.579 746.159 516 741 516L741 516L695 516L694 537C 710.942 535.311 727.163 526.333 743 520.692C 749.065 518.532 756.71 514.619 760.682 522.019C 766.232 532.36 755.286 544.379 747 533C 741.294 534.305 735.906 537.516 731 540.66C 725.55 544.152 712.532 549.132 710.89 556.039C 709.479 561.977 720.08 567.607 724 570.421C 734.412 577.895 744.603 585.667 755 593.157C 759.381 596.312 765.329 598.411 767.238 603.999C 768.902 608.866 760.763 615.805 756.054 614.954C 750.002 613.862 749.526 605.604 750 601C 735.278 598.161 721.38 586.804 707 581.862C 701.323 579.911 692.796 577.107 687.054 580.179C 677.605 585.234 671.92 600.228 666.81 609C 662.041 617.187 661.08 622.852 660 632L660 632L965 632C 965.12 618.727 976.03 601.702 980.87 589C 982.539 584.622 986.564 577.019 984.393 572.303C 982.512 568.217 972.919 567.562 969 567.171C 953.369 565.608 937.611 567.136 922 566L922 566L921 567C 921.639 572.799 916.597 580.192 910.19 575.975C 904.628 572.315 905.754 558.746 910.317 554.514C 913.866 551.222 920.487 551.818 925 551.286C 939.481 549.577 954.4 550.358 969 548.924C 974.792 548.356 987.136 545.847 986.269 537.996C 986.01 535.655 984.952 533.169 984.077 531C 976.18 511.422 958.821 534.273 947.228 522.772C 940.972 516.565 938.637 503.243 935.258 495.17C 928.455 478.912 922.344 462.339 915.732 446.003C 913.899 441.474 908.951 440.457 907.236 436.698C 905.359 432.584 906.414 420.742 907 416L907 416L858 416L849 527L840 527C 838.162 503.71 835.737 480.169 832.718 457C 831.006 443.853 826.891 428.058 830 415L830 415L769 416z" stroke="none" fill="#FFFFFF" fill-rule="nonzero" />
    <path d="M947 524L981 524L982 520L993 520L993.638 548L1001.56 564.001L978 624C 987.058 622.069 992.291 598.419 996.25 591.028C 1009.18 566.89 1030.25 578.967 1049.22 588.889C 1053.91 591.34 1067.25 595.455 1068 601C 1073.54 603.111 1080.33 606.543 1081 598L1081 598L1076 595C 1062.93 593.194 1051.29 582.387 1039.83 576.511C 1032.72 572.859 1023.89 569.294 1019.75 561.985C 1015.59 554.631 1017 545.119 1017 537L1017 537L1016 537L1016 554C 1001.65 553.214 1007 527.53 1007 517C 1027.49 516.577 1048.68 510.922 1069 508.282C 1074.97 507.506 1086.16 507.708 1090.26 502.606C 1092.83 499.394 1092.07 493.87 1093 490C 1095.81 478.353 1097.86 466.435 1101.5 455C 1104.57 445.396 1108.04 436.33 1111.8 427C 1112.86 424.378 1115.87 419.362 1113.93 416.603C 1111.64 413.354 1102.33 414.951 1099 415.428C 1084.68 417.479 1070.3 417.812 1056 419.869C 1030.98 423.465 995.407 421.881 974.755 438.799C 951.22 458.079 952.034 496.884 947 524z" stroke="none" fill="#82828C" fill-rule="nonzero" />
    <path d="M434 416L435 442C 425.598 443.059 422.476 456.224 419.659 464C 414.895 477.148 409.153 489.981 404.062 503C 401.314 510.025 399.036 519.87 394.301 525.786C 386.076 536.063 371.867 522.639 362.329 526.618C 357.292 528.72 352.921 541.128 355.471 545.87C 358.68 551.838 367.116 552.578 373 553.169C 390.209 554.896 437.676 546.334 434.336 573.911C 433.838 578.021 429.317 582.228 425.005 580.632C 419.241 578.499 421.703 571.65 417.667 569.603C 413.104 567.288 403.895 568.933 399 569.576C 389.949 570.764 380.132 570.743 371 571.014C 367.229 571.126 359.565 571.434 357.029 574.728C 354.066 578.573 357.792 587.087 359.181 591C 363.862 604.178 372.859 618.271 375 632L375 632L645 632C 641.671 613.149 667.802 592.704 663.707 573.189C 662.563 567.74 652.452 567.402 648 567.089C 632.018 565.969 616.042 566 600 566C 600.522 571.398 596.843 581.407 589.529 576.677C 582.915 572.4 584.713 558.444 590.317 554.008C 594.876 550.4 602.562 551 608 551C 620.853 550.999 633.223 550.118 646 549.086C 652.315 548.576 664.373 547.265 664.848 538.985C 665.048 535.496 663.471 532.156 662.199 529C 660.73 525.356 658.908 519.334 655.505 517.028C 644.587 509.628 621.337 523.512 611.573 513.566C 607.335 509.25 608.002 499.611 608 494L608 494L608 447C 595.68 446.051 600 424.888 600 416L600 416L522 416L509 526L501 526L493 416L434 416z" stroke="none" fill="#FFFFFF" fill-rule="nonzero" />
    <path d="M226 420C 226.423 428.16 231.381 435.48 234.252 443C 239.201 455.964 243.189 470.344 245.739 484C 246.956 490.515 246.665 503.874 252.279 508.258C 257.768 512.544 268.452 511.263 275 512.325C 294.227 515.443 314.454 520.838 334 521L334 521L334 557C 321.877 558.534 322.897 566.647 313.715 573.2C 302.659 581.09 288.982 587.342 277.09 594C 271.328 597.226 261.236 599.789 260 607L260 607L275 604L274 601C 291.485 597.252 305.84 579.01 325 581C 329.666 578.362 333.9 582.112 337.101 585.587C 343.753 592.809 347.242 605.573 355 611L355 611L355 612C 352.54 614.66 355.41 618.261 357 621C 359.84 615.337 356.126 609.268 353.691 604C 348.637 593.067 342.23 580.754 339.517 569C 337.978 562.333 345.211 558.698 347.146 552.999C 350.039 544.475 345.597 534.556 348.028 526.163C 349.302 521.763 355.988 524.445 359 525.116C 367.326 526.97 376.538 528.844 385 529.695C 387.854 529.982 392.05 529.706 393.357 526.606C 396.827 518.378 389.853 499.584 388.197 491C 385.073 474.804 380.205 455.026 367.192 443.774C 355.092 433.311 336.109 430.916 321 428.561C 289.498 423.651 257.899 420 226 420z" stroke="none" fill="#82828C" fill-rule="nonzero" />
    <path d="M1113.33 422.667L1113.67 423.333L1113.33 422.667z" stroke="none" fill="#BDBEC2" fill-rule="nonzero" />
    <path d="M660 517L661 520L662 520L661 516L672 516L672.305 547.961L680.482 563L675 585L665 600L656 625C 661.241 622.634 662.942 616.786 665.654 612C 672.251 600.356 674.985 586.022 686.598 577.513C 691.277 574.085 700.028 576.101 705 577.849C 719.93 583.098 733.184 592.608 748 598L748 598L746 600L746 601L760 603L758 597L730 581L733 580L733 579C 712.466 583.146 696 562.724 696 544L696 544L695 544L695 554L686 553L686 516L737 516C 742.721 516 752.735 517.901 757.772 514.821C 763.146 511.535 761 500.332 761 495L761 495L761 447C 761 440.822 762.583 433.384 756.941 429.301C 744.836 420.54 729.068 423 715 423C 684.829 423 654.116 421.316 624 423.043C 618.446 423.362 611.68 426.449 609.603 432.004C 607.592 437.385 609 445.312 609 451L609 451L609 492C 609 497.796 607.126 507.687 610.318 512.772C 612.929 516.931 618.8 516 623 516C 635.236 516.001 647.947 517.395 660 517z" stroke="none" fill="#82828C" fill-rule="nonzero" />
    <path d="M128 427L128 428L132 427L128 427z" stroke="none" fill="#C3C5C4" fill-rule="nonzero" />
    <path d="M228 429L229 433L230 433L228 429z" stroke="none" fill="#CECDD3" fill-rule="nonzero" />
    <path d="M494 432L494 440L495 440L494 432z" stroke="none" fill="#CBCBCB" fill-rule="nonzero" />
    <path d="M1190.67 433.333L1191.33 433.667L1190.67 433.333z" stroke="none" fill="#C8C8C8" fill-rule="nonzero" />
    <path d="M906 434L906 438L907 438L906 434z" stroke="none" fill="#A6A6A6" fill-rule="nonzero" />
    <path d="M434 438L434 442L435 442L434 438z" stroke="none" fill="#B4B4B4" fill-rule="nonzero" />
    <path d="M907.667 438.333L908.333 438.667L907.667 438.333z" stroke="none" fill="#BFBFBF" fill-rule="nonzero" />
    <path d="M1125.33 438.667L1125.67 439.333L1125.33 438.667z" stroke="none" fill="#C2C4C3" fill-rule="nonzero" />
    <path d="M233.333 440.667L233.667 441.333L233.333 440.667z" stroke="none" fill="#C6C7CB" fill-rule="nonzero" />
    <path d="M96 452C 105.223 453.686 109.061 450.077 109 441C 101.932 443.351 96.2043 443.58 96 452z" stroke="none" fill="#DEDEDE" fill-rule="nonzero" />
    <path d="M203 441L196 454C 206.555 456.505 215.766 445.615 203 441z" stroke="none" fill="#DFDFDF" fill-rule="nonzero" />
    <path d="M191 445L191 449L192 449L191 445z" stroke="none" fill="#C2C2C4" fill-rule="nonzero" />
    <path d="M761 448L761 496L762 496C 762 482.474 766.209 460.414 761 448z" stroke="none" fill="#CACBCF" fill-rule="nonzero" />
    <path d="M1116 450C 1109.37 459.826 1119.49 464.039 1128 461C 1126.16 454.245 1122.79 451.628 1116 450z" stroke="none" fill="#E0E0E0" fill-rule="nonzero" />
    <path d="M1228 460C 1227.02 456.09 1220.33 445.359 1215.04 451.782C 1208.82 459.339 1224.15 460.915 1228 460z" stroke="none" fill="#DFDFE1" fill-rule="nonzero" />
    <path d="M238 456L239 460L240 460L238 456z" stroke="none" fill="#BDBDBF" fill-rule="nonzero" />
    <path d="M496 459L496 467L497 467L496 459z" stroke="none" fill="#D2D3D5" fill-rule="nonzero" />
    <path d="M1099 461L1099 464L1100 464L1099 461z" stroke="none" fill="#BABBC0" fill-rule="nonzero" />
    <path d="M497 472L497 480L498 480L497 472z" stroke="none" fill="#DFE0E2" fill-rule="nonzero" />
    <path d="M1094 482L1094 485L1095 485L1094 482z" stroke="none" fill="#BCBCBE" fill-rule="nonzero" />
    <path d="M1092 491L1092 496L1093 496L1092 491z" stroke="none" fill="#C7C8CD" fill-rule="nonzero" />
    <path d="M499 496L499 504L500 504L499 496z" stroke="none" fill="#D6D8D7" fill-rule="nonzero" />
    <path d="M249.333 504.667L249.667 505.333L249.333 504.667z" stroke="none" fill="#BDBEC0" fill-rule="nonzero" />
    <path d="M1057 509L1057 510L1064 510L1057 509z" stroke="none" fill="#C4C5C9" fill-rule="nonzero" />
    <path d="M1044 511L1044 512L1048 512L1044 511z" stroke="none" fill="#C6C7CB" fill-rule="nonzero" />
    <path d="M272 512L272 513L277 513L272 512z" stroke="none" fill="#B3B2B8" fill-rule="nonzero" />
    <path d="M1038 512L1038 513L1043 513L1038 512z" stroke="none" fill="#D5D5D7" fill-rule="nonzero" />
    <path d="M661 516L662 520L661 520L658 517C 658.461 523.956 668.027 535.375 664.014 541.787C 660.893 546.774 654.223 547.967 649 549.117C 635.022 552.193 621.086 549.829 607 551.17C 601.001 551.741 589.284 550.606 588 558C 606.753 554.363 629.968 553.942 649 556.286C 654.614 556.978 665.247 558.159 667.879 564.044C 669.704 568.125 666.172 576.323 664.215 580C 657.462 592.693 654.532 607.871 647 620C 650.158 624.632 653.407 626.534 659 625L659 625L659 624L656 625C 659.085 617.578 666.007 608.153 665 600L665 600L675 585L680.682 562L672.558 547.961L672 516L661 516z" stroke="none" fill="#6D6E70" fill-rule="nonzero" />
    <path d="M686 516L686 553L695 554L695 516L686 516z" stroke="none" fill="#A8A9AD" fill-rule="nonzero" />
    <path d="M1007 517C 1007 527.761 1001.48 553.649 1016 554L1016 554L1016 516L1007 517z" stroke="none" fill="#A8A9AB" fill-rule="nonzero" />
    <path d="M752 517L752 518L756 518C 745.592 528.067 726.933 534.355 714.174 541.424C 707.94 544.878 703.981 552.274 710 558C 719.268 540.506 747.038 535.409 761 522C 758.768 518.022 756.474 517.146 752 517zM1069 518L1069 519L1078 518L1078 519C 1072.88 520.273 1068.77 523.92 1064 526.138C 1049.87 532.716 1031.14 538.366 1028 555C 1036.8 554.807 1048.22 543.456 1056 539.001C 1059.53 536.981 1064.04 533.287 1068 535L1068 535L1069 535L1082 521C 1077.89 516.735 1074.57 516.966 1069 518z" stroke="none" fill="#818284" fill-rule="nonzero" />
    <path d="M657.333 518.667L657.667 519.333L657.333 518.667z" stroke="none" fill="#AFB0B2" fill-rule="nonzero" />
    <path d="M695 537C 695.061 544.312 694.816 554.314 697.916 560.999C 702.82 571.576 721.947 582.443 733 579L733 579L733 580L730 581L731 584L760 599C 753.395 584.953 730.979 575.387 719 565.985C 714.123 562.157 705.398 556.319 707.518 549.018C 709.221 543.149 716.168 541.004 720.999 538.448C 729.623 533.886 738.154 529.019 746.464 523.945C 749.816 521.898 753.734 521.311 756 518C 735.503 518.172 715.177 532.782 695 537z" stroke="none" fill="#6E6F71" fill-rule="nonzero" />
    <path d="M1076 595L1081 598C 1072.94 586.658 1058.24 579.182 1047 571.279C 1040.1 566.425 1034.53 559.909 1028 555C 1032.4 537.341 1061.81 525.373 1078 519C 1069.1 515.525 1056.05 523.594 1048 526.994C 1041.57 529.713 1020.7 532.117 1017.6 538.419C 1016.3 541.068 1017 545.137 1017 548C 1017.01 569.591 1037.11 575.956 1053.58 585.17C 1059.83 588.665 1068.75 595.444 1076 595z" stroke="none" fill="#6D6E70" fill-rule="nonzero" />
    <path d="M325 520L324 558L334 557L334 521L325 520z" stroke="none" fill="#AAABAD" fill-rule="nonzero" />
    <path d="M982 520C 980.431 527.311 988.949 535.352 985.031 541.79C 981.717 547.235 973.685 548.371 968 549.424C 955.11 551.81 942.067 550.848 929 551.004C 922.852 551.077 914.43 551.424 910 556C 929.665 560.68 952.03 552.078 972 557.294C 977.225 558.659 988.182 558.246 989.639 565.094C 990.68 569.987 986.691 574.111 984.666 578.089C 981.559 584.192 979.325 591.537 976.953 598C 974.269 605.312 972.115 613.373 968 620L968 620L978 626C 981.214 604.234 999.551 585.811 1001.77 564.001C 1002.43 557.489 995.378 553.051 993.638 547C 991.309 538.896 993 528.397 993 520L993 520L982 520z" stroke="none" fill="#6D6E70" fill-rule="nonzero" />
    <path d="M261 521L259 525L259 526L261 529L263 528L272 538L273 538L274 536C 284.078 545.643 303.7 548.806 310 562L310 562L311 562C 318.093 539.26 275.227 533.988 263 521L263 521L261 521z" stroke="none" fill="#818286" fill-rule="nonzero" />
    <path d="M263 521C 268.415 530.42 290.437 537.654 300 542.833C 304.456 545.247 311.712 548.314 312.579 554C 313.661 561.101 304.778 566.831 300.014 570.412C 290.5 577.564 280.678 584.34 271 591.296C 265.693 595.111 259.768 599.099 259 606C 274.969 589.241 304.516 586.325 319.54 568.571C 323.389 564.023 327.94 545.785 322.397 541.164C 315.3 535.249 298.824 533.178 290 529.649C 281.448 526.229 272.243 521.806 263 521z" stroke="none" fill="#6D6E70" fill-rule="nonzero" />
    <path d="M759 522L762 528L759 522z" stroke="none" fill="#39393B" fill-rule="nonzero" />
    <path d="M761.333 522.667L761.667 523.333L761.333 522.667z" stroke="none" fill="#8F8F91" fill-rule="nonzero" />
    <path d="M1080 522L1083 528L1082 522L1080 522z" stroke="none" fill="#3D3D3D" fill-rule="nonzero" />
    <path d="M432 561C 429.338 553.404 415.428 556.143 409 555.985C 395.762 555.661 382.051 555.279 369 552.829C 363.855 551.864 356.804 549.646 355.194 543.995C 353.604 538.412 359.218 530.267 361 525C 357.911 524.601 351.333 521.98 348.643 524.067C 345.09 526.823 348.443 544.279 347.812 549C 346.925 555.635 340.478 558.864 339.283 565.015C 338.345 569.848 341.366 573.686 342.896 578C 346.036 586.851 349.147 595.507 353.216 604C 356.161 610.148 357.138 628.453 365.004 628.808C 375.132 629.265 370.025 618.088 368.092 613C 363.721 601.496 358.577 590.374 353.963 579C 352.204 574.665 349.62 569.518 353.434 565.533C 358.112 560.645 366.816 561.397 373 560.576C 392.421 557.994 412.56 560.839 432 561z" stroke="none" fill="#6D6E72" fill-rule="nonzero" />
    <path d="M278.667 525.333L279.333 525.667L278.667 525.333z" stroke="none" fill="#B5B5B7" fill-rule="nonzero" />
    <path d="M730.667 525.333L731.333 525.667L730.667 525.333z" stroke="none" fill="#AAAAAC" fill-rule="nonzero" />
    <path d="M758 525C 755.781 526.532 753.341 527.759 751.147 529.302C 739.984 537.149 766.511 543.145 760.921 529.059C 760.26 527.393 759.182 526.28 758 525z" stroke="none" fill="#58585A" fill-rule="nonzero" />
    <path d="M950.667 525.333L951.333 525.667L950.667 525.333z" stroke="none" fill="#BEBFC1" fill-rule="nonzero" />
    <path d="M1080 525C 1078.19 525.596 1076.66 526.181 1075.02 527.171C 1059.34 536.589 1083.91 542.726 1082.48 531.004C 1082.22 528.875 1080.94 526.878 1080 525z" stroke="none" fill="#595959" fill-rule="nonzero" />
    <path d="M258 526C 258.052 530.208 256.918 537.329 260.434 540.397C 263.274 542.873 272.209 542.433 271.534 537.13C 271.093 533.664 264.73 531.375 263 528L263 528L261 529L261 526L258 526z" stroke="none" fill="#5A5A5C" fill-rule="nonzero" />
    <path d="M360.333 526.667L360.667 527.333L360.333 526.667z" stroke="none" fill="#B4B6B5" fill-rule="nonzero" />
    <path d="M370 527L370 528L376 528L370 527z" stroke="none" fill="#B3B4B8" fill-rule="nonzero" />
    <path d="M1046.67 527.333L1047.33 527.667L1046.67 527.333z" stroke="none" fill="#B2B2B2" fill-rule="nonzero" />
    <path d="M761.333 528.667L761.667 529.333L761.333 528.667z" stroke="none" fill="#AEAEAE" fill-rule="nonzero" />
    <path d="M1082.33 528.667L1082.67 529.333L1082.33 528.667z" stroke="none" fill="#B2B2B2" fill-rule="nonzero" />
    <path d="M258.333 532.667L258.667 533.333L258.333 532.667z" stroke="none" fill="#A6A6A8" fill-rule="nonzero" />
    <path d="M707.667 533.333L708.333 533.667L707.667 533.333z" stroke="none" fill="#B7B9B8" fill-rule="nonzero" />
    <path d="M747.333 533.667L747.667 534.333L747.333 533.667z" stroke="none" fill="#C5C5C7" fill-rule="nonzero" />
    <path d="M985.333 534.667L985.667 535.333L985.333 534.667z" stroke="none" fill="#A6A6A8" fill-rule="nonzero" />
    <path d="M304.667 535.333L305.333 535.667L304.667 535.333z" stroke="none" fill="#BCBCBE" fill-rule="nonzero" />
    <path d="M700.667 535.333L701.333 535.667L700.667 535.333z" stroke="none" fill="#B7B8BA" fill-rule="nonzero" />
    <path d="M1017.67 536.333L1018.33 536.667L1017.67 536.333z" stroke="none" fill="#B2B3B5" fill-rule="nonzero" />
    <path d="M258.333 538.667L258.667 539.333L258.333 538.667z" stroke="none" fill="#C2C2C4" fill-rule="nonzero" />
    <path d="M665 538L665 541L666 541L665 538z" stroke="none" fill="#C3C3C5" fill-rule="nonzero" />
    <path d="M751 538L751 539L757 539L751 538zM1073 538L1073 539L1078 539L1073 538z" stroke="none" fill="#989898" fill-rule="nonzero" />
    <path d="M317 539L317 540L320 540L317 539z" stroke="none" fill="#B3B2B7" fill-rule="nonzero" />
    <path d="M263 542L263 543L268 543L263 542z" stroke="none" fill="#A0A0A2" fill-rule="nonzero" />
    <path d="M978 546L978 547L981 547L978 546z" stroke="none" fill="#BBBCBE" fill-rule="nonzero" />
    <path d="M655 547L655 548L658 548L655 547z" stroke="none" fill="#A1A2A4" fill-rule="nonzero" />
    <path d="M972.667 548.333L973.333 548.667L972.667 548.333z" stroke="none" fill="#ADAFAE" fill-rule="nonzero" />
    <path d="M358.667 549.333L359.333 549.667L358.667 549.333z" stroke="none" fill="#B6B6B6" fill-rule="nonzero" />
    <path d="M642 549L642 550L648 550L642 549zM963 549L963 550L968 550L963 549z" stroke="none" fill="#CCCECD" fill-rule="nonzero" />
    <path d="M632 550L632 551L642 551L632 550z" stroke="none" fill="#97989A" fill-rule="nonzero" />
    <path d="M955 550L955 551L963 551L955 550z" stroke="none" fill="#A2A3A5" fill-rule="nonzero" />
    <path d="M597 551L597 552L605 552L597 551z" stroke="none" fill="#D8D8DA" fill-rule="nonzero" />
    <path d="M592 552L592 553L595 553L592 552z" stroke="none" fill="#BCBCBE" fill-rule="nonzero" />
    <path d="M913 552L913 553L917 553L913 552z" stroke="none" fill="#B3B3B5" fill-rule="nonzero" />
    <path d="M373 553L373 554L376 554L373 553z" stroke="none" fill="#BBBBBD" fill-rule="nonzero" />
    <path d="M910 553C 906.382 565.358 918.067 565 927 565C 941.704 565 956.471 565.024 971 567.615C 977.529 568.779 984.411 569.277 985 577L985 577L986 577C 995.094 561.407 984.025 559.978 971 556.71C 951.471 551.81 929.555 559.617 910 556L910 556L912 553L910 553z" stroke="none" fill="#828187" fill-rule="nonzero" />
    <path d="M379 554L379 555L384 555L379 554z" stroke="none" fill="#97969B" fill-rule="nonzero" />
    <path d="M384 554L384 555L400 555L384 554z" stroke="none" fill="#D7D7D9" fill-rule="nonzero" />
    <path d="M403 555L403 556L422 556L403 555z" stroke="none" fill="#9F9FA1" fill-rule="nonzero" />
    <path d="M908 555L908 560L909 560L908 555z" stroke="none" fill="#C8C8C8" fill-rule="nonzero" />
    <path d="M587 561C 600.79 570.361 626.525 564.334 643 566.576C 648.142 567.276 662.575 566.498 664.071 573.108C 664.75 576.107 662.676 580.077 662 583C 671.346 574.099 670.617 561.332 658 557.861C 642.392 553.567 624.072 556 608 556C 601.161 556 591.215 554.509 587 561z" stroke="none" fill="#828187" fill-rule="nonzero" />
    <path d="M1030 556L1031 560L1032 560L1030 556z" stroke="none" fill="#A9AAAC" fill-rule="nonzero" />
    <path d="M355 583L356 583C 354.07 571.904 365.307 571.241 374 570.986C 392.332 570.449 416.46 572.111 433 565L433 565L432 561C 411.853 560.584 391.13 558.243 371 560.715C 365.262 561.42 355.647 560.623 352.179 566.329C 349.212 571.211 353.194 578.316 355 583z" stroke="none" fill="#818284" fill-rule="nonzero" />
    <path d="M908 560C 906.849 563.895 905.684 570.942 908.179 574.566C 914.877 584.297 920.996 570.754 921 565L921 565L908 560z" stroke="none" fill="#595A5C" fill-rule="nonzero" />
    <path d="M585 561L585 567L586 567L585 561z" stroke="none" fill="#BDBDBD" fill-rule="nonzero" />
    <path d="M586 561L586 567L591 565L586 561z" stroke="none" fill="#3F3F3F" fill-rule="nonzero" />
    <path d="M906.333 563.667L906.667 564.333L906.333 563.667z" stroke="none" fill="#A1A1A1" fill-rule="nonzero" />
    <path d="M586 567C 586.054 572.99 591.373 582.177 598.257 575.258C 600.673 572.829 599.813 568.12 600 565L600 565L586 567z" stroke="none" fill="#595A5C" fill-rule="nonzero" />
    <path d="M430 565L429 569L433 571L434 565L430 565z" stroke="none" fill="#404040" fill-rule="nonzero" />
    <path d="M600 565L600 566L616 566L600 565z" stroke="none" fill="#DFE0E2" fill-rule="nonzero" />
    <path d="M616 565L616 566L632 566L616 565z" stroke="none" fill="#A6A5AA" fill-rule="nonzero" />
    <path d="M921 567L936 566C 932.12 564.372 923.931 563.646 921 567z" stroke="none" fill="#DFE0E2" fill-rule="nonzero" />
    <path d="M936 565L936 566L952 566L936 565z" stroke="none" fill="#ADACB1" fill-rule="nonzero" />
    <path d="M434 566L434 570L435 570L434 566z" stroke="none" fill="#BFBFBF" fill-rule="nonzero" />
    <path d="M635 566L635 567L643 567L635 566z" stroke="none" fill="#D3D3D5" fill-rule="nonzero" />
    <path d="M955 566L955 567L963 567L955 566z" stroke="none" fill="#D8D8DA" fill-rule="nonzero" />
    <path d="M420 569C 420.011 583.026 433.867 584.644 434 570L434 570L430 567L420 569z" stroke="none" fill="#57585A" fill-rule="nonzero" />
    <path d="M599.333 567.667L599.667 568.333L599.333 567.667z" stroke="none" fill="#8A8B8D" fill-rule="nonzero" />
    <path d="M656 568L656 569L659 569L656 568z" stroke="none" fill="#B6B7B9" fill-rule="nonzero" />
    <path d="M387 569L387 570L400 570L387 569z" stroke="none" fill="#C7C8CA" fill-rule="nonzero" />
    <path d="M585 569L585 572L586 572L585 569z" stroke="none" fill="#B2B2B2" fill-rule="nonzero" />
    <path d="M600 569L600 573L601 573L600 569z" stroke="none" fill="#CECFD1" fill-rule="nonzero" />
    <path d="M906 569L906 573L907 573L906 569z" stroke="none" fill="#AEAEAE" fill-rule="nonzero" />
    <path d="M921 569L921 573L922 573L921 569z" stroke="none" fill="#CECFD1" fill-rule="nonzero" />
    <path d="M662.667 570.333L663.333 570.667L662.667 570.333z" stroke="none" fill="#BFC0C2" fill-rule="nonzero" />
    <path d="M664 571L664 575L665 575L664 571z" stroke="none" fill="#C7C8CA" fill-rule="nonzero" />
    <path d="M419 573L419 577L420 577L419 573z" stroke="none" fill="#B8B9BB" fill-rule="nonzero" />
    <path d="M434 573L434 577L435 577L434 573z" stroke="none" fill="#C7C7C7" fill-rule="nonzero" />
    <path d="M294.667 574.333L295.333 574.667L294.667 574.333z" stroke="none" fill="#B4B4B4" fill-rule="nonzero" />
    <path d="M355 575L355 581L356 581L355 575z" stroke="none" fill="#B0B0B2" fill-rule="nonzero" />
    <path d="M670 601L690 578.873L707 582.217L748 600C 744.101 593.625 734.375 591.302 728 587.917C 717.671 582.432 699.591 571.396 687.376 576.589C 682.559 578.637 678.13 585.792 675.39 590.001C 673.148 593.446 671.02 597.027 670 601z" stroke="none" fill="#6F6F71" fill-rule="nonzero" />
    <path d="M994 596L1011 578.782L1028 582.319L1069 600C 1064.15 594.846 1056.41 591.958 1050.16 588.755C 1030.1 578.477 1002.83 565.492 994 596z" stroke="none" fill="#6C6C6E" fill-rule="nonzero" />
    <path d="M589 577L589 578L596 578L589 577z" stroke="none" fill="#B0B0B0" fill-rule="nonzero" />
    <path d="M912 577L912 578L916 578L912 577z" stroke="none" fill="#A5A5A5" fill-rule="nonzero" />
    <path d="M689 578L689 579L696 579L689 578z" stroke="none" fill="#A8A8A8" fill-rule="nonzero" />
    <path d="M1010 578L1010 579L1016 579L1010 578z" stroke="none" fill="#A5A5A5" fill-rule="nonzero" />
    <path d="M325 581C 312.382 578.546 295.222 589.307 284.961 595.772C 281.265 598.101 276.556 599.392 274 603C 287.456 600.433 300.021 590.153 313 585.442C 317.504 583.807 325.329 581.148 329.996 582.978C 342.399 587.84 343.51 608.104 355 612C 348.897 602.524 344.383 592.044 336.331 583.939C 333.586 581.175 328.252 577.582 325 581z" stroke="none" fill="#6B6A6F" fill-rule="nonzero" />
    <path d="M698.667 579.333L699.333 579.667L698.667 579.333z" stroke="none" fill="#ABABAB" fill-rule="nonzero" />
    <path d="M356 581L356 584L357 584L356 581z" stroke="none" fill="#BCBCBE" fill-rule="nonzero" />
    <path d="M425 581L425 582L428 582L425 581z" stroke="none" fill="#A5A5A5" fill-rule="nonzero" />
    <path d="M325 582L325 583L331 583L325 582z" stroke="none" fill="#B5B5B7" fill-rule="nonzero" />
    <path d="M315.667 584.333L316.333 584.667L315.667 584.333z" stroke="none" fill="#B1B2B4" fill-rule="nonzero" />
    <path d="M682 584L681 587L682 584z" stroke="none" fill="#D3D4D6" fill-rule="nonzero" />
    <path d="M1003 584L1000 590L1001 590L1003 584z" stroke="none" fill="#DCDDDF" fill-rule="nonzero" />
    <path d="M312.667 585.333L313.333 585.667L312.667 585.333z" stroke="none" fill="#B6B7B9" fill-rule="nonzero" />
    <path d="M1036.67 585.333L1037.33 585.667L1036.67 585.333z" stroke="none" fill="#A7A7A9" fill-rule="nonzero" />
    <path d="M981.333 586.667L981.667 587.333L981.333 586.667z" stroke="none" fill="#B0B0B0" fill-rule="nonzero" />
    <path d="M1038.67 586.333L1039.33 586.667L1038.67 586.333z" stroke="none" fill="#BCBCBC" fill-rule="nonzero" />
    <path d="M358.333 588.667L358.667 589.333L358.333 588.667z" stroke="none" fill="#ADADAD" fill-rule="nonzero" />
    <path d="M302.667 589.333L303.333 589.667L302.667 589.333z" stroke="none" fill="#AFB0B2" fill-rule="nonzero" />
    <path d="M300.667 590.333L301.333 590.667L300.667 590.333z" stroke="none" fill="#BEBFC1" fill-rule="nonzero" />
    <path d="M998 590L998 592L1000 590L998 590z" stroke="none" fill="#AFB0B2" fill-rule="nonzero" />
    <path d="M657.333 594.667L657.667 595.333L657.333 594.667z" stroke="none" fill="#A5A6A8" fill-rule="nonzero" />
    <path d="M759 596L759 597L762 597L759 596zM1080 596L1080 597L1083 597L1080 596z" stroke="none" fill="#AFAFB1" fill-rule="nonzero" />
    <path d="M760 597L758 605L761 612C 770.873 609.821 768.836 599.503 760 597z" stroke="none" fill="#404040" fill-rule="nonzero" />
    <path d="M1081 597L1082 608L1082 609L1080 611C 1092 612.87 1090.19 600.154 1081 597z" stroke="none" fill="#414141" fill-rule="nonzero" />
    <path d="M362.333 598.667L362.667 599.333L362.333 598.667z" stroke="none" fill="#AEAEAE" fill-rule="nonzero" />
    <path d="M258 600L258 601L261 601L258 600z" stroke="none" fill="#B3B3B5" fill-rule="nonzero" />
    <path d="M749 600C 749.761 606.642 753.21 622.43 762 612L762 612L761 605L749 600z" stroke="none" fill="#58575C" fill-rule="nonzero" />
    <path d="M260 616L262 608L260 601C 250.85 603.597 249.374 615.027 260 616z" stroke="none" fill="#414143" fill-rule="nonzero" />
    <path d="M1068 601L1068 602L1070 604L1071 604L1068 601z" stroke="none" fill="#C4C4C4" fill-rule="nonzero" />
    <path d="M1083 612L1080 611L1082 609C 1081.18 607.784 1080.5 606.441 1079.29 605.544C 1065.55 595.413 1072.19 624.782 1083 612z" stroke="none" fill="#5A5A5C" fill-rule="nonzero" />
    <path d="M974.333 604.667L974.667 605.333L974.333 604.667z" stroke="none" fill="#B0B0B0" fill-rule="nonzero" />
    <path d="M270 605L270 608L271 608L272 605L270 605z" stroke="none" fill="#C7C7C9" fill-rule="nonzero" />
    <path d="M252.333 606.667L252.667 607.333L252.333 606.667z" stroke="none" fill="#929292" fill-rule="nonzero" />
    <path d="M260 607L260 608L258 617C 269.613 621.88 275.922 605.302 260 607z" stroke="none" fill="#595959" fill-rule="nonzero" />
    <path d="M366.333 608.667L366.667 609.333L366.333 608.667z" stroke="none" fill="#B7B8BA" fill-rule="nonzero" />
    <path d="M251 609L251 613L252 613L251 609z" stroke="none" fill="#D6D6D6" fill-rule="nonzero" />
    <path d="M252.333 613.667L252.667 614.333L252.333 613.667z" stroke="none" fill="#C1C1C1" fill-rule="nonzero" />
    <path d="M261 619L261 620L265 620L261 619z" stroke="none" fill="#808080" fill-rule="nonzero" />
    <path d="M653 625L649 621C 637.995 624.617 650.666 639.521 653 625z" stroke="none" fill="#414141" fill-rule="nonzero" />
    <path d="M973 632L970 621C 961.708 623.726 965.522 631.911 973 632z" stroke="none" fill="#3F3F3F" fill-rule="nonzero" />
    <path d="M372 624L366 632L374 632L372 624z" stroke="none" fill="#404040" fill-rule="nonzero" />
    <path d="M644.333 624.667L644.667 625.333L644.333 624.667z" stroke="none" fill="#8B8B8B" fill-rule="nonzero" />
    <path d="M659 624L651 632C 656.522 631.98 661.731 630.706 659 624z" stroke="none" fill="#5A5A5A" fill-rule="nonzero" />
    <path d="M660 624L660 629L661 629L660 624z" stroke="none" fill="#A5A5A5" fill-rule="nonzero" />
    <path d="M965.333 624.667L965.667 625.333L965.333 624.667z" stroke="none" fill="#8B8B8B" fill-rule="nonzero" />
    <path d="M978 626L972 625L973 632C 979.19 631.926 980.849 630.205 981 624L981 624L978 626z" stroke="none" fill="#585858" fill-rule="nonzero" />
    <path d="M981 624L981 629L982 629L981 624z" stroke="none" fill="#A6A6A6" fill-rule="nonzero" />
    <path d="M356 625L356 632L369 630L356 625z" stroke="none" fill="#58585A" fill-rule="nonzero" />
    <path d="M374 628L374 632L375 632L374 628z" stroke="none" fill="#858585" fill-rule="nonzero" />
    <path d="M659.333 630.667L659.667 631.333L659.333 630.667z" stroke="none" fill="#AFAFAF" fill-rule="nonzero" />
    <path d="M965.333 630.667L965.667 631.333L965.333 630.667z" stroke="none" fill="#C7C7C7" fill-rule="nonzero" />
    <path d="M980.333 630.667L980.667 631.333L980.333 630.667z" stroke="none" fill="#B1B1B1" fill-rule="nonzero" />
</g>
</svg>