<?xml version="1.0" encoding="UTF-8"?>
<svg xmlns="http://www.w3.org/2000/svg" xmlns:xlink="http://www.w3.org/1999/xlink" width="200px" height="82px" viewBox="0 0 200 82" version="1.1">
<g id="surface1">
<path style="fill-rule:nonzero;fill:rgb(29.019608%,29.019608%,28.627451%);fill-opacity:1;stroke-width:5.0545;stroke-linecap:round;stroke-linejoin:round;stroke:rgb(0%,0%,0%);stroke-opacity:1;stroke-miterlimit:10;" d="M 514.201605 20.595775 C 513.995754 15.498123 512.000588 9.595579 506.806823 8.001577 C 500.203773 6.107712 492.302282 6.407574 485.493382 5.697375 C 475.897584 4.703096 466.301785 3.393174 456.705986 2.604063 C 452.493969 2.304202 449.992094 2.604063 446.793495 5.807851 C 442.597312 10.005917 440.00043 16.397709 439.699571 22.300252 C 439.398713 28.29749 442.597312 33.695003 442.407296 39.597547 C 442.201446 51.797189 433.302372 63.996832 429.502056 75.407365 C 425.305873 88.206731 423.706573 101.195484 429.10619 113.900157 C 417.103524 114.200019 405.797583 115.194298 394.000768 112.495541 C 384.404969 110.301815 374.793336 108.707813 368.601987 118.303392 C 364.199954 125.105521 364.199954 134.306545 372.59232 137.49455 C 383.502394 141.597923 395.695076 143.50757 407.001017 146.506188 C 412.701491 148.005497 419.30454 150.89364 425.305873 150.704254 C 429.99293 150.499085 434.695821 148.400052 439.192862 147.200605 C 450.593811 144.29668 462.596477 146.395713 473.902418 142.79737 C 483.197358 139.798752 490.307116 133.596346 492.492298 123.700905 C 494.899165 113.000572 490.79799 102.394931 493.806574 91.505212 C 497.005174 79.794817 503.307365 69.204959 507.107681 57.699733 C 511.098013 45.894646 514.106597 33.205755 514.201605 20.595775 Z M 514.201605 20.595775 " transform="matrix(0.24669,0,0,0.24751,0.13989,0)"/>
<path style="fill-rule:nonzero;fill:rgb(20%,20%,19.607843%);fill-opacity:1;stroke-width:3;stroke-linecap:round;stroke-linejoin:round;stroke:rgb(24.705882%,24.705882%,24.313725%);stroke-opacity:1;stroke-miterlimit:10;" d="M 512.697313 17.897018 C 509.292863 7.30716 502.594806 14.393369 499.697064 21.400667 C 495.896748 30.396522 500.203773 37.498514 500.298781 46.494369 C 500.298781 55.995255 495.405874 64.501863 491.795573 72.992688 C 488.296116 81.294126 485.097516 89.895427 483.498216 98.796589 C 481.50305 109.796784 483.403208 119.597532 488.406958 129.492974 C 479.096183 129.698142 469.801243 130.503034 460.506303 130.392559 C 451.797245 130.297866 442.803163 125.594769 434.299955 126.494355 C 427.095189 127.299247 418.306957 137.399857 422.392297 144.80171 C 426.192614 151.493364 438.907839 144.407155 444.402463 143.50757 C 459.793743 140.903506 484.305783 145.401434 490.892998 126.304969 C 493.901582 117.703668 490.59214 108.707813 491.304699 99.80665 C 492.001424 90.795012 495.896748 82.099019 499.301198 73.892273 C 506.205106 57.399871 515.800905 36.39376 512.697313 17.897018 Z M 512.697313 17.897018 " transform="matrix(0.24669,0,0,0.24751,0.13989,0)"/>
<path style="fill-rule:nonzero;fill:rgb(29.019608%,29.019608%,28.627451%);fill-opacity:1;stroke-width:5.0545;stroke-linecap:round;stroke-linejoin:round;stroke:rgb(0%,0%,0%);stroke-opacity:1;stroke-miterlimit:10;" d="M 596.795145 30.506998 C 596.700137 24.604454 594.704971 18.19688 588.497788 16.792264 C 581.293022 15.198261 573.296523 15.198261 565.901741 14.393369 C 554.896658 13.193921 543.796568 11.994474 532.80732 10.905502 C 528.801153 10.495165 525.903412 10.005917 522.498962 12.594198 C 517.796071 16.19254 514.898329 22.899976 513.805739 28.597351 C 512.602305 35.304788 515.294196 41.002163 515.800905 47.599123 C 516.798488 61.092907 506.996839 74.902334 502.800656 87.307146 C 498.097765 101.400653 495.706732 115.99919 501.296364 130.203173 C 487.694399 130.692421 475.802576 131.40262 462.406461 128.293526 C 452.303953 126.005107 443.104021 127.599109 438.195279 137.999581 C 434.806664 145.306741 435.693404 153.592397 443.895754 156.306936 C 459.002011 161.294112 475.105851 164.403206 490.497132 168.506579 C 494.804157 169.595551 499.396206 171.505197 503.798239 171.505197 C 508.801989 171.394722 513.805739 168.901134 518.492795 167.606993 C 529.40287 164.497899 541.104677 166.202377 552.093925 162.903897 C 563.099008 159.605416 571.000498 152.093088 573.201515 140.603644 C 575.402532 129.098418 571.792231 117.893054 575.006665 106.403611 C 578.601131 93.493769 585.299188 81.799157 589.305355 69.094484 C 593.200679 56.500286 596.494287 43.495751 596.795145 30.506998 Z M 596.795145 30.506998 " transform="matrix(0.24669,0,0,0.24751,0.13989,0)"/>
<path style="fill-rule:nonzero;fill:rgb(20%,20%,19.607843%);fill-opacity:1;stroke-width:3;stroke-linecap:round;stroke-linejoin:round;stroke:rgb(24.705882%,24.705882%,24.313725%);stroke-opacity:1;stroke-miterlimit:10;" d="M 595.401696 27.397904 C 591.60138 15.498123 584.79248 24.604454 581.894738 32.195694 C 578.205265 41.901748 582.892322 50.203187 582.306439 59.893459 C 581.704723 69.599514 576.700973 78.405983 573.106507 87.19667 C 569.496207 96.003139 566.107591 105.204163 564.397449 114.594574 C 562.307275 126.304969 563.795732 136.800133 568.799482 147.500467 C 559.298691 147.800329 549.797901 148.905083 540.392118 148.905083 C 535.404203 148.905083 530.701311 148.305359 525.903412 147.105912 C 521.200521 145.906464 516.402621 144.107293 511.604722 145.701296 C 505.207523 147.705635 497.100182 159.605416 502.40479 165.997208 C 506.901831 171.59989 519.696229 163.898175 525.301695 162.99859 C 542.403119 160.299833 566.693473 163.598314 572.093089 141.803092 C 574.199098 133.296484 571.602215 124.395322 572.29894 115.794022 C 573.106507 106.103749 577.207682 96.697556 580.897155 87.796394 C 588.307772 69.599514 597.903571 47.693817 595.401696 27.397904 Z M 595.401696 27.397904 " transform="matrix(0.24669,0,0,0.24751,0.13989,0)"/>
<path style="fill-rule:nonzero;fill:rgb(29.019608%,29.019608%,28.627451%);fill-opacity:1;stroke-width:5.0545;stroke-linecap:round;stroke-linejoin:round;stroke:rgb(0%,0%,0%);stroke-opacity:1;stroke-miterlimit:10;" d="M 806.905131 50.992297 C 805.60669 44.695198 804.292414 40.102577 797.404341 39.092516 C 787.206825 37.593207 776.80346 36.89879 766.495102 35.794036 C 753.003979 34.405202 739.497021 32.905893 726.100907 31.501277 C 721.398015 30.996246 715.206667 29.102382 710.693791 31.406583 C 697.392684 38.398099 698.295259 57.699733 699.894559 69.994069 C 702.095575 86.596946 691.407186 102.899962 686.197586 118.098223 C 680.497111 134.795794 676.395937 153.197842 682.302261 170.495136 C 675.303346 171.09486 668.193587 172.104921 661.194671 172.294307 C 653.499031 172.594169 646.800974 169.800719 639.295349 168.806441 C 627.197675 167.101963 618.298601 176.39768 616.002577 187.697737 C 613.801561 198.697933 620.293768 202.296275 629.398692 204.600476 C 649.492864 209.792821 669.602871 215.095641 689.697044 220.303768 C 694.605785 221.597909 699.894559 223.696942 704.898309 224.201972 C 710.297925 224.801696 715.602533 221.803077 720.400432 219.704044 C 733.305673 214.306531 747.794379 216.405564 760.398761 209.792821 C 786.193408 196.299038 775.600026 165.302792 782.598942 142.402815 C 786.795124 128.498695 793.192323 115.49416 797.499349 101.700514 C 801.695531 88.206731 805.305832 74.192135 806.794289 60.193321 C 807.000139 57.194703 807.20599 54.006698 806.905131 50.992297 Z M 806.905131 50.992297 " transform="matrix(0.24669,0,0,0.24751,0.13989,0)"/>
<path style="fill-rule:nonzero;fill:rgb(20%,20%,19.607843%);fill-opacity:1;stroke-width:3;stroke-linecap:round;stroke-linejoin:round;stroke:rgb(24.705882%,24.705882%,24.313725%);stroke-opacity:1;stroke-miterlimit:10;" d="M 806.097564 51.702496 C 805.305832 47.993679 804.498264 42.406779 799.795373 45.405397 C 796.105899 47.693817 793.904883 53.896222 792.495599 57.794426 C 788.600275 68.699929 792.495599 78.59537 791.498016 89.70604 C 790.500433 101.195484 785.100817 111.801124 780.999642 122.406764 C 776.993475 132.996623 773.193159 143.807431 770.992143 154.997013 C 768.39526 168.30141 769.107819 180.800915 773.494017 193.505588 C 762.995644 194.405173 752.402262 196.5989 741.793046 196.504206 C 732.403098 196.393731 721.303007 189.102353 713.100658 196.204345 C 708.793633 199.89738 700.401268 215.395503 708.0019 219.893431 C 711.295508 221.803077 716.805966 218.59929 719.893723 217.30515 C 724.295756 215.505978 728.396931 213.801501 733.099822 213.201777 C 744.104905 211.607774 756.202578 211.197437 765.497519 204.505783 C 774.000726 198.303377 777.801043 188.297461 778.196909 178.007465 C 778.592775 168.001548 777.706035 158.405969 780.097067 148.494746 C 782.393091 138.899166 785.892549 129.698142 789.50285 120.497118 C 797.895215 99.30162 807.095147 74.902334 806.097564 51.702496 Z M 806.097564 51.702496 " transform="matrix(0.24669,0,0,0.24751,0.13989,0)"/>
<path style="fill-rule:nonzero;fill:rgb(29.019608%,29.019608%,28.627451%);fill-opacity:1;stroke-width:5.0545;stroke-linecap:round;stroke-linejoin:round;stroke:rgb(0%,0%,0%);stroke-opacity:1;stroke-miterlimit:10;" d="M 693.101494 39.802715 C 692.705627 33.994865 690.599619 28.29749 684.598286 26.892873 C 676.395937 25.093702 667.401855 25.093702 659.104497 24.194117 C 646.800974 22.899976 634.49745 21.605836 622.304768 20.295913 C 617.902735 19.806664 613.405694 18.496742 609.399528 20.895636 C 604.094919 24.194117 600.89632 31.59597 599.407863 37.403821 C 597.602712 44.695198 599.803729 50.897604 600.595461 58.094288 C 602.099753 72.692826 592.092254 87.19667 587.500205 100.501067 C 582.100589 116.093883 578.901989 132.602067 584.697472 148.494746 C 577.793564 148.905083 570.905491 149.694193 564.001583 149.804668 C 556.495958 149.899362 550.193767 147.895022 542.893993 146.506188 C 532.300611 144.501848 523.702395 149.394331 519.902079 159.70011 C 516.798488 168.206717 519.205355 175.592788 528.104429 178.007465 C 545.807569 182.694779 563.605716 187.303182 581.403864 191.895803 C 585.805897 193.095251 590.603797 195.09959 595.195845 195.399452 C 600.801312 195.794007 606.501786 192.495527 611.695552 190.806831 C 623.793225 186.892845 636.999324 189.00766 648.906982 183.799533 C 659.801222 179.001744 666.49928 169.500857 667.797721 157.69577 C 669.096162 146.095851 666.70513 135.395517 669.90373 123.795598 C 677.504362 96.397694 694.906644 69.599514 693.101494 39.802715 Z M 693.101494 39.802715 " transform="matrix(0.24669,0,0,0.24751,0.13989,0)"/>
<path style="fill-rule:nonzero;fill:rgb(20%,20%,19.607843%);fill-opacity:1;stroke-width:3;stroke-linecap:round;stroke-linejoin:round;stroke:rgb(24.705882%,24.705882%,24.313725%);stroke-opacity:1;stroke-miterlimit:10;" d="M 691.993068 38.603268 C 691.201335 35.494174 690.504611 30.901553 686.403436 32.101 C 682.397269 33.300448 679.705379 40.497132 678.406937 43.906088 C 674.495778 54.401253 679.103662 63.996832 678.106079 74.602472 C 677.092661 84.892469 671.993904 94.298661 668.30443 103.799547 C 664.298263 113.900157 660.703797 124.300629 658.898647 135.000962 C 656.903481 146.80605 658.29693 157.601077 662.793971 168.601272 C 652.802306 169.200996 642.794807 170.495136 632.692299 170.605612 C 623.492367 170.700305 612.107253 163.803482 603.604045 168.396103 C 597.998579 171.394722 590.192096 184.49395 596.003413 190.301801 C 600.89632 195.194284 613.801561 186.892845 619.502035 185.993259 C 638.899483 182.694779 663.506531 184.004702 666.895146 158.800524 C 668.098579 149.504807 665.802555 140.193307 667.496863 130.89759 C 669.207005 121.396704 672.896479 112.100986 676.506779 103.199824 C 684.297427 83.298466 693.70321 60.493183 691.993068 38.603268 Z M 691.993068 38.603268 " transform="matrix(0.24669,0,0,0.24751,0.13989,0)"/>
<path style="fill-rule:nonzero;fill:rgb(65.882353%,65.882353%,65.490196%);fill-opacity:1;stroke-width:5.0545;stroke-linecap:round;stroke-linejoin:round;stroke:rgb(0.784314%,0.784314%,1.176471%);stroke-opacity:1;stroke-miterlimit:10;" d="M 708.698625 153.403011 C 703.394017 138.899166 683.204837 135.805855 669.792887 133.107098 C 656.301764 130.392559 642.794807 127.804278 629.303684 125.200214 C 574.199098 114.499881 519.094512 103.799547 464.005761 93.099214 C 433.096522 87.101977 401.902259 79.005707 370.296295 77.695784 C 332.293132 76.196475 295.097537 82.193712 257.601083 87.19667 C 234.593335 90.195289 211.601421 93.193907 188.593673 96.303001 C 181.293899 97.29728 173.994125 98.402034 166.805193 100.106512 C 159.695435 101.795208 148.801195 104.004716 144.795028 110.806845 C 142.799862 114.200019 142.89487 120.907455 144.098303 124.505797 C 145.301737 128.10414 149.102053 129.39828 152.506503 130.597728 C 156.100969 131.907651 159.806277 132.996623 163.400743 134.19607 C 184.001624 140.998199 204.697513 147.895022 225.298395 154.697151 C 276.396814 171.59989 327.400225 188.597323 378.498644 205.500062 C 389.693743 209.193097 400.793833 213.29647 412.305625 215.80584 C 431.307206 220.003906 450.89467 221.597909 470.292117 221.992464 C 488.99284 222.402801 507.994422 221.597909 526.505129 218.899152 C 541.801402 216.705426 556.606801 212.602053 571.507207 208.798542 C 598.806146 201.807026 626.105084 194.705035 653.404023 187.697737 C 668.193587 183.894226 684.804136 181.400638 698.896976 175.103539 C 702.507276 173.493755 707.004317 171.205335 708.096908 167.196656 C 709.39535 163.50362 709.300342 157.301215 708.698625 153.403011 Z M 708.698625 153.403011 " transform="matrix(0.24669,0,0,0.24751,0.13989,0)"/>
<path style=" stroke:none;fill-rule:nonzero;fill:rgb(89.019608%,89.019608%,89.019608%);fill-opacity:1;" d="M 116.527344 48.882812 L 114.109375 48.808594 L 111.742188 48.683594 L 109.472656 48.488281 L 107.277344 48.238281 L 105.230469 47.941406 L 103.304688 47.570312 L 101.554688 47.199219 L 100.023438 46.753906 L 39.117188 27.992188 L 38.425781 27.746094 L 37.90625 27.5 L 37.613281 27.25 L 37.488281 27.078125 L 37.464844 26.980469 L 37.539062 26.804688 L 37.761719 26.582031 L 38.179688 26.308594 L 38.746094 26.011719 L 39.511719 25.714844 L 40.375 25.445312 L 41.386719 25.171875 L 42.519531 24.898438 L 43.753906 24.675781 L 45.085938 24.453125 L 46.519531 24.257812 L 77.253906 20.195312 L 78.539062 20.023438 L 79.871094 19.898438 L 81.277344 19.777344 L 82.707031 19.703125 L 84.164062 19.628906 L 85.644531 19.578125 L 87.097656 19.554688 L 88.578125 19.554688 L 90.035156 19.578125 L 91.441406 19.628906 L 92.820312 19.675781 L 94.128906 19.777344 L 95.386719 19.898438 L 96.546875 20.023438 L 97.632812 20.171875 L 98.59375 20.34375 L 165.175781 33.339844 L 166.65625 33.660156 L 167.988281 33.984375 L 169.195312 34.355469 L 170.257812 34.726562 L 171.144531 35.121094 L 171.835938 35.519531 L 172.355469 35.914062 L 172.675781 36.285156 L 172.796875 36.582031 L 172.773438 36.878906 L 172.601562 37.175781 L 172.207031 37.546875 L 171.613281 37.917969 L 170.773438 38.316406 L 169.738281 38.660156 L 168.503906 39.007812 L 134.019531 47.300781 L 132.242188 47.695312 L 130.316406 48.015625 L 128.222656 48.3125 L 126.027344 48.535156 L 123.730469 48.734375 L 121.363281 48.832031 L 118.945312 48.882812 Z M 116.527344 48.882812 "/>
<path style=" stroke:none;fill-rule:nonzero;fill:rgb(77.647059%,77.647059%,77.647059%);fill-opacity:1;" d="M 88.578125 19.925781 L 90.007812 19.949219 L 91.414062 20 L 92.773438 20.074219 L 94.078125 20.171875 L 95.3125 20.296875 L 96.472656 20.417969 L 97.53125 20.566406 L 98.496094 20.742188 L 165.050781 33.734375 L 166.507812 34.058594 L 167.839844 34.378906 L 169.023438 34.726562 L 170.058594 35.097656 L 170.921875 35.46875 L 171.589844 35.839844 L 172.058594 36.1875 L 172.304688 36.484375 L 172.378906 36.65625 L 172.378906 36.78125 L 172.28125 36.976562 L 171.960938 37.273438 L 171.417969 37.621094 L 170.628906 37.96875 L 169.617188 38.316406 L 168.382812 38.636719 L 133.894531 46.953125 L 132.144531 47.324219 L 130.21875 47.671875 L 128.148438 47.941406 L 125.953125 48.164062 L 123.65625 48.339844 L 121.289062 48.460938 L 118.894531 48.511719 L 116.480469 48.511719 L 114.085938 48.4375 L 111.742188 48.3125 L 109.472656 48.117188 L 107.300781 47.867188 L 105.253906 47.570312 L 103.355469 47.226562 L 101.628906 46.828125 L 100.074219 46.40625 L 39.191406 27.648438 L 38.523438 27.398438 L 38.054688 27.175781 L 37.808594 27.003906 L 37.933594 26.878906 L 38.304688 26.632812 L 38.84375 26.359375 L 39.5625 26.085938 L 40.425781 25.816406 L 41.410156 25.542969 L 42.519531 25.296875 L 43.753906 25.046875 L 45.085938 24.824219 L 46.492188 24.628906 L 77.253906 20.566406 L 78.539062 20.417969 L 79.871094 20.296875 L 81.25 20.171875 L 82.683594 20.074219 L 84.136719 20 L 85.617188 19.949219 L 87.097656 19.925781 L 88.578125 19.925781 M 88.578125 19.183594 L 87.097656 19.183594 L 85.617188 19.207031 L 84.136719 19.257812 L 82.683594 19.332031 L 81.25 19.429688 L 79.84375 19.554688 L 78.488281 19.675781 L 77.207031 19.824219 L 46.445312 23.882812 L 45.011719 24.082031 L 43.679688 24.304688 L 42.421875 24.554688 L 41.289062 24.824219 L 40.25 25.097656 L 39.339844 25.394531 L 38.574219 25.691406 L 37.957031 25.988281 L 37.488281 26.308594 L 37.191406 26.632812 L 37.070312 26.953125 L 37.117188 27.25 L 37.339844 27.546875 L 37.734375 27.84375 L 38.304688 28.117188 L 39.042969 28.390625 L 99.949219 47.152344 L 101.53125 47.597656 L 103.28125 47.992188 L 105.207031 48.339844 L 107.277344 48.636719 L 109.472656 48.882812 L 111.765625 49.082031 L 114.136719 49.203125 L 116.554688 49.277344 L 118.996094 49.277344 L 121.414062 49.230469 L 123.804688 49.105469 L 126.125 48.933594 L 128.34375 48.710938 L 130.441406 48.414062 L 132.390625 48.066406 L 134.167969 47.671875 L 168.605469 39.355469 L 169.863281 39.007812 L 170.921875 38.636719 L 171.785156 38.242188 L 172.453125 37.820312 L 172.898438 37.398438 L 173.144531 36.953125 L 173.167969 36.507812 L 172.996094 36.0625 L 172.625 35.617188 L 172.058594 35.195312 L 171.316406 34.773438 L 170.40625 34.378906 L 169.320312 33.984375 L 168.085938 33.613281 L 166.730469 33.265625 L 165.25 32.945312 L 98.667969 19.972656 L 97.679688 19.800781 L 96.59375 19.652344 L 95.410156 19.527344 L 94.152344 19.40625 L 92.820312 19.304688 L 91.441406 19.230469 L 90.007812 19.183594 Z M 88.578125 19.183594 "/>
<path style="fill-rule:nonzero;fill:rgb(29.019608%,29.019608%,28.627451%);fill-opacity:1;stroke-width:5.0545;stroke-linecap:round;stroke-linejoin:round;stroke:rgb(0.784314%,0.784314%,1.176471%);stroke-opacity:1;stroke-miterlimit:10;" d="M 201.89478 180.295884 C 200.707181 172.499476 195.196723 167.906855 188.197807 165.192316 C 176.907701 160.899557 165.395909 157.001353 154.105803 152.803287 C 147.201895 150.293917 141.501421 147.800329 134.106639 149.694193 C 125.39758 151.903701 117.796948 157.601077 109.705441 161.199419 C 105.303408 143.902125 94.203318 130.392559 84.10081 116.093883 C 79.492927 109.607398 75.803453 102.805269 76.801036 94.598523 C 77.798619 86.502253 80.997219 79.400262 78.305328 71.193517 C 72.098145 52.507389 53.397422 50.597742 36.897715 46.399676 C 30.294666 44.695198 20.698867 40.307746 13.699951 41.69658 C 6.305169 43.195889 2.694869 51.907665 2.694869 58.694012 C 2.694869 74.397304 11.593943 92.294322 19.701284 105.39355 C 28.204492 119.092502 42.899048 130.89759 46.493514 147.295298 C 49.802956 161.893836 41.806457 178.796575 57.799455 188.297461 C 64.497512 192.30614 72.193153 195.09959 79.207903 198.492764 C 86.903543 202.201582 94.599184 206.904678 102.706525 209.492959 C 119.000381 214.906255 137.400246 207.898957 152.997377 203.19586 C 161.706436 200.607579 169.592092 198.603239 178.602008 197.593178 C 186.297649 196.804068 195.307565 196.393731 199.899614 189.197046 C 201.498914 186.49829 202.100631 183.499671 201.89478 180.295884 Z M 201.89478 180.295884 " transform="matrix(0.24669,0,0,0.24751,0.13989,0)"/>
<path style="fill-rule:nonzero;fill:rgb(20%,20%,19.607843%);fill-opacity:1;stroke-width:3;stroke-linecap:round;stroke-linejoin:round;stroke:rgb(24.705882%,24.705882%,24.313725%);stroke-opacity:1;stroke-miterlimit:10;" d="M 199.202889 179.901329 C 191.903115 158.106107 165.300901 179.396299 153.694102 184.304564 C 136.798529 191.406555 118.303657 195.399452 100.806367 200.907441 C 107.298574 187.397875 110.592182 173.998785 105.905125 159.195079 C 101.503092 145.306741 92.192317 133.40696 83.704944 121.901734 C 79.397919 115.99919 74.995886 109.90726 73.792452 102.505407 C 72.494011 94.993078 75.69261 88.506593 76.294327 81.10474 C 77.101894 71.998409 63.70578 49.098433 52.906547 58.899181 C 42.80404 68.100205 51.798122 88.806455 55.994304 98.796589 C 61.995637 113.20574 70.403837 124.300629 79.207903 137.005302 C 88.201985 149.899362 94.694192 161.104726 93.997467 177.297266 C 93.696609 184.399257 92.794034 191.706417 96.59435 198.098209 C 100.299658 204.395308 107.092724 206.699509 113.996632 207.299233 C 131.794779 208.593374 148.801195 200.307717 165.696768 196.093869 C 174.801692 193.900143 203.604922 196.299038 199.202889 179.901329 Z M 199.202889 179.901329 " transform="matrix(0.24669,0,0,0.24751,0.13989,0)"/>
<path style="fill-rule:nonzero;fill:rgb(29.019608%,29.019608%,28.627451%);fill-opacity:1;stroke-width:5.0545;stroke-linecap:round;stroke-linejoin:round;stroke:rgb(0.784314%,0.784314%,1.176471%);stroke-opacity:1;stroke-miterlimit:10;" d="M 273.594081 207.299233 C 271.503907 193.000557 257.094374 190.207107 245.598417 186.103735 C 234.894193 182.205531 224.205804 178.307327 213.501579 174.503816 C 208.307814 172.594169 203.905781 171.205335 198.300314 172.404783 C 190.097965 174.093478 182.893199 179.001744 175.704267 182.994641 C 168.895367 165.00293 157.494418 151.193502 147.692769 135.000962 C 143.10072 127.299247 141.802279 120.102563 143.702437 111.406569 C 145.697603 102.09507 147.296903 93.9988 142.799862 85.19233 C 132.998213 65.796003 108.502008 64.707031 90.007135 60.003935 C 83.594101 58.39415 74.299161 54.101391 67.696112 56.894841 C 60.30133 60.003935 57.799455 69.804683 58.195321 77.001367 C 59.192904 94.50383 67.99697 113.900157 77.402753 128.404002 C 86.998551 143.302401 103.498258 157.601077 104.305825 176.39768 C 104.701691 185.298842 102.199816 194.405173 105.303408 203.006474 C 108.296157 211.29213 113.996632 215.206117 121.692272 218.804459 C 129.704606 222.497494 137.606096 226.395698 145.507587 230.104516 C 153.393244 233.892245 161.595593 238.895203 170.003793 241.199405 C 188.799524 246.502225 210.097129 236.79617 227.705262 231.004102 C 236.699343 228.005483 245.392567 226.995422 254.703342 225.496113 C 261.496407 224.407141 268.194465 222.497494 271.693922 216.105702 C 273.293222 213.406946 273.799931 210.50302 273.594081 207.299233 Z M 273.594081 207.299233 " transform="matrix(0.24669,0,0,0.24751,0.13989,0)"/>
<path style="fill-rule:nonzero;fill:rgb(20%,20%,19.607843%);fill-opacity:1;stroke-width:3;stroke-linecap:round;stroke-linejoin:round;stroke:rgb(24.705882%,24.705882%,24.313725%);stroke-opacity:1;stroke-miterlimit:10;" d="M 270.997198 206.904678 C 264.504991 187.492569 244.094125 201.002134 233.199885 207.299233 C 220.405487 214.701086 206.407656 218.993845 192.393989 223.39708 C 184.001624 226.095837 175.704267 228.905069 167.296067 231.793212 C 174.199975 216.894812 178.000292 202.201582 173.107384 185.898566 C 168.499501 170.605612 158.697852 157.601077 149.592927 144.80171 C 145.000879 138.394136 140.598846 131.497313 139.601263 123.495736 C 138.492837 115.49416 141.992295 108.392168 142.704854 100.501067 C 143.306571 93.099214 140.092137 85.90253 134.993379 80.694403 C 130.19548 75.707227 121.803115 71.00413 116.799365 77.995646 C 108.407 89.800734 116.292656 109.102368 120.995547 120.907455 C 123.893289 128.198833 127.107723 135.600686 131.098055 142.402815 C 135.104222 149.094469 140.202979 154.90232 144.49417 161.294112 C 154.105803 175.498095 161.199727 188.092292 160.202144 205.594755 C 159.394576 220.493155 160.503002 236.401615 178.807859 238.405955 C 195.196723 240.205126 212.393154 232.803273 227.594419 227.705621 C 234.593335 225.40142 241.196384 223.602248 248.496158 222.702663 C 254.893358 221.897771 264.204132 221.992464 268.606165 216.59495 C 271.092206 214.006669 271.899773 210.50302 270.997198 206.904678 Z M 270.997198 206.904678 " transform="matrix(0.24669,0,0,0.24751,0.13989,0)"/>
<path style="fill-rule:nonzero;fill:rgb(29.019608%,29.019608%,28.627451%);fill-opacity:1;stroke-width:5.0545;stroke-linecap:round;stroke-linejoin:round;stroke:rgb(0.784314%,0.784314%,1.176471%);stroke-opacity:1;stroke-miterlimit:10;" d="M 360.30463 240.205126 C 357.992771 224.596527 344.406641 221.803077 331.5014 217.194674 C 319.403726 212.807222 307.401061 208.49868 295.303387 204.095446 C 289.998779 202.201582 284.203297 199.092488 278.407815 198.903101 C 269.793764 198.603239 262.398982 203.495722 255.305058 207.693788 C 252.502325 198.303377 246.200134 188.802491 241.006368 180.595746 C 235.606752 172.104921 228.306978 164.198037 225.298395 154.397289 C 222.400653 144.896403 225.504245 136.70544 227.103545 127.393941 C 228.797852 118.00353 226.596836 109.197061 221.102212 101.400653 C 215.892612 94.093493 209.194554 90.400457 200.707181 88.206731 C 186.392657 84.592607 172.093967 80.899571 157.795277 77.301229 C 151.30307 75.596751 142.799862 71.79324 136.196813 74.807641 C 128.501172 78.295508 125.603431 88.995841 125.904289 96.697556 C 126.696022 115.794022 135.595096 137.005302 145.507587 152.992673 C 155.705103 169.595551 173.107384 185.204149 173.804109 205.894617 C 174.104967 215.600672 171.302234 225.606588 174.500834 235.107474 C 177.794441 244.797747 184.793357 248.995813 193.692431 253.099185 C 202.797355 257.297251 211.696429 261.605793 220.706346 265.993245 C 229.906278 270.506955 239.407069 275.999162 249.097875 279.297642 C 268.099457 285.705216 289.903771 275.399438 307.496069 268.89717 C 317.20271 265.298828 326.101784 262.80524 336.394307 261.100762 C 344.20079 259.806622 352.403139 258.402006 357.201039 251.505183 C 359.497063 248.001534 360.399638 244.403192 360.30463 240.205126 Z M 360.30463 240.205126 " transform="matrix(0.24669,0,0,0.24751,0.13989,0)"/>
<path style="fill-rule:nonzero;fill:rgb(20%,20%,19.607843%);fill-opacity:1;stroke-width:3;stroke-linecap:round;stroke-linejoin:round;stroke:rgb(24.705882%,24.705882%,24.313725%);stroke-opacity:1;stroke-miterlimit:10;" d="M 357.802755 239.605402 C 350.80384 218.59929 329.9021 233.797551 318.295301 240.994236 C 304.994194 249.40615 290.093787 254.503801 275.304223 259.696146 C 266.405149 262.899933 257.601083 266.198414 248.702009 269.607369 C 256.096791 253.399047 260.403816 237.206507 255.700925 219.498876 C 251.504742 203.495722 241.893109 189.402215 232.804019 175.89265 C 227.800269 168.506579 222.79652 160.99425 221.40307 151.998395 C 219.993786 143.207708 223.00237 135.505993 224.300812 126.999385 C 225.599253 118.492778 223.398236 110.806845 217.903612 104.194103 C 213.802438 99.30162 205.600089 92.404797 199.297897 97.80231 C 187.105216 108.502644 196.194306 133.201791 200.501331 145.496127 C 206.201805 162.193698 214.705013 175.592788 224.395819 190.096632 C 234.007453 204.505783 242.700676 218.993845 242.003952 236.906645 C 241.402235 252.70463 238.393651 273.805435 259.596249 276.504192 C 276.507656 278.697918 294.099954 270.39648 309.507069 264.793798 C 317.598576 261.795179 325.104201 259.206898 333.607408 257.802282 C 340.79634 256.697528 351.104698 256.492359 355.807589 250.005874 C 357.992771 246.89678 358.49948 243.298438 357.802755 239.605402 Z M 357.802755 239.605402 " transform="matrix(0.24669,0,0,0.24751,0.13989,0)"/>
<path style="fill-rule:nonzero;fill:rgb(29.019608%,29.019608%,28.627451%);fill-opacity:1;stroke-width:5.0545;stroke-linecap:round;stroke-linejoin:round;stroke:rgb(0.784314%,0.784314%,1.176471%);stroke-opacity:1;stroke-miterlimit:10;" d="M 467.093518 280.497089 C 465.098352 263.704826 451.10052 260.595732 437.403547 255.703249 C 424.403298 251.000152 411.40305 246.297056 398.402801 241.59396 C 390.50131 238.705817 382.393969 235.107474 374.302462 232.897966 C 367.192704 231.004102 360.30463 233.49769 354.002439 236.701477 C 349.394556 226.301005 343.298215 216.800119 337.201874 207.20454 C 331.596408 198.398071 326.101784 188.707798 326.703501 177.802296 C 327.305217 167.496518 331.897266 157.900938 331.200541 147.405774 C 330.503817 137.305164 324.597492 126.60483 316.600993 120.307732 C 309.602077 114.894436 300.006279 113.694989 291.693087 111.595956 C 275.399231 107.39789 259.105375 103.294517 242.795684 99.096451 C 235.796768 97.29728 227.404403 93.604244 220.595503 97.597142 C 212.899863 102.000376 210.002122 113.20574 210.192137 121.396704 C 210.698846 142.702677 219.898779 166.896794 230.698011 184.998981 C 241.497243 203.006474 259.200383 220.493155 259.295391 242.793407 C 259.295391 253.904078 256.207634 265.298828 259.992115 276.093855 C 263.602416 286.399633 271.804765 290.597699 281.194713 294.90624 C 301.700586 304.407127 322.000609 314.602429 342.506482 323.99284 C 353.400722 328.995798 362.505647 329.895384 374.207454 327.606965 C 385.49756 325.302763 395.900926 320.69436 406.3993 316.196432 C 417.705241 311.398642 427.997764 306.995408 440.095437 304.596513 C 449.707071 302.592173 459.492885 300.698309 464.607477 291.497285 C 466.396793 287.993636 467.20436 284.395293 467.093518 280.497089 Z M 467.093518 280.497089 " transform="matrix(0.24669,0,0,0.24751,0.13989,0)"/>
<path style="fill-rule:nonzero;fill:rgb(20%,20%,19.607843%);fill-opacity:1;stroke-width:3;stroke-linecap:round;stroke-linejoin:round;stroke:rgb(24.705882%,24.705882%,24.313725%);stroke-opacity:1;stroke-miterlimit:10;" d="M 464.797493 279.897366 C 457.402711 256.602834 435.107522 275.004883 423.199865 283.306321 C 409.202033 292.996594 393.193201 299.199 377.501061 305.606574 C 368.50698 309.299609 359.607906 313.197813 350.692997 317.096018 C 358.594488 298.993831 363.693246 280.796951 359.101197 261.006069 C 355.000022 243.203744 345.198373 227.595146 335.697582 212.302191 C 330.598825 204.095446 325.705917 195.794007 324.296634 186.103735 C 322.998192 176.997404 325.595075 168.901134 327.400225 159.999971 C 329.205375 150.89364 328.207792 142.79737 323.299051 134.795794 C 319.593742 128.798557 310.298802 119.092502 302.698169 124.600491 C 295.604246 129.698142 294.907521 141.803092 295.699254 149.5995 C 296.601829 159.195079 299.103704 168.806441 301.906437 178.007465 C 307.401061 196.393731 315.904268 211.607774 326.006776 227.705621 C 335.697582 242.998576 344.897515 259.206898 344.406641 277.798333 C 343.899932 293.296456 337.597741 318.106079 358.198622 323.692978 C 376.20262 328.50655 397.405218 316.701462 413.493223 309.899333 C 421.996431 306.300991 429.897922 303.00251 438.907839 301.092864 C 446.904337 299.498861 457.893585 298.899138 462.707319 291.292116 C 464.797493 287.804249 465.494218 284.000738 464.797493 279.897366 Z M 464.797493 279.897366 " transform="matrix(0.24669,0,0,0.24751,0.13989,0)"/>
</g>
</svg>
