<?xml version="1.0" encoding="UTF-8"?>
<svg xmlns="http://www.w3.org/2000/svg" xmlns:xlink="http://www.w3.org/1999/xlink" width="200px" height="110px" viewBox="0 0 200 110" version="1.1">
<g id="surface1">
<path style="fill-rule:evenodd;fill:rgb(32.941176%,43.137255%,47.843137%);fill-opacity:1;stroke-width:1;stroke-linecap:round;stroke-linejoin:round;stroke:rgb(0%,0%,0%);stroke-opacity:1;stroke-miterlimit:4;" d="M 50.001133 6.000533 L 94.999961 6.000533 L 94.999961 38.497692 L 50.001133 38.497692 Z M 117.499375 6.000533 L 162.498203 6.000533 L 162.498203 38.497692 L 117.499375 38.497692 Z M 182.502578 6.000533 L 227.501406 6.000533 L 227.501406 38.497692 L 182.502578 38.497692 Z M 5.002305 96.00071 L 5.002305 50.997869 L 37.498398 50.997869 L 37.498398 96.00071 Z M 50.001133 115.997692 L 94.999961 115.997692 L 94.999961 148.500355 L 50.001133 148.500355 Z M 117.499375 115.997692 L 162.498203 115.997692 L 162.498203 148.500355 L 117.499375 148.500355 Z M 182.502578 115.997692 L 227.501406 115.997692 L 227.501406 148.500355 L 182.502578 148.500355 Z M 244.999727 96.00071 L 244.999727 50.997869 L 277.501328 50.997869 L 277.501328 96.00071 Z M 244.999727 96.00071 " transform="matrix(0.70922,0,0,0.709677,0.35461,0.354839)"/>
<path style="fill-rule:evenodd;fill:rgb(63.137255%,53.333333%,49.803922%);fill-opacity:1;stroke-width:1;stroke-linecap:round;stroke-linejoin:round;stroke:rgb(0%,0%,0%);stroke-opacity:1;stroke-miterlimit:4;" d="M 32.497305 25.997514 L 247.500273 25.997514 L 247.500273 125.998935 L 32.497305 125.998935 Z M 32.497305 25.997514 " transform="matrix(0.70922,0,0,0.709677,0.35461,0.354839)"/>
<path style="fill-rule:evenodd;fill:rgb(100%,100%,100%);fill-opacity:1;stroke-width:1;stroke-linecap:round;stroke-linejoin:round;stroke:rgb(0%,0%,0%);stroke-opacity:1;stroke-miterlimit:4;" d="M 52.997383 0.000887784 L 91.998203 0.000887784 C 93.656055 0.000887784 94.999961 1.343928 94.999961 3.00071 L 94.999961 7.002308 C 94.999961 8.659091 93.656055 10.002131 91.998203 10.002131 L 52.997383 10.002131 C 51.345039 10.002131 50.001133 8.659091 50.001133 7.002308 L 50.001133 3.00071 C 50.001133 1.343928 51.345039 0.000887784 52.997383 0.000887784 Z M 52.997383 0.000887784 " transform="matrix(0.70922,0,0,0.709677,0.35461,0.354839)"/>
<path style="fill-rule:evenodd;fill:rgb(100%,100%,100%);fill-opacity:1;stroke-width:1;stroke-linecap:round;stroke-linejoin:round;stroke:rgb(0%,0%,0%);stroke-opacity:1;stroke-miterlimit:4;" d="M 120.501133 0.000887784 L 159.501953 0.000887784 C 161.154297 0.000887784 162.498203 1.343928 162.498203 3.00071 L 162.498203 7.002308 C 162.498203 8.659091 161.154297 10.002131 159.501953 10.002131 L 120.501133 10.002131 C 118.843281 10.002131 117.499375 8.659091 117.499375 7.002308 L 117.499375 3.00071 C 117.499375 1.343928 118.843281 0.000887784 120.501133 0.000887784 Z M 120.501133 0.000887784 " transform="matrix(0.70922,0,0,0.709677,0.35461,0.354839)"/>
<path style="fill-rule:evenodd;fill:rgb(100%,100%,100%);fill-opacity:1;stroke-width:1;stroke-linecap:round;stroke-linejoin:round;stroke:rgb(0%,0%,0%);stroke-opacity:1;stroke-miterlimit:4;" d="M 185.498828 0.000887784 L 224.499648 0.000887784 C 226.1575 0.000887784 227.501406 1.343928 227.501406 3.00071 L 227.501406 7.002308 C 227.501406 8.659091 226.1575 10.002131 224.499648 10.002131 L 185.498828 10.002131 C 183.840977 10.002131 182.502578 8.659091 182.502578 7.002308 L 182.502578 3.00071 C 182.502578 1.343928 183.840977 0.000887784 185.498828 0.000887784 Z M 185.498828 0.000887784 " transform="matrix(0.70922,0,0,0.709677,0.35461,0.354839)"/>
<path style="fill-rule:evenodd;fill:rgb(100%,100%,100%);fill-opacity:1;stroke-width:1;stroke-linecap:round;stroke-linejoin:round;stroke:rgb(0%,0%,0%);stroke-opacity:1;stroke-miterlimit:4;" d="M 185.498828 143.502486 L 224.499648 143.502486 C 226.1575 143.502486 227.501406 144.845526 227.501406 146.502308 L 227.501406 150.498402 C 227.501406 152.155185 226.1575 153.498224 224.499648 153.498224 L 185.498828 153.498224 C 183.840977 153.498224 182.502578 152.155185 182.502578 150.498402 L 182.502578 146.502308 C 182.502578 144.845526 183.840977 143.502486 185.498828 143.502486 Z M 185.498828 143.502486 " transform="matrix(0.70922,0,0,0.709677,0.35461,0.354839)"/>
<path style="fill-rule:evenodd;fill:rgb(100%,100%,100%);fill-opacity:1;stroke-width:1;stroke-linecap:round;stroke-linejoin:round;stroke:rgb(0%,0%,0%);stroke-opacity:1;stroke-miterlimit:4;" d="M 120.501133 143.502486 L 159.501953 143.502486 C 161.154297 143.502486 162.498203 144.845526 162.498203 146.502308 L 162.498203 150.498402 C 162.498203 152.155185 161.154297 153.498224 159.501953 153.498224 L 120.501133 153.498224 C 118.843281 153.498224 117.499375 152.155185 117.499375 150.498402 L 117.499375 146.502308 C 117.499375 144.845526 118.843281 143.502486 120.501133 143.502486 Z M 120.501133 143.502486 " transform="matrix(0.70922,0,0,0.709677,0.35461,0.354839)"/>
<path style="fill-rule:evenodd;fill:rgb(100%,100%,100%);fill-opacity:1;stroke-width:1;stroke-linecap:round;stroke-linejoin:round;stroke:rgb(0%,0%,0%);stroke-opacity:1;stroke-miterlimit:4;" d="M 52.997383 143.502486 L 91.998203 143.502486 C 93.656055 143.502486 94.999961 144.845526 94.999961 146.502308 L 94.999961 150.498402 C 94.999961 152.155185 93.656055 153.498224 91.998203 153.498224 L 52.997383 153.498224 C 51.345039 153.498224 50.001133 152.155185 50.001133 150.498402 L 50.001133 146.502308 C 50.001133 144.845526 51.345039 143.502486 52.997383 143.502486 Z M 52.997383 143.502486 " transform="matrix(0.70922,0,0,0.709677,0.35461,0.354839)"/>
<path style="fill-rule:evenodd;fill:rgb(100%,100%,100%);fill-opacity:1;stroke-width:1;stroke-linecap:round;stroke-linejoin:round;stroke:rgb(0%,0%,0%);stroke-opacity:1;stroke-miterlimit:4;" d="M 2.997692 0.00242188 L 42.000888 0.00242188 C 43.65767 0.00242188 45.00071 1.34082 45.00071 2.998672 L 45.00071 6.997344 C 45.00071 8.655195 43.65767 9.999102 42.000888 9.999102 L 2.997692 9.999102 C 1.340909 9.999102 -0.00213068 8.655195 -0.00213068 6.997344 L -0.00213068 2.998672 C -0.00213068 1.34082 1.340909 0.00242188 2.997692 0.00242188 Z M 2.997692 0.00242188 " transform="matrix(0,0.709677,-0.70922,0,199.29078,36.548387)"/>
<path style="fill-rule:evenodd;fill:rgb(100%,100%,100%);fill-opacity:1;stroke-width:1;stroke-linecap:round;stroke-linejoin:round;stroke:rgb(0%,0%,0%);stroke-opacity:1;stroke-miterlimit:4;" d="M 2.997692 0.00210937 L 42.000888 0.00210937 C 43.65767 0.00210937 45.00071 1.340508 45.00071 2.998359 L 45.00071 7.002539 C 45.00071 8.654883 43.65767 9.998789 42.000888 9.998789 L 2.997692 9.998789 C 1.340909 9.998789 -0.00213068 8.654883 -0.00213068 7.002539 L -0.00213068 2.998359 C -0.00213068 1.340508 1.340909 0.00210937 2.997692 0.00210937 Z M 2.997692 0.00210937 " transform="matrix(0,0.709677,-0.70922,0,7.446809,36.548387)"/>
</g>
</svg>
