<?xml version="1.0" encoding="UTF-8"?>
<svg xmlns="http://www.w3.org/2000/svg" xmlns:xlink="http://www.w3.org/1999/xlink" width="50px" height="50px" viewBox="0 0 50 50" version="1.1">
<g id="surface1">
<path style=" stroke:none;fill-rule:nonzero;fill:rgb(0%,85.490196%,42.352941%);fill-opacity:1;" d="M 37.96875 31.664062 C 38.46875 30 38.800781 28.25 38.800781 26.5 C 38.800781 18.664062 33.21875 12.5 26.300781 12.5 C 19.382812 12.5 13.800781 18.664062 13.800781 26.5 C 13.800781 28.25 14.132812 30 14.632812 31.664062 Z M 37.96875 31.664062 "/>
<path style=" stroke:none;fill-rule:nonzero;fill:rgb(0%,67.843137%,33.333333%);fill-opacity:1;" d="M 26.300781 12.5 C 25.882812 12.5 25.46875 12.5 25.050781 12.582031 C 31.382812 13.25 36.300781 19.082031 36.300781 26.5 C 36.300781 28.25 35.96875 30 35.46875 31.664062 L 37.96875 31.664062 C 38.46875 30 38.800781 28.25 38.800781 26.5 C 38.800781 18.664062 33.21875 12.5 26.300781 12.5 "/>
<path style=" stroke:none;fill-rule:nonzero;fill:rgb(0%,85.490196%,42.352941%);fill-opacity:1;" d="M 18.050781 16 C 16.550781 15 15.96875 14.582031 15.21875 14.332031 C 11.71875 12.914062 7.96875 14.25 6.71875 17.332031 C 5.46875 20.414062 7.296875 24 10.71875 25.414062 C 11.46875 25.75 12.21875 25.914062 13.800781 26.5 C 13.800781 22.25 15.46875 18.5 18.050781 16 "/>
<path style=" stroke:none;fill-rule:nonzero;fill:rgb(100%,100%,100%);fill-opacity:1;" d="M 13.132812 25.832031 C 9.632812 24.414062 7.882812 20.832031 9.132812 17.75 C 9.96875 15.664062 11.96875 14.414062 14.21875 14.25 C 11.046875 13.414062 7.796875 14.75 6.71875 17.582031 C 5.46875 20.664062 7.296875 24.25 10.71875 25.664062 C 11.46875 26 12.21875 26.164062 13.800781 26.75 C 13.800781 26.582031 13.800781 26.332031 13.800781 26.164062 C 13.550781 26 13.382812 25.914062 13.132812 25.832031 "/>
<path style=" stroke:none;fill-rule:nonzero;fill:rgb(0%,85.490196%,42.352941%);fill-opacity:1;" d="M 39.382812 1.914062 C 34.800781 -0.00390625 29.382812 2.664062 27.132812 7.828125 C 26.71875 8.914062 26.300781 10.164062 26.300781 12.5 C 31.882812 12.5 36.632812 16.582031 38.21875 22.25 C 40.46875 19.5 42.550781 17.5 43.71875 14.75 C 45.882812 9.578125 43.96875 3.828125 39.382812 1.914062 "/>
<path style=" stroke:none;fill-rule:nonzero;fill:rgb(0%,67.843137%,33.333333%);fill-opacity:1;" d="M 39.382812 2.078125 C 38.382812 1.664062 37.300781 1.5 36.300781 1.5 C 36.46875 1.578125 36.71875 1.578125 36.882812 1.664062 C 41.46875 3.578125 43.382812 9.332031 41.21875 14.5 C 40.300781 16.582031 38.96875 18.25 37.300781 20.082031 C 37.632812 20.832031 37.96875 21.582031 38.132812 22.414062 C 40.382812 19.664062 42.46875 17.664062 43.632812 14.914062 C 45.882812 9.75 43.882812 4 39.382812 2.078125 "/>
<path style=" stroke:none;fill-rule:nonzero;fill:rgb(100%,88.235294%,0%);fill-opacity:1;" d="M 42.96875 33.664062 C 42.96875 34.414062 42.382812 35 41.632812 35 L 10.96875 35 C 10.21875 35 9.632812 34.414062 9.632812 33.664062 L 9.632812 32.914062 C 9.632812 32.25 10.21875 31.664062 10.96875 31.664062 L 41.71875 31.664062 C 42.46875 31.664062 43.050781 32.25 43.050781 33 Z M 42.96875 33.664062 "/>
<path style=" stroke:none;fill-rule:nonzero;fill:rgb(100%,100%,100%);fill-opacity:1;" d="M 12.132812 33.664062 L 12.132812 32.914062 C 12.132812 32.164062 12.71875 31.582031 13.46875 31.582031 L 10.96875 31.582031 C 10.21875 31.664062 9.632812 32.25 9.632812 33 L 9.632812 33.75 C 9.632812 34.414062 10.21875 35 10.96875 35 L 13.46875 35 C 12.71875 35 12.132812 34.414062 12.132812 33.664062 "/>
<path style=" stroke:none;fill-rule:nonzero;fill:rgb(100%,65.882353%,0%);fill-opacity:1;" d="M 41.632812 31.664062 L 39.132812 31.664062 C 39.882812 31.664062 40.46875 32.25 40.46875 33 L 40.46875 33.75 C 40.46875 34.5 39.882812 35.082031 39.132812 35.082031 L 41.632812 35.082031 C 42.382812 35.082031 42.96875 34.5 42.96875 33.75 L 42.96875 33 C 42.96875 32.25 42.382812 31.664062 41.632812 31.664062 "/>
<path style=" stroke:none;fill-rule:nonzero;fill:rgb(100%,88.235294%,0%);fill-opacity:1;" d="M 35.46875 49.164062 L 17.132812 49.164062 L 12.132812 35 L 40.46875 35 Z M 35.46875 49.164062 "/>
<path style=" stroke:none;fill-rule:nonzero;fill:rgb(99.607843%,80%,0%);fill-opacity:1;" d="M 37.382812 43.664062 L 35.800781 42.75 C 35.132812 42.332031 34.21875 42.414062 33.632812 42.914062 L 32.382812 44 C 31.71875 44.582031 30.882812 45 29.96875 45 C 29.132812 45 28.382812 44.832031 27.882812 44.25 L 24.632812 40.832031 C 23.632812 39.832031 22.882812 39.832031 21.382812 40.414062 C 20.550781 40.75 19.800781 41.664062 18.800781 41.664062 C 17.632812 41.664062 16.800781 41.25 16.300781 40.832031 L 13.300781 38.164062 L 17.132812 49.164062 L 35.46875 49.164062 Z M 37.382812 43.664062 "/>
<path style=" stroke:none;fill-rule:nonzero;fill:rgb(100%,65.882353%,0%);fill-opacity:1;" d="M 37.96875 35 L 33.882812 49.164062 L 35.46875 49.164062 L 40.46875 35 Z M 37.96875 35 "/>
<path style=" stroke:none;fill-rule:nonzero;fill:rgb(100%,100%,100%);fill-opacity:1;" d="M 12.132812 35 L 17.132812 49.164062 L 18.71875 49.164062 L 14.632812 35 Z M 12.132812 35 "/>
<path style=" stroke:none;fill-rule:nonzero;fill:rgb(0%,0%,0%);fill-opacity:1;" d="M 41.632812 35.832031 L 10.96875 35.832031 C 9.796875 35.832031 8.796875 34.832031 8.796875 33.664062 L 8.796875 32.914062 C 8.796875 31.832031 9.796875 30.832031 10.96875 30.832031 L 41.71875 30.832031 C 42.882812 30.832031 43.882812 31.832031 43.882812 33 L 43.882812 33.75 C 43.800781 34.832031 42.800781 35.832031 41.632812 35.832031 Z M 10.46875 33 L 10.46875 33.75 C 10.46875 33.914062 10.71875 34.164062 10.96875 34.164062 L 41.71875 34.164062 C 41.96875 34.164062 42.21875 33.914062 42.21875 33.664062 L 42.21875 32.914062 C 42.21875 32.664062 41.96875 32.414062 41.71875 32.414062 L 10.96875 32.414062 C 10.96875 32.414062 10.46875 32.414062 10.46875 33 Z M 10.46875 33 "/>
<path style=" stroke:none;fill-rule:nonzero;fill:rgb(0%,0%,0%);fill-opacity:1;" d="M 36.050781 50 L 16.550781 50 L 10.96875 34.164062 L 41.632812 34.164062 Z M 17.71875 48.335938 L 34.882812 48.335938 L 39.300781 35.832031 L 13.300781 35.832031 Z M 17.71875 48.335938 "/>
<path style=" stroke:none;fill-rule:nonzero;fill:rgb(0%,0%,0%);fill-opacity:1;" d="M 38.632812 32.164062 L 13.96875 32.164062 L 13.800781 31.582031 C 13.21875 29.75 12.96875 28 12.96875 26.25 C 12.96875 18.25 18.96875 11.664062 26.300781 11.664062 C 33.800781 11.664062 39.632812 18.082031 39.632812 26.25 C 39.632812 28.082031 39.382812 29.832031 38.800781 31.582031 Z M 15.21875 30.582031 L 37.300781 30.582031 C 37.71875 29.164062 37.882812 27.75 37.882812 26.332031 C 37.96875 19 32.882812 13.332031 26.300781 13.332031 C 19.882812 13.332031 14.632812 19.164062 14.632812 26.332031 C 14.632812 27.664062 14.800781 29.082031 15.21875 30.582031 Z M 15.21875 30.582031 "/>
<path style=" stroke:none;fill-rule:nonzero;fill:rgb(0%,0%,0%);fill-opacity:1;" d="M 32.96875 5.828125 C 32.71875 5.828125 32.382812 5.664062 32.21875 5.414062 L 29.71875 1.25 C 29.550781 0.828125 29.632812 0.328125 30.050781 0.078125 C 30.46875 -0.0859375 30.96875 -0.00390625 31.21875 0.414062 L 33.71875 4.578125 C 33.882812 5 33.800781 5.5 33.382812 5.75 C 33.300781 5.828125 33.132812 5.828125 32.96875 5.828125 Z M 32.96875 5.828125 "/>
<path style=" stroke:none;fill-rule:nonzero;fill:rgb(0%,0%,0%);fill-opacity:1;" d="M 35.46875 10 C 35.382812 10 35.300781 10 35.300781 10 C 34.882812 9.914062 34.550781 9.414062 34.71875 9 L 35.550781 5.664062 C 35.632812 5.25 36.132812 4.914062 36.550781 5.078125 C 36.96875 5.164062 37.300781 5.664062 37.132812 6.078125 L 36.300781 9.414062 C 36.21875 9.75 35.800781 10 35.46875 10 Z M 35.46875 10 "/>
<path style=" stroke:none;fill-rule:nonzero;fill:rgb(0%,0%,0%);fill-opacity:1;" d="M 42.21875 11.164062 C 42.050781 10.75 42.21875 10.25 42.550781 10.078125 L 45.882812 8.414062 C 46.304688 8.25 46.804688 8.414062 46.96875 8.75 C 47.132812 9.164062 46.96875 9.664062 46.632812 9.828125 L 43.300781 11.5 C 43.132812 11.582031 42.382812 11.5 42.21875 11.164062 Z M 42.21875 11.164062 "/>
<path style=" stroke:none;fill-rule:nonzero;fill:rgb(0%,0%,0%);fill-opacity:1;" d="M 40.46875 5.828125 C 40.21875 5.828125 40.050781 5.75 39.882812 5.578125 C 39.550781 5.25 39.550781 4.75 39.882812 4.414062 L 43.21875 1.078125 C 43.550781 0.75 44.050781 0.75 44.382812 1.078125 C 44.71875 1.414062 44.71875 1.914062 44.382812 2.25 L 41.050781 5.578125 C 40.882812 5.75 40.71875 5.828125 40.46875 5.828125 Z M 40.46875 5.828125 "/>
<path style=" stroke:none;fill-rule:nonzero;fill:rgb(0%,0%,0%);fill-opacity:1;" d="M 36.300781 14.332031 C 36.21875 13.914062 36.46875 13.414062 36.882812 13.332031 L 40.21875 12.5 C 40.632812 12.414062 41.132812 12.664062 41.21875 13.082031 C 41.300781 13.5 41.050781 14 40.632812 14.082031 L 37.300781 14.914062 C 36.96875 15.082031 36.382812 14.75 36.300781 14.332031 Z M 36.300781 14.332031 "/>
<path style=" stroke:none;fill-rule:nonzero;fill:rgb(0%,0%,0%);fill-opacity:1;" d="M 22.132812 26.664062 C 21.882812 26.664062 21.71875 26.582031 21.550781 26.414062 L 19.050781 23.914062 C 18.71875 23.582031 18.71875 23.082031 19.050781 22.75 C 19.382812 22.414062 19.882812 22.414062 20.21875 22.75 L 22.71875 25.25 C 23.050781 25.582031 23.050781 26.082031 22.71875 26.414062 C 22.550781 26.582031 22.382812 26.664062 22.132812 26.664062 Z M 22.132812 26.664062 "/>
<path style=" stroke:none;fill-rule:nonzero;fill:rgb(0%,0%,0%);fill-opacity:1;" d="M 30.46875 24.164062 C 30.382812 24.164062 30.382812 24.164062 30.300781 24.164062 C 29.882812 24.082031 29.550781 23.664062 29.632812 23.164062 L 30.46875 19 C 30.550781 18.582031 30.96875 18.25 31.46875 18.332031 C 31.882812 18.414062 32.21875 18.832031 32.132812 19.332031 L 31.300781 23.5 C 31.21875 23.914062 30.882812 24.164062 30.46875 24.164062 Z M 30.46875 24.164062 "/>
<path style=" stroke:none;fill-rule:nonzero;fill:rgb(0%,0%,0%);fill-opacity:1;" d="M 22.96875 16.664062 C 22.632812 16.664062 22.300781 16.414062 22.21875 16.082031 L 20.550781 11.082031 C 20.382812 10.664062 20.632812 10.164062 21.050781 10 C 21.46875 9.828125 21.96875 10.078125 22.132812 10.5 L 23.800781 15.5 C 23.96875 15.914062 23.71875 16.414062 23.300781 16.582031 C 23.132812 16.664062 23.050781 16.664062 22.96875 16.664062 Z M 22.96875 16.664062 "/>
<path style=" stroke:none;fill-rule:nonzero;fill:rgb(0%,0%,0%);fill-opacity:1;" d="M 12.132812 16.664062 C 11.71875 16.664062 11.382812 16.414062 11.300781 16 L 10.46875 11.828125 C 10.382812 11.414062 10.632812 10.914062 11.132812 10.828125 C 11.550781 10.75 12.050781 11 12.132812 11.5 L 12.96875 15.664062 C 13.050781 16.082031 12.800781 16.582031 12.300781 16.664062 C 12.21875 16.664062 12.21875 16.664062 12.132812 16.664062 Z M 12.132812 16.664062 "/>
<path style=" stroke:none;fill-rule:nonzero;fill:rgb(0%,0%,0%);fill-opacity:1;" d="M 7.96875 20 L 3.796875 20 C 3.296875 20 2.96875 19.664062 2.96875 19.164062 C 2.96875 18.664062 3.296875 18.332031 3.796875 18.332031 L 7.96875 18.332031 C 8.46875 18.332031 8.796875 18.664062 8.796875 19.164062 C 8.796875 19.664062 8.46875 20 7.96875 20 Z M 7.96875 20 "/>
<path style=" stroke:none;fill-rule:nonzero;fill:rgb(0%,0%,0%);fill-opacity:1;" d="M 7.96875 27.5 C 7.796875 27.5 7.632812 27.414062 7.46875 27.332031 C 7.132812 27.082031 7.046875 26.5 7.296875 26.164062 L 9.796875 22.832031 C 10.046875 22.5 10.632812 22.414062 10.96875 22.664062 C 11.300781 22.914062 11.382812 23.5 11.132812 23.832031 L 8.632812 27.164062 C 8.46875 27.414062 8.21875 27.5 7.96875 27.5 Z M 7.96875 27.5 "/>
<path style=" stroke:none;fill-rule:nonzero;fill:rgb(0%,0%,0%);fill-opacity:1;" d="M 35.632812 28 C 35.382812 27.582031 35.46875 27.082031 35.882812 26.832031 L 40.882812 23.5 C 41.300781 23.25 41.800781 23.332031 42.050781 23.75 C 42.300781 24.164062 42.21875 24.664062 41.800781 24.914062 L 36.800781 28.25 C 36.132812 28.5 35.800781 28.164062 35.632812 28 Z M 35.632812 28 "/>
<path style=" stroke:none;fill-rule:nonzero;fill:rgb(0%,0%,0%);fill-opacity:1;" d="M 41.300781 50 L 10.46875 50 C 9.96875 50 9.632812 49.664062 9.632812 49.164062 C 9.632812 48.664062 9.96875 48.335938 10.46875 48.335938 L 41.300781 48.335938 C 41.800781 48.335938 42.132812 48.664062 42.132812 49.164062 C 42.132812 49.664062 41.800781 50 41.300781 50 Z M 41.300781 50 "/>
<path style=" stroke:none;fill-rule:nonzero;fill:rgb(0%,0%,0%);fill-opacity:1;" d="M 14.632812 27.664062 L 13.550781 27.25 C 12.71875 26.914062 12.050781 26.75 11.632812 26.582031 C 11.21875 26.414062 10.800781 26.332031 10.46875 26.164062 C 8.632812 25.414062 7.132812 24.082031 6.21875 22.332031 C 5.382812 20.582031 5.21875 18.664062 5.96875 17 C 7.382812 13.5 11.71875 12 15.550781 13.582031 C 16.300781 13.914062 16.96875 14.25 18.550781 15.332031 L 19.382812 15.914062 L 18.632812 16.664062 C 16.132812 19.164062 14.632812 22.75 14.632812 26.5 Z M 12.382812 14.582031 C 10.21875 14.582031 8.21875 15.664062 7.46875 17.582031 C 6.96875 18.832031 7.046875 20.25 7.71875 21.582031 C 8.382812 22.914062 9.546875 24 11.046875 24.582031 C 11.382812 24.75 11.71875 24.832031 12.132812 24.914062 C 12.382812 25 12.71875 25.082031 13.050781 25.25 C 13.300781 21.832031 14.632812 18.582031 16.800781 16.082031 C 15.882812 15.5 15.46875 15.25 14.96875 15 C 14.050781 14.75 13.21875 14.582031 12.382812 14.582031 Z M 12.382812 14.582031 "/>
<path style=" stroke:none;fill-rule:nonzero;fill:rgb(0%,0%,0%);fill-opacity:1;" d="M 37.882812 24.082031 L 37.46875 22.5 C 35.96875 17 31.46875 13.332031 26.300781 13.332031 L 25.46875 13.332031 L 25.46875 12.5 C 25.46875 10 25.96875 8.578125 26.46875 7.414062 C 27.632812 4.75 29.632812 2.578125 32.050781 1.414062 C 34.550781 0.164062 37.300781 0.078125 39.71875 1.078125 C 42.132812 2.164062 43.96875 4.164062 44.882812 6.828125 C 45.804688 9.414062 45.632812 12.414062 44.46875 15.082031 C 43.550781 17.332031 41.96875 19.082031 40.382812 21 C 39.882812 21.582031 39.382812 22.164062 38.882812 22.832031 Z M 27.132812 11.664062 C 32.21875 12 36.632812 15.414062 38.550781 20.582031 C 38.71875 20.332031 38.96875 20.164062 39.132812 19.914062 C 40.71875 18 42.132812 16.414062 42.96875 14.414062 C 43.96875 12.082031 44.050781 9.578125 43.300781 7.328125 C 42.550781 5.164062 41.050781 3.5 39.050781 2.664062 C 37.050781 1.828125 34.800781 1.914062 32.71875 2.914062 C 30.632812 3.914062 28.882812 5.75 27.882812 8.078125 C 27.550781 9 27.21875 10 27.132812 11.664062 Z M 27.132812 11.664062 "/>
<path style=" stroke:none;fill-rule:nonzero;fill:rgb(0%,0%,0%);fill-opacity:1;" d="M 36.050781 50 L 16.550781 50 L 11.382812 35.5 L 16.800781 40.25 C 17.050781 40.414062 17.632812 40.914062 18.71875 40.914062 C 19.050781 40.914062 19.46875 40.664062 19.882812 40.332031 C 20.21875 40.082031 20.550781 39.832031 20.96875 39.664062 C 22.550781 39 23.71875 38.914062 25.132812 40.25 L 28.382812 43.75 C 28.632812 44.082031 29.21875 44.25 29.800781 44.25 C 30.632812 44.25 31.300781 43.75 31.71875 43.414062 L 32.96875 42.332031 C 33.882812 41.582031 35.132812 41.5 36.050781 42.082031 L 38.300781 43.335938 Z M 17.71875 48.335938 L 34.882812 48.335938 L 36.382812 44.082031 L 35.382812 43.5 C 34.96875 43.25 34.550781 43.332031 34.21875 43.582031 L 32.96875 44.664062 C 32.050781 45.414062 31.050781 45.835938 30.050781 45.835938 C 28.882812 45.914062 27.882812 45.5 27.300781 44.835938 L 24.050781 41.414062 C 23.382812 40.75 23.050781 40.664062 21.71875 41.164062 C 21.46875 41.25 21.21875 41.414062 20.96875 41.664062 C 20.382812 42.082031 19.71875 42.5 18.882812 42.5 C 17.21875 42.5 16.21875 41.75 15.882812 41.5 L 15.21875 40.914062 Z M 17.71875 48.335938 "/>
</g>
</svg>
