<?xml version="1.0" encoding="UTF-8"?>
<svg xmlns="http://www.w3.org/2000/svg" xmlns:xlink="http://www.w3.org/1999/xlink" width="50px" height="50px" viewBox="0 0 50 50" version="1.1">
<g id="surface1">
<path style=" stroke:none;fill-rule:nonzero;fill:rgb(100%,88.235294%,0%);fill-opacity:1;" d="M 27.5 10 C 27.5 11.417969 26.417969 12.5 25 12.5 C 23.582031 12.5 22.5 11.417969 22.5 10 C 22.5 8.582031 23.582031 7.5 25 7.5 C 26.417969 7.5 27.5 8.582031 27.5 10 "/>
<path style=" stroke:none;fill-rule:nonzero;fill:rgb(0%,85.490196%,42.352941%);fill-opacity:1;" d="M 30 8.332031 C 28.917969 8.332031 27.917969 8.5 27.167969 8.75 C 27.332031 9.167969 27.5 9.582031 27.5 10 C 27.5 10.417969 27.332031 10.832031 27.167969 11.25 C 27.917969 11.5 28.917969 11.667969 30 11.667969 C 32.332031 11.667969 34.167969 10.917969 34.167969 10 C 34.167969 9.082031 32.332031 8.332031 30 8.332031 "/>
<path style=" stroke:none;fill-rule:nonzero;fill:rgb(0%,85.490196%,42.352941%);fill-opacity:1;" d="M 25 7.5 C 25.417969 7.5 25.832031 7.667969 26.25 7.832031 C 26.5 7.082031 26.667969 6.082031 26.667969 5 C 26.667969 2.667969 25.917969 0.832031 25 0.832031 C 24.082031 0.832031 23.332031 2.667969 23.332031 5 C 23.332031 6.082031 23.5 7.082031 23.75 7.832031 C 24.167969 7.667969 24.582031 7.5 25 7.5 "/>
<path style=" stroke:none;fill-rule:nonzero;fill:rgb(0%,85.490196%,42.352941%);fill-opacity:1;" d="M 22.5 10 C 22.5 9.582031 22.667969 9.167969 22.832031 8.75 C 22.082031 8.5 21.082031 8.332031 20 8.332031 C 17.667969 8.332031 15.832031 9.082031 15.832031 10 C 15.832031 10.917969 17.667969 11.667969 20 11.667969 C 21.082031 11.667969 22.082031 11.5 22.832031 11.25 C 22.667969 10.832031 22.5 10.417969 22.5 10 "/>
<path style=" stroke:none;fill-rule:nonzero;fill:rgb(0%,85.490196%,42.352941%);fill-opacity:1;" d="M 23.75 7.832031 C 23.582031 7.332031 23.417969 6.75 23.332031 6.167969 C 23.082031 5.917969 22.832031 5.582031 22.582031 5.332031 C 20.917969 3.667969 19.082031 2.917969 18.5 3.582031 C 17.832031 4.25 18.667969 6.082031 20.25 7.667969 C 20.5 7.917969 20.832031 8.167969 21.082031 8.417969 C 21.75 8.5 22.25 8.582031 22.75 8.832031 C 23.082031 8.417969 23.417969 8.082031 23.75 7.832031 "/>
<path style=" stroke:none;fill-rule:nonzero;fill:rgb(0%,85.490196%,42.352941%);fill-opacity:1;" d="M 31.5 3.5 C 30.832031 2.832031 29 3.667969 27.332031 5.25 C 27.082031 5.5 26.832031 5.832031 26.582031 6.082031 C 26.5 6.75 26.417969 7.25 26.167969 7.75 C 26.582031 8 26.917969 8.332031 27.082031 8.667969 C 27.582031 8.5 28.167969 8.332031 28.75 8.25 C 29 8 29.332031 7.75 29.582031 7.5 C 31.332031 6 32.167969 4.167969 31.5 3.5 "/>
<path style=" stroke:none;fill-rule:nonzero;fill:rgb(0%,85.490196%,42.352941%);fill-opacity:1;" d="M 23.417969 22.75 C 17.832031 13.167969 9 9 5.832031 10 C 11.832031 14.082031 14 25.167969 20.832031 31.667969 L 25 31.667969 C 25 26.667969 24.917969 25.332031 23.417969 22.75 "/>
<path style=" stroke:none;fill-rule:nonzero;fill:rgb(0%,85.490196%,42.352941%);fill-opacity:1;" d="M 26.582031 22.75 C 32.167969 13.167969 41 9 44.167969 10 C 38.167969 14.082031 36 25.167969 29.167969 31.667969 L 25 31.667969 C 25 26.667969 25.082031 25.332031 26.582031 22.75 "/>
<path style=" stroke:none;fill-rule:nonzero;fill:rgb(100%,88.235294%,0%);fill-opacity:1;" d="M 41.667969 33.667969 C 41.667969 34.417969 41.082031 35 40.332031 35 L 9.667969 35 C 8.917969 35 8.332031 34.417969 8.332031 33.667969 L 8.332031 32.917969 C 8.332031 32.25 8.917969 31.667969 9.667969 31.667969 L 40.417969 31.667969 C 41.167969 31.667969 41.75 32.25 41.75 33 Z M 41.667969 33.667969 "/>
<path style=" stroke:none;fill-rule:nonzero;fill:rgb(100%,100%,100%);fill-opacity:1;" d="M 10.832031 33.667969 L 10.832031 32.917969 C 10.832031 32.25 11.417969 31.667969 12.167969 31.667969 L 9.667969 31.667969 C 8.917969 31.667969 8.332031 32.25 8.332031 33 L 8.332031 33.75 C 8.332031 34.417969 8.917969 35 9.667969 35 L 12.167969 35 C 11.417969 35 10.832031 34.417969 10.832031 33.667969 "/>
<path style=" stroke:none;fill-rule:nonzero;fill:rgb(100%,65.882353%,0%);fill-opacity:1;" d="M 40.332031 31.667969 L 37.832031 31.667969 C 38.582031 31.667969 39.167969 32.25 39.167969 33 L 39.167969 33.75 C 39.167969 34.5 38.582031 35.082031 37.832031 35.082031 L 40.332031 35.082031 C 41.082031 35.082031 41.667969 34.5 41.667969 33.75 L 41.667969 33 C 41.667969 32.25 41.082031 31.667969 40.332031 31.667969 "/>
<path style=" stroke:none;fill-rule:nonzero;fill:rgb(100%,88.235294%,0%);fill-opacity:1;" d="M 34.167969 49.167969 L 15.832031 49.167969 L 10.832031 35 L 39.167969 35 Z M 34.167969 49.167969 "/>
<path style=" stroke:none;fill-rule:nonzero;fill:rgb(99.607843%,80%,0%);fill-opacity:1;" d="M 36.082031 43.667969 L 34.5 42.75 C 33.832031 42.332031 32.917969 42.417969 32.332031 42.917969 L 31.082031 44 C 30.417969 44.582031 29.582031 45 28.667969 45 C 27.832031 45 27.082031 44.832031 26.582031 44.25 L 23.332031 40.832031 C 22.332031 39.832031 21.582031 39.832031 20.082031 40.417969 C 19.25 40.75 18.5 41.667969 17.5 41.667969 C 16.332031 41.667969 15.5 41.25 15 40.832031 L 12 38.167969 L 15.832031 49.167969 L 34.167969 49.167969 Z M 36.082031 43.667969 "/>
<path style=" stroke:none;fill-rule:nonzero;fill:rgb(100%,65.882353%,0%);fill-opacity:1;" d="M 36.667969 35 L 32.582031 49.167969 L 34.167969 49.167969 L 39.167969 35 Z M 36.667969 35 "/>
<path style=" stroke:none;fill-rule:nonzero;fill:rgb(100%,100%,100%);fill-opacity:1;" d="M 10.832031 35 L 15.832031 49.167969 L 17.417969 49.167969 L 13.332031 35 Z M 10.832031 35 "/>
<path style=" stroke:none;fill-rule:nonzero;fill:rgb(0%,0%,0%);fill-opacity:1;" d="M 40.332031 35.832031 L 9.667969 35.832031 C 8.5 35.832031 7.5 34.832031 7.5 33.667969 L 7.5 32.917969 C 7.5 31.832031 8.5 30.832031 9.667969 30.832031 L 40.417969 30.832031 C 41.582031 30.832031 42.582031 31.832031 42.582031 33 L 42.582031 33.75 C 42.5 34.832031 41.5 35.832031 40.332031 35.832031 Z M 9.167969 33 L 9.167969 33.75 C 9.167969 33.917969 9.417969 34.167969 9.667969 34.167969 L 40.417969 34.167969 C 40.667969 34.167969 40.917969 33.917969 40.917969 33.667969 L 40.917969 32.917969 C 40.917969 32.667969 40.667969 32.417969 40.417969 32.417969 L 9.667969 32.417969 C 9.667969 32.417969 9.167969 32.417969 9.167969 33 Z M 9.167969 33 "/>
<path style=" stroke:none;fill-rule:nonzero;fill:rgb(0%,0%,0%);fill-opacity:1;" d="M 34.75 50 L 15.25 50 L 9.667969 34.167969 L 40.332031 34.167969 Z M 16.417969 48.332031 L 33.582031 48.332031 L 38 35.832031 L 12 35.832031 Z M 16.417969 48.332031 "/>
<path style=" stroke:none;fill-rule:nonzero;fill:rgb(0%,0%,0%);fill-opacity:1;" d="M 40 50 L 9.167969 50 C 8.667969 50 8.332031 49.667969 8.332031 49.167969 C 8.332031 48.667969 8.667969 48.332031 9.167969 48.332031 L 40 48.332031 C 40.5 48.332031 40.832031 48.667969 40.832031 49.167969 C 40.832031 49.667969 40.5 50 40 50 Z M 40 50 "/>
<path style=" stroke:none;fill-rule:nonzero;fill:rgb(0%,0%,0%);fill-opacity:1;" d="M 34.75 50 L 15.25 50 L 10.082031 35.5 L 15.5 40.25 C 15.75 40.417969 16.332031 40.917969 17.417969 40.917969 C 17.75 40.917969 18.167969 40.667969 18.582031 40.332031 C 18.917969 40.082031 19.25 39.832031 19.667969 39.667969 C 21.25 39 22.417969 38.917969 23.832031 40.25 L 27.082031 43.75 C 27.332031 44.082031 27.917969 44.25 28.5 44.25 C 29.332031 44.25 30 43.75 30.417969 43.417969 L 31.667969 42.332031 C 32.582031 41.582031 33.832031 41.5 34.75 42.082031 L 37 43.332031 Z M 16.417969 48.332031 L 33.582031 48.332031 L 35.082031 44.082031 L 34.082031 43.5 C 33.667969 43.25 33.25 43.332031 32.917969 43.582031 L 31.667969 44.667969 C 30.75 45.417969 29.75 45.832031 28.75 45.832031 C 27.582031 45.917969 26.582031 45.5 26 44.832031 L 22.75 41.417969 C 22.082031 40.75 21.75 40.667969 20.417969 41.167969 C 20.167969 41.25 19.917969 41.417969 19.667969 41.667969 C 19.082031 42.082031 18.417969 42.5 17.582031 42.5 C 15.917969 42.5 14.917969 41.75 14.582031 41.5 L 13.917969 40.917969 Z M 16.417969 48.332031 "/>
<path style=" stroke:none;fill-rule:nonzero;fill:rgb(0%,0%,0%);fill-opacity:1;" d="M 25 32.25 C 24.5 32.25 24.167969 31.917969 24.167969 31.417969 L 24.167969 12.5 C 24.167969 12 24.5 11.667969 25 11.667969 C 25.5 11.667969 25.832031 12 25.832031 12.5 L 25.832031 31.417969 C 25.832031 31.917969 25.5 32.25 25 32.25 Z M 25 32.25 "/>
<path style=" stroke:none;fill-rule:nonzero;fill:rgb(0%,0%,0%);fill-opacity:1;" d="M 25 13.332031 C 23.167969 13.332031 21.667969 11.832031 21.667969 10 C 21.667969 8.167969 23.167969 6.667969 25 6.667969 C 26.832031 6.667969 28.332031 8.167969 28.332031 10 C 28.332031 11.832031 26.832031 13.332031 25 13.332031 Z M 25 8.332031 C 24.082031 8.332031 23.332031 9.082031 23.332031 10 C 23.332031 10.917969 24.082031 11.667969 25 11.667969 C 25.917969 11.667969 26.667969 10.917969 26.667969 10 C 26.667969 9.082031 25.917969 8.332031 25 8.332031 Z M 25 8.332031 "/>
<path style=" stroke:none;fill-rule:nonzero;fill:rgb(0%,0%,0%);fill-opacity:1;" d="M 25 32.417969 L 20.832031 32.417969 C 20.582031 32.417969 20.417969 32.332031 20.25 32.167969 C 16.75 28.917969 14.582031 24.667969 12.417969 20.582031 C 10.25 16.5 8.25 12.582031 5.332031 10.75 C 5.082031 10.582031 4.917969 10.25 5 9.917969 C 5.082031 9.582031 5.25 9.332031 5.582031 9.25 C 9.25 8 18.332031 12.5 24.167969 22.25 C 25.75 25 25.832031 26.582031 25.832031 31.582031 C 25.832031 32.082031 25.5 32.417969 25 32.417969 Z M 21.167969 30.75 L 24.167969 30.75 C 24.167969 26.332031 24 25.25 22.75 23.082031 C 18.25 15.582031 11.832031 11.5 8.082031 10.832031 C 10.417969 13.167969 12.167969 16.417969 13.917969 19.917969 C 16 23.667969 18.082031 27.75 21.167969 30.75 Z M 21.167969 30.75 "/>
<path style=" stroke:none;fill-rule:nonzero;fill:rgb(0%,0%,0%);fill-opacity:1;" d="M 25 32.417969 C 24.832031 32.417969 24.582031 32.332031 24.417969 32.167969 C 21 28.917969 18.917969 24.667969 17 20.667969 C 15.417969 17.417969 14 14.417969 12 12.25 C 11.667969 11.917969 11.667969 11.417969 12 11.082031 C 12.332031 10.75 12.832031 10.75 13.167969 11.082031 C 15.332031 13.417969 16.832031 16.582031 18.5 19.832031 C 20.417969 23.75 22.332031 27.832031 25.582031 30.832031 C 25.917969 31.167969 25.917969 31.667969 25.582031 32 C 25.417969 32.332031 25.25 32.417969 25 32.417969 Z M 25 32.417969 "/>
<path style=" stroke:none;fill-rule:nonzero;fill:rgb(0%,0%,0%);fill-opacity:1;" d="M 29.167969 32.417969 L 25 32.417969 C 24.5 32.417969 24.167969 32.082031 24.167969 31.582031 C 24.167969 26.582031 24.25 25 25.832031 22.25 C 31.667969 12.5 40.75 8 44.417969 9.167969 C 44.75 9.25 44.917969 9.5 45 9.832031 C 45.082031 10.167969 44.917969 10.5 44.667969 10.667969 C 41.75 12.667969 39.75 16.5 37.582031 20.5 C 35.417969 24.5 33.167969 28.917969 29.75 32.082031 C 29.582031 32.332031 29.332031 32.417969 29.167969 32.417969 Z M 25.832031 30.75 L 28.832031 30.75 C 31.917969 27.75 34.082031 23.667969 36.082031 19.832031 C 37.917969 16.332031 39.667969 13.082031 41.917969 10.75 C 38.25 11.5 31.75 15.5 27.25 23 C 26 25.25 25.832031 26.332031 25.832031 30.75 Z M 25.832031 30.75 "/>
<path style=" stroke:none;fill-rule:nonzero;fill:rgb(0%,0%,0%);fill-opacity:1;" d="M 25 32.417969 C 24.75 32.417969 24.582031 32.332031 24.417969 32.167969 C 24.082031 31.832031 24.082031 31.332031 24.417969 31 C 27.667969 28 29.582031 23.917969 31.5 20 C 33.082031 16.667969 34.582031 13.5 36.832031 11.25 C 37.167969 10.917969 37.667969 10.917969 38 11.25 C 38.332031 11.582031 38.332031 12.082031 38 12.417969 C 36 14.5 34.5 17.582031 33 20.832031 C 31.082031 24.917969 29 29.167969 25.582031 32.332031 C 25.417969 32.332031 25.167969 32.417969 25 32.417969 Z M 25 32.417969 "/>
<path style=" stroke:none;fill-rule:nonzero;fill:rgb(0%,0%,0%);fill-opacity:1;" d="M 30 12.5 C 28.832031 12.5 27.75 12.332031 26.917969 12 C 26.667969 11.917969 26.5 11.75 26.417969 11.5 C 26.332031 11.25 26.332031 11 26.5 10.832031 C 26.667969 10.582031 26.75 10.332031 26.75 10 C 26.75 9.667969 26.667969 9.417969 26.5 9.167969 C 26.417969 8.917969 26.332031 8.667969 26.417969 8.5 C 26.5 8.25 26.667969 8.082031 26.917969 8 C 27.75 7.667969 28.832031 7.5 30 7.5 C 32.417969 7.5 35 8.25 35 10 C 35 11.75 32.417969 12.5 30 12.5 Z M 28.25 10.667969 C 28.75 10.75 29.332031 10.832031 30 10.832031 C 31.917969 10.832031 33.082031 10.25 33.332031 10 C 33.082031 9.75 32 9.167969 30 9.167969 C 29.417969 9.167969 28.832031 9.25 28.25 9.332031 C 28.332031 9.582031 28.332031 9.75 28.332031 10 C 28.332031 10.25 28.332031 10.417969 28.25 10.667969 Z M 28.25 10.667969 "/>
<path style=" stroke:none;fill-rule:nonzero;fill:rgb(0%,0%,0%);fill-opacity:1;" d="M 26.25 8.667969 C 26.082031 8.667969 26 8.667969 25.832031 8.582031 C 25.332031 8.25 24.75 8.25 24.25 8.582031 C 24 8.667969 23.75 8.75 23.582031 8.667969 C 23.332031 8.582031 23.167969 8.417969 23.082031 8.167969 C 22.667969 7.25 22.5 6.167969 22.5 5 C 22.5 2.582031 23.25 0 25 0 C 26.75 0 27.5 2.582031 27.5 5 C 27.5 6.167969 27.332031 7.25 27 8.082031 C 26.917969 8.332031 26.75 8.5 26.5 8.582031 C 26.417969 8.667969 26.332031 8.667969 26.25 8.667969 Z M 25 1.667969 C 24.75 1.917969 24.167969 3 24.167969 5 C 24.167969 5.582031 24.25 6.167969 24.332031 6.75 C 24.75 6.667969 25.25 6.667969 25.667969 6.75 C 25.75 6.167969 25.832031 5.582031 25.832031 5 C 25.832031 3.082031 25.25 1.917969 25 1.667969 Z M 25 1.667969 "/>
<path style=" stroke:none;fill-rule:nonzero;fill:rgb(0%,0%,0%);fill-opacity:1;" d="M 20 12.5 C 17.582031 12.5 15 11.75 15 10 C 15 8.25 17.582031 7.5 20 7.5 C 21.167969 7.5 22.25 7.667969 23.082031 8 C 23.332031 8.082031 23.5 8.25 23.582031 8.5 C 23.667969 8.75 23.667969 9 23.5 9.167969 C 23.332031 9.417969 23.25 9.667969 23.25 10 C 23.25 10.332031 23.332031 10.582031 23.5 10.832031 C 23.582031 11.082031 23.667969 11.332031 23.582031 11.5 C 23.5 11.75 23.332031 11.917969 23.082031 12 C 22.25 12.332031 21.167969 12.5 20 12.5 Z M 16.667969 10 C 16.917969 10.25 18 10.832031 20 10.832031 C 20.582031 10.832031 21.167969 10.75 21.75 10.667969 C 21.667969 10.417969 21.667969 10.25 21.667969 10 C 21.667969 9.75 21.667969 9.582031 21.75 9.332031 C 21.167969 9.25 20.582031 9.167969 20 9.167969 C 18.082031 9.167969 16.917969 9.75 16.667969 10 Z M 16.667969 10 "/>
<path style=" stroke:none;fill-rule:nonzero;fill:rgb(0%,0%,0%);fill-opacity:1;" d="M 22.667969 9.582031 C 22.582031 9.582031 22.5 9.582031 22.417969 9.5 C 22 9.332031 21.5 9.25 20.917969 9.167969 C 20.75 9.167969 20.582031 9.082031 20.5 9 C 20.167969 8.75 19.832031 8.417969 19.582031 8.167969 C 17.917969 6.5 16.582031 4.082031 17.832031 2.832031 C 19.082031 1.582031 21.417969 2.917969 23.167969 4.582031 C 23.417969 4.832031 23.75 5.167969 24 5.5 C 24.082031 5.582031 24.167969 5.75 24.167969 5.917969 C 24.167969 6.667969 24.25 7.167969 24.417969 7.5 C 24.582031 7.917969 24.417969 8.332031 24.082031 8.5 C 23.832031 8.667969 23.582031 8.832031 23.417969 9.167969 C 23.25 9.5 22.917969 9.582031 22.667969 9.582031 Z M 21.332031 7.582031 C 21.667969 7.667969 22 7.667969 22.332031 7.75 C 22.417969 7.667969 22.5 7.5 22.667969 7.417969 C 22.582031 7.082031 22.5 6.75 22.5 6.417969 C 22.332031 6.167969 22.167969 6 21.917969 5.832031 C 20.5 4.417969 19.332031 4 19 4.082031 C 19 4.417969 19.332031 5.667969 20.75 7 C 20.917969 7.25 21.082031 7.417969 21.332031 7.582031 Z M 21.332031 7.582031 "/>
<path style=" stroke:none;fill-rule:nonzero;fill:rgb(0%,0%,0%);fill-opacity:1;" d="M 27.25 9.582031 C 26.917969 9.582031 26.667969 9.417969 26.5 9.167969 C 26.332031 8.917969 26.167969 8.667969 25.832031 8.5 C 25.5 8.332031 25.417969 7.917969 25.5 7.5 C 25.667969 7.082031 25.75 6.582031 25.832031 6 C 25.832031 5.832031 25.917969 5.667969 26 5.582031 C 26.25 5.25 26.582031 4.917969 26.832031 4.667969 C 28.5 3 30.917969 1.667969 32.167969 2.917969 C 33.417969 4.167969 32.082031 6.5 30.417969 8.25 C 30.167969 8.5 29.832031 8.75 29.5 9.082031 C 29.417969 9.167969 29.25 9.25 29.082031 9.25 C 28.5 9.332031 28 9.417969 27.582031 9.582031 C 27.417969 9.582031 27.332031 9.582031 27.25 9.582031 Z M 27.25 7.5 C 27.332031 7.582031 27.5 7.667969 27.582031 7.832031 C 27.917969 7.75 28.25 7.667969 28.582031 7.667969 C 28.832031 7.5 29 7.332031 29.167969 7.082031 C 30.582031 5.667969 31 4.5 30.917969 4.167969 C 30.582031 4.082031 29.332031 4.5 28 5.917969 C 27.832031 6.082031 27.667969 6.332031 27.417969 6.5 C 27.417969 6.832031 27.332031 7.167969 27.25 7.5 Z M 31 4.167969 Z M 31 4.167969 "/>
</g>
</svg>
