<?xml version="1.0" encoding="UTF-8"?>
<svg xmlns="http://www.w3.org/2000/svg" xmlns:xlink="http://www.w3.org/1999/xlink" width="50px" height="50px" viewBox="0 0 50 50" version="1.1">
<g id="surface1">
<path style=" stroke:none;fill-rule:nonzero;fill:rgb(0%,85.490196%,42.352941%);fill-opacity:1;" d="M 16.730469 24.167969 C 14.980469 10.832031 6.230469 8.332031 6.230469 8.332031 C 15.5625 4.417969 22.480469 6.75 23.5625 24.167969 Z M 16.730469 24.167969 "/>
<path style=" stroke:none;fill-rule:nonzero;fill:rgb(0%,67.843137%,33.333333%);fill-opacity:1;" d="M 23.894531 24.167969 L 23.5625 24.167969 C 23.144531 17 21.644531 12.332031 19.480469 9.667969 C 20.144531 3.75 26.0625 0.832031 30.394531 0.832031 C 28.8125 2.417969 26.394531 4.917969 26.230469 13.417969 C 25.0625 15.917969 24.230469 19.417969 23.894531 24.167969 "/>
<path style=" stroke:none;fill-rule:nonzero;fill:rgb(0%,85.490196%,42.352941%);fill-opacity:1;" d="M 29.480469 24.167969 L 23.894531 24.167969 C 25.730469 -2.332031 43.644531 10.667969 43.730469 10.832031 C 36.394531 10.832031 31.3125 17.667969 29.480469 24.167969 "/>
<path style=" stroke:none;fill-rule:nonzero;fill:rgb(100%,88.235294%,0%);fill-opacity:1;" d="M 34.980469 45.832031 L 37.894531 28.332031 L 9.5625 28.332031 L 12.480469 45.832031 Z M 34.980469 45.832031 "/>
<path style=" stroke:none;fill-rule:nonzero;fill:rgb(100%,100%,100%);fill-opacity:1;" d="M 9.5625 28.332031 L 12.480469 45.832031 L 14.480469 45.832031 L 12.0625 28.332031 Z M 9.5625 28.332031 "/>
<path style=" stroke:none;fill-rule:nonzero;fill:rgb(100%,65.882353%,0%);fill-opacity:1;" d="M 35.394531 28.332031 L 32.980469 45.832031 L 34.980469 45.832031 L 37.894531 28.332031 Z M 35.394531 28.332031 "/>
<path style=" stroke:none;fill-rule:nonzero;fill:rgb(100%,88.235294%,0%);fill-opacity:1;" d="M 37.0625 49.167969 L 10.394531 49.167969 L 9.5625 45.832031 L 37.894531 45.832031 Z M 37.0625 49.167969 "/>
<path style=" stroke:none;fill-rule:nonzero;fill:rgb(100%,100%,100%);fill-opacity:1;" d="M 9.5625 45.832031 L 10.394531 49.167969 L 12.730469 49.167969 L 12.0625 45.832031 Z M 9.5625 45.832031 "/>
<path style=" stroke:none;fill-rule:nonzero;fill:rgb(100%,65.882353%,0%);fill-opacity:1;" d="M 35.394531 45.832031 L 34.730469 49.167969 L 37.0625 49.167969 L 37.894531 45.832031 Z M 35.394531 45.832031 "/>
<path style=" stroke:none;fill-rule:nonzero;fill:rgb(100%,88.235294%,0%);fill-opacity:1;" d="M 8.730469 28.332031 L 38.730469 28.332031 L 38.730469 24.167969 L 8.730469 24.167969 Z M 8.730469 28.332031 "/>
<path style=" stroke:none;fill-rule:nonzero;fill:rgb(100%,100%,100%);fill-opacity:1;" d="M 6.230469 28.332031 L 8.730469 28.332031 L 8.730469 24.167969 L 6.230469 24.167969 Z M 6.230469 28.332031 "/>
<path style=" stroke:none;fill-rule:nonzero;fill:rgb(100%,65.882353%,0%);fill-opacity:1;" d="M 38.730469 28.332031 L 41.230469 28.332031 L 41.230469 24.167969 L 38.730469 24.167969 Z M 38.730469 28.332031 "/>
<path style=" stroke:none;fill-rule:nonzero;fill:rgb(0%,0%,0%);fill-opacity:1;" d="M 41.230469 29.167969 L 6.230469 29.167969 C 5.730469 29.167969 5.394531 28.832031 5.394531 28.332031 L 5.394531 24.167969 C 5.394531 23.667969 5.730469 23.332031 6.230469 23.332031 L 41.230469 23.332031 C 41.730469 23.332031 42.0625 23.667969 42.0625 24.167969 L 42.0625 28.332031 C 42.0625 28.832031 41.730469 29.167969 41.230469 29.167969 Z M 7.0625 27.5 L 40.394531 27.5 L 40.394531 25 L 7.0625 25 Z M 7.0625 27.5 "/>
<path style=" stroke:none;fill-rule:nonzero;fill:rgb(0%,0%,0%);fill-opacity:1;" d="M 37.0625 50 L 10.394531 50 C 9.980469 50 9.644531 49.75 9.5625 49.332031 L 8.730469 46 C 8.644531 45.75 8.730469 45.5 8.894531 45.25 C 9.0625 45.082031 9.3125 45 9.5625 45 L 37.894531 45 C 38.144531 45 38.394531 45.082031 38.5625 45.332031 C 38.730469 45.5 38.8125 45.832031 38.730469 46.082031 L 37.894531 49.417969 C 37.8125 49.75 37.480469 50 37.0625 50 Z M 11.0625 48.332031 L 36.394531 48.332031 L 36.8125 46.667969 L 10.644531 46.667969 Z M 11.0625 48.332031 "/>
<path style=" stroke:none;fill-rule:nonzero;fill:rgb(0%,0%,0%);fill-opacity:1;" d="M 34.980469 46.667969 L 12.480469 46.667969 C 12.0625 46.667969 11.730469 46.332031 11.644531 46 L 8.730469 28.5 C 8.730469 28.25 8.730469 28 8.894531 27.832031 C 9.0625 27.667969 9.3125 27.5 9.5625 27.5 L 37.894531 27.5 C 38.144531 27.5 38.394531 27.582031 38.5625 27.832031 C 38.730469 28 38.8125 28.25 38.730469 28.5 L 35.8125 46 C 35.730469 46.332031 35.394531 46.667969 34.980469 46.667969 Z M 13.144531 45 L 34.230469 45 L 36.894531 29.167969 L 10.5625 29.167969 Z M 13.144531 45 "/>
<path style=" stroke:none;fill-rule:nonzero;fill:rgb(0%,0%,0%);fill-opacity:1;" d="M 16.230469 34.167969 L 10.394531 34.167969 C 9.894531 34.167969 9.5625 33.832031 9.5625 33.332031 C 9.5625 32.832031 9.894531 32.5 10.394531 32.5 L 16.230469 32.5 C 16.730469 32.5 17.0625 32.832031 17.0625 33.332031 C 17.0625 33.832031 16.730469 34.167969 16.230469 34.167969 Z M 16.230469 34.167969 "/>
<path style=" stroke:none;fill-rule:nonzero;fill:rgb(0%,0%,0%);fill-opacity:1;" d="M 20.394531 34.167969 L 19.5625 34.167969 C 19.0625 34.167969 18.730469 33.832031 18.730469 33.332031 C 18.730469 32.832031 19.0625 32.5 19.5625 32.5 L 20.394531 32.5 C 20.894531 32.5 21.230469 32.832031 21.230469 33.332031 C 21.230469 33.832031 20.894531 34.167969 20.394531 34.167969 Z M 20.394531 34.167969 "/>
<path style=" stroke:none;fill-rule:nonzero;fill:rgb(0%,0%,0%);fill-opacity:1;" d="M 24.5625 40.832031 L 23.730469 40.832031 C 23.230469 40.832031 22.894531 40.5 22.894531 40 C 22.894531 39.5 23.230469 39.167969 23.730469 39.167969 L 24.5625 39.167969 C 25.0625 39.167969 25.394531 39.5 25.394531 40 C 25.394531 40.5 25.0625 40.832031 24.5625 40.832031 Z M 24.5625 40.832031 "/>
<path style=" stroke:none;fill-rule:nonzero;fill:rgb(0%,0%,0%);fill-opacity:1;" d="M 35.980469 40.832031 L 27.894531 40.832031 C 27.394531 40.832031 27.0625 40.5 27.0625 40 C 27.0625 39.5 27.394531 39.167969 27.894531 39.167969 L 35.980469 39.167969 C 36.480469 39.167969 36.8125 39.5 36.8125 40 C 36.8125 40.5 36.394531 40.832031 35.980469 40.832031 Z M 35.980469 40.832031 "/>
<path style=" stroke:none;fill-rule:nonzero;fill:rgb(0%,0%,0%);fill-opacity:1;" d="M 23.5625 25 L 16.730469 25 C 16.3125 25 15.980469 24.667969 15.894531 24.25 C 14.230469 11.667969 6.0625 9.167969 5.980469 9.167969 C 5.644531 9 5.394531 8.75 5.394531 8.417969 C 5.394531 8.082031 5.5625 7.75 5.894531 7.582031 C 10.980469 5.417969 14.894531 5.25 17.894531 7.167969 C 21.730469 9.582031 23.894531 15.082031 24.394531 24.167969 C 24.394531 24.417969 24.3125 24.582031 24.144531 24.75 C 23.980469 24.917969 23.8125 25 23.5625 25 Z M 17.480469 23.332031 L 22.730469 23.332031 C 22.144531 15.5 20.230469 10.5 17.0625 8.582031 C 14.894531 7.25 12.0625 7.167969 8.480469 8.417969 C 11.144531 9.917969 15.980469 13.917969 17.480469 23.332031 Z M 17.480469 23.332031 "/>
<path style=" stroke:none;fill-rule:nonzero;fill:rgb(0%,0%,0%);fill-opacity:1;" d="M 23.894531 25 L 23.5625 25 C 23.144531 25 22.730469 24.667969 22.730469 24.25 C 22.3125 17.582031 20.980469 12.917969 18.8125 10.25 C 18.644531 10.082031 18.644531 9.832031 18.644531 9.667969 C 19.394531 3 25.980469 0 30.394531 0 C 30.730469 0 31.0625 0.167969 31.144531 0.5 C 31.3125 0.832031 31.230469 1.167969 30.980469 1.417969 C 29.480469 2.917969 27.230469 5.167969 27.0625 13.417969 C 27.0625 13.5 27.0625 13.667969 26.980469 13.75 C 25.8125 16.332031 24.980469 19.832031 24.730469 24.167969 C 24.730469 24.667969 24.3125 25 23.894531 25 Z M 20.394531 9.417969 C 21.980469 11.5 23.144531 14.5 23.8125 18.417969 C 24.230469 16.417969 24.730469 14.667969 25.394531 13.167969 C 25.5625 6.832031 26.980469 3.667969 28.3125 1.832031 C 24.894531 2.582031 21.0625 5 20.394531 9.417969 Z M 20.394531 9.417969 "/>
<path style=" stroke:none;fill-rule:nonzero;fill:rgb(0%,0%,0%);fill-opacity:1;" d="M 29.480469 25 L 23.894531 25 C 23.644531 25 23.480469 24.917969 23.3125 24.75 C 23.144531 24.582031 23.0625 24.332031 23.0625 24.082031 C 23.8125 14 26.894531 8.167969 32.3125 6.917969 C 37.980469 5.582031 44.144531 9.832031 44.480469 10.417969 C 44.644531 10.667969 44.644531 11 44.480469 11.25 C 44.3125 11.5 44.0625 11.667969 43.730469 11.667969 C 36.894531 11.667969 32.0625 18.082031 30.3125 24.417969 C 30.144531 24.75 29.8125 25 29.480469 25 Z M 24.8125 23.332031 L 28.894531 23.332031 C 30.730469 17.417969 35.144531 11.5 41.230469 10.25 C 38.894531 9 34.980469 7.5 31.480469 8.917969 C 27.730469 10.5 25.480469 15.417969 24.8125 23.332031 Z M 24.8125 23.332031 "/>
</g>
</svg>
