<?xml version="1.0" encoding="UTF-8"?>
<svg xmlns="http://www.w3.org/2000/svg" xmlns:xlink="http://www.w3.org/1999/xlink" width="50px" height="60px" viewBox="0 0 50 60" version="1.1">
<g id="surface1">
<path style=" stroke:none;fill-rule:nonzero;fill:rgb(72.156863%,82.352941%,83.137255%);fill-opacity:1;" d="M 24.984375 49.464844 C 38.625 49.464844 49.75 38.429688 49.75 24.898438 C 49.75 11.367188 38.625 0.332031 24.984375 0.332031 C 11.34375 0.332031 0.222656 11.367188 0.222656 24.898438 C 0.222656 38.429688 11.34375 49.464844 24.984375 49.464844 "/>
<path style=" stroke:none;fill-rule:nonzero;fill:rgb(63.921569%,73.333333%,74.901961%);fill-opacity:1;" d="M 24.984375 2.1875 C 37.628906 2.1875 47.878906 12.355469 47.878906 24.898438 C 47.878906 30.320312 45.960938 35.296875 42.765625 39.199219 C 30.042969 44.210938 17.875 29.878906 7.203125 39.199219 C 4.007812 35.296875 2.09375 30.320312 2.09375 24.898438 C 2.09375 12.355469 12.34375 2.1875 24.984375 2.1875 "/>
<path style=" stroke:none;fill-rule:nonzero;fill:rgb(47.843137%,20.784314%,13.72549%);fill-opacity:1;" d="M 32.015625 27.992188 C 31.851562 28.113281 31.617188 28.082031 31.496094 27.917969 C 31.371094 27.753906 31.40625 27.523438 31.570312 27.402344 L 35.890625 24.183594 L 35.777344 21.152344 C 35.773438 20.949219 35.933594 20.777344 36.136719 20.773438 C 36.34375 20.765625 36.515625 20.921875 36.523438 21.128906 L 36.609375 23.535156 L 38.734375 21.539062 C 38.882812 21.402344 39.117188 21.40625 39.257812 21.554688 C 39.398438 21.703125 39.390625 21.933594 39.242188 22.074219 L 37.109375 24.078125 L 39.40625 24.3125 C 39.609375 24.332031 39.757812 24.515625 39.738281 24.71875 C 39.71875 24.921875 39.535156 25.066406 39.328125 25.046875 L 36.375 24.742188 L 32.015625 27.992188 "/>
<path style=" stroke:none;fill-rule:nonzero;fill:rgb(84.313725%,91.764706%,92.156863%);fill-opacity:1;" d="M 42.765625 39.199219 C 35.578125 42.03125 28.5625 38.6875 21.898438 36.925781 C 29.332031 35.40625 36.648438 34.453125 42.765625 39.199219 "/>
<path style=" stroke:none;fill-rule:nonzero;fill:rgb(100%,100%,99.607843%);fill-opacity:1;" d="M 24.984375 23.417969 C 28.855469 23.417969 32.011719 20.285156 32.011719 16.449219 C 32.011719 12.609375 28.855469 9.480469 24.984375 9.480469 C 21.117188 9.480469 17.960938 12.609375 17.960938 16.449219 C 17.960938 20.285156 21.117188 23.417969 24.984375 23.417969 "/>
<path style=" stroke:none;fill-rule:nonzero;fill:rgb(100%,100%,99.607843%);fill-opacity:1;" d="M 24.984375 22.085938 C 30.894531 22.085938 35.683594 26.839844 35.683594 32.699219 C 35.683594 35.488281 34.601562 38.023438 32.828125 39.917969 C 26.578125 38.804688 20.535156 35.648438 14.816406 36 C 14.472656 34.960938 14.289062 33.851562 14.289062 32.699219 C 14.289062 26.839844 19.078125 22.085938 24.984375 22.085938 "/>
<path style=" stroke:none;fill-rule:nonzero;fill:rgb(72.54902%,21.568627%,16.862745%);fill-opacity:1;" d="M 20.328125 23.082031 C 20.5 22.285156 21.289062 21.773438 22.09375 21.945312 C 22.898438 22.113281 23.414062 22.898438 23.242188 23.695312 C 22.921875 25.179688 22.414062 26.378906 21.765625 27.359375 C 21.089844 28.375 20.273438 29.136719 19.363281 29.714844 C 18.671875 30.152344 17.75 29.953125 17.304688 29.269531 C 16.859375 28.582031 17.0625 27.667969 17.753906 27.226562 C 18.339844 26.855469 18.859375 26.375 19.28125 25.738281 C 19.730469 25.066406 20.085938 24.199219 20.328125 23.082031 "/>
<path style=" stroke:none;fill-rule:nonzero;fill:rgb(85.882353%,29.019608%,16.470588%);fill-opacity:1;" d="M 30.089844 20.96875 C 30.792969 20.542969 31.707031 20.761719 32.136719 21.460938 C 32.5625 22.15625 32.34375 23.0625 31.640625 23.488281 C 30.082031 24.433594 27.699219 24.957031 25.226562 24.976562 C 22.90625 24.996094 20.457031 24.582031 18.503906 23.664062 C 17.761719 23.316406 17.445312 22.433594 17.792969 21.695312 C 18.144531 20.960938 19.03125 20.644531 19.777344 20.992188 C 21.316406 21.71875 23.300781 22.046875 25.203125 22.03125 C 27.164062 22.011719 28.984375 21.640625 30.089844 20.96875 "/>
<path style=" stroke:none;fill-rule:nonzero;fill:rgb(85.882353%,29.019608%,16.470588%);fill-opacity:1;" d="M 21.207031 23.777344 C 21.203125 22.964844 21.867188 22.300781 22.6875 22.296875 C 23.507812 22.292969 24.175781 22.953125 24.179688 23.765625 C 24.191406 25.835938 23.878906 27.558594 23.316406 29.015625 C 22.734375 30.523438 21.890625 31.742188 20.867188 32.761719 C 20.289062 33.339844 19.34375 33.34375 18.761719 32.765625 C 18.179688 32.191406 18.179688 31.257812 18.757812 30.679688 C 19.496094 29.945312 20.109375 29.058594 20.53125 27.964844 C 20.972656 26.820312 21.21875 25.449219 21.207031 23.777344 "/>
<path style=" stroke:none;fill-rule:nonzero;fill:rgb(85.882353%,29.019608%,16.470588%);fill-opacity:1;" d="M 20.386719 8.949219 C 21.179688 8.949219 21.824219 8.308594 21.824219 7.519531 C 21.824219 6.734375 21.179688 6.089844 20.386719 6.089844 C 19.589844 6.089844 18.945312 6.734375 18.945312 7.519531 C 18.945312 8.308594 19.589844 8.949219 20.386719 8.949219 "/>
<path style=" stroke:none;fill-rule:nonzero;fill:rgb(52.156863%,12.941176%,14.117647%);fill-opacity:1;" d="M 22.792969 6.855469 C 24.707031 6.855469 26.339844 8.046875 26.980469 9.71875 C 26.90625 9.78125 26.839844 9.855469 26.78125 9.9375 C 26.234375 10.726562 25.113281 11.527344 23.785156 12.125 C 22.496094 12.707031 21.050781 13.078125 19.78125 13.046875 C 19.417969 13.039062 19.089844 13.207031 18.882812 13.472656 C 18.519531 12.828125 18.3125 12.089844 18.3125 11.300781 C 18.3125 8.84375 20.316406 6.855469 22.792969 6.855469 "/>
<path style=" stroke:none;fill-rule:nonzero;fill:rgb(85.882353%,29.019608%,16.470588%);fill-opacity:1;" d="M 25.914062 8.957031 C 26.261719 8.460938 26.949219 8.332031 27.453125 8.679688 C 27.957031 9.023438 28.082031 9.707031 27.738281 10.207031 C 26.96875 11.316406 25.507812 12.386719 23.832031 13.144531 C 22.261719 13.851562 20.46875 14.304688 18.863281 14.265625 C 18.253906 14.253906 17.769531 13.75 17.78125 13.144531 C 17.792969 12.539062 18.300781 12.054688 18.914062 12.070312 C 20.183594 12.101562 21.628906 11.730469 22.917969 11.144531 C 24.242188 10.546875 25.367188 9.746094 25.914062 8.957031 "/>
<path style=" stroke:none;fill-rule:nonzero;fill:rgb(18.039216%,18.431373%,17.254902%);fill-opacity:1;" d="M 29.335938 15.78125 C 29.9375 15.78125 30.429688 15.292969 30.429688 14.695312 C 30.429688 14.097656 29.9375 13.609375 29.335938 13.609375 C 28.730469 13.609375 28.238281 14.097656 28.238281 14.695312 C 28.238281 15.292969 28.730469 15.78125 29.335938 15.78125 "/>
<path style=" stroke:none;fill-rule:nonzero;fill:rgb(27.45098%,27.843137%,26.666667%);fill-opacity:1;" d="M 29.039062 13.894531 C 29.367188 13.894531 29.601562 14.15625 29.5625 14.480469 C 29.523438 14.804688 29.226562 15.070312 28.898438 15.070312 C 28.574219 15.070312 28.339844 14.804688 28.378906 14.480469 C 28.414062 14.15625 28.710938 13.894531 29.039062 13.894531 "/>
<path style=" stroke:none;fill-rule:nonzero;fill:rgb(18.039216%,18.431373%,17.254902%);fill-opacity:1;" d="M 24.472656 17.527344 C 25.074219 17.527344 25.566406 17.039062 25.566406 16.441406 C 25.566406 15.84375 25.074219 15.355469 24.472656 15.355469 C 23.871094 15.355469 23.378906 15.84375 23.378906 16.441406 C 23.378906 17.039062 23.871094 17.527344 24.472656 17.527344 "/>
<path style=" stroke:none;fill-rule:nonzero;fill:rgb(27.45098%,27.843137%,26.666667%);fill-opacity:1;" d="M 24.175781 15.636719 C 24.503906 15.636719 24.738281 15.902344 24.699219 16.226562 C 24.660156 16.550781 24.363281 16.8125 24.035156 16.8125 C 23.710938 16.8125 23.476562 16.550781 23.515625 16.226562 C 23.550781 15.902344 23.847656 15.636719 24.175781 15.636719 "/>
<path style=" stroke:none;fill-rule:nonzero;fill:rgb(91.764706%,53.72549%,17.647059%);fill-opacity:1;" d="M 34.171875 17.070312 L 28.605469 17.78125 C 28.132812 17.839844 28.117188 16.308594 28.589844 16.367188 L 34.171875 17.070312 "/>
<path style=" stroke:none;fill-rule:nonzero;fill:rgb(18.039216%,18.431373%,17.254902%);fill-opacity:1;" d="M 28.441406 20.601562 C 27.578125 20.808594 26.074219 20.578125 25.699219 19.625 C 26.648438 19.960938 27.511719 20.066406 28.265625 19.882812 C 29.003906 19.707031 29.652344 19.246094 30.191406 18.445312 C 30.269531 19.769531 29.242188 20.410156 28.441406 20.601562 "/>
<path style=" stroke:none;fill-rule:nonzero;fill:rgb(18.039216%,18.431373%,17.254902%);fill-opacity:1;" d="M 29.554688 28.332031 C 30.15625 28.332031 30.648438 27.84375 30.648438 27.246094 C 30.648438 26.648438 30.15625 26.160156 29.554688 26.160156 C 28.949219 26.160156 28.457031 26.648438 28.457031 27.246094 C 28.457031 27.84375 28.949219 28.332031 29.554688 28.332031 "/>
<path style=" stroke:none;fill-rule:nonzero;fill:rgb(27.45098%,27.843137%,26.666667%);fill-opacity:1;" d="M 29.257812 26.445312 C 29.582031 26.445312 29.816406 26.707031 29.78125 27.03125 C 29.742188 27.355469 29.445312 27.617188 29.117188 27.617188 C 28.792969 27.617188 28.558594 27.355469 28.59375 27.03125 C 28.632812 26.707031 28.929688 26.445312 29.257812 26.445312 "/>
<path style=" stroke:none;fill-rule:nonzero;fill:rgb(18.039216%,18.431373%,17.254902%);fill-opacity:1;" d="M 31.210938 31.5625 C 31.816406 31.5625 32.308594 31.074219 32.308594 30.476562 C 32.308594 29.878906 31.816406 29.390625 31.210938 29.390625 C 30.609375 29.390625 30.117188 29.878906 30.117188 30.476562 C 30.117188 31.074219 30.609375 31.5625 31.210938 31.5625 "/>
<path style=" stroke:none;fill-rule:nonzero;fill:rgb(27.45098%,27.843137%,26.666667%);fill-opacity:1;" d="M 30.914062 29.675781 C 31.242188 29.675781 31.476562 29.9375 31.4375 30.261719 C 31.398438 30.585938 31.101562 30.847656 30.777344 30.847656 C 30.449219 30.847656 30.214844 30.585938 30.253906 30.261719 C 30.292969 29.9375 30.585938 29.675781 30.914062 29.675781 "/>
<path style=" stroke:none;fill-rule:nonzero;fill:rgb(18.039216%,18.431373%,17.254902%);fill-opacity:1;" d="M 31.210938 35.753906 C 31.816406 35.753906 32.308594 35.265625 32.308594 34.667969 C 32.308594 34.070312 31.816406 33.582031 31.210938 33.582031 C 30.609375 33.582031 30.117188 34.070312 30.117188 34.667969 C 30.117188 35.265625 30.609375 35.753906 31.210938 35.753906 "/>
<path style=" stroke:none;fill-rule:nonzero;fill:rgb(27.45098%,27.843137%,26.666667%);fill-opacity:1;" d="M 30.914062 33.863281 C 31.242188 33.863281 31.476562 34.128906 31.4375 34.453125 C 31.398438 34.777344 31.101562 35.039062 30.777344 35.039062 C 30.449219 35.039062 30.214844 34.777344 30.253906 34.453125 C 30.292969 34.128906 30.585938 33.863281 30.914062 33.863281 "/>
<path style=" stroke:none;fill-rule:nonzero;fill:rgb(47.843137%,20.784314%,13.72549%);fill-opacity:1;" d="M 16.78125 31.429688 C 17.007812 31.601562 17.332031 31.554688 17.5 31.328125 C 17.671875 31.101562 17.625 30.785156 17.398438 30.613281 L 11.417969 26.15625 L 11.570312 21.964844 C 11.582031 21.679688 11.359375 21.445312 11.074219 21.433594 C 10.789062 21.425781 10.550781 21.644531 10.542969 21.925781 L 10.421875 25.257812 L 7.480469 22.5 C 7.277344 22.304688 6.949219 22.316406 6.753906 22.519531 C 6.5625 22.722656 6.570312 23.046875 6.777344 23.238281 L 9.726562 26.011719 L 6.550781 26.335938 C 6.265625 26.367188 6.0625 26.617188 6.089844 26.898438 C 6.121094 27.179688 6.371094 27.382812 6.65625 27.351562 L 10.746094 26.933594 L 16.78125 31.429688 "/>
<path style=" stroke:none;fill-rule:nonzero;fill:rgb(100%,100%,99.607843%);fill-opacity:1;" d="M 6.410156 29.890625 C 6.695312 29.890625 6.921875 30.117188 6.921875 30.398438 C 6.921875 30.679688 6.695312 30.910156 6.410156 30.910156 C 6.125 30.910156 5.898438 30.679688 5.898438 30.398438 C 5.898438 30.117188 6.125 29.890625 6.410156 29.890625 Z M 8.738281 16.027344 C 9.042969 16.027344 9.292969 16.273438 9.292969 16.578125 C 9.292969 16.878906 9.042969 17.125 8.738281 17.125 C 8.433594 17.125 8.1875 16.878906 8.1875 16.578125 C 8.1875 16.273438 8.433594 16.027344 8.738281 16.027344 Z M 13.4375 11.957031 C 13.980469 11.957031 14.421875 12.394531 14.421875 12.933594 C 14.421875 13.476562 13.980469 13.914062 13.4375 13.914062 C 12.890625 13.914062 12.449219 13.476562 12.449219 12.933594 C 12.449219 12.394531 12.890625 11.957031 13.4375 11.957031 Z M 13.988281 18.0625 C 14.1875 18.0625 14.34375 18.222656 14.34375 18.417969 C 14.34375 18.613281 14.1875 18.769531 13.988281 18.769531 C 13.792969 18.769531 13.632812 18.613281 13.632812 18.417969 C 13.632812 18.222656 13.792969 18.0625 13.988281 18.0625 Z M 36.847656 10.152344 C 37.0625 10.152344 37.242188 10.328125 37.242188 10.546875 C 37.242188 10.761719 37.0625 10.9375 36.847656 10.9375 C 36.628906 10.9375 36.453125 10.761719 36.453125 10.546875 C 36.453125 10.328125 36.628906 10.152344 36.847656 10.152344 Z M 40.121094 14.226562 C 40.273438 14.226562 40.398438 14.347656 40.398438 14.5 C 40.398438 14.652344 40.273438 14.773438 40.121094 14.773438 C 39.96875 14.773438 39.847656 14.652344 39.847656 14.5 C 39.847656 14.347656 39.96875 14.226562 40.121094 14.226562 Z M 43.476562 20.492188 C 43.695312 20.492188 43.871094 20.667969 43.871094 20.882812 C 43.871094 21.101562 43.695312 21.277344 43.476562 21.277344 C 43.261719 21.277344 43.082031 21.101562 43.082031 20.882812 C 43.082031 20.667969 43.261719 20.492188 43.476562 20.492188 Z M 41.109375 28.792969 C 41.371094 28.792969 41.582031 29.003906 41.582031 29.265625 C 41.582031 29.523438 41.371094 29.734375 41.109375 29.734375 C 40.847656 29.734375 40.636719 29.523438 40.636719 29.265625 C 40.636719 29.003906 40.847656 28.792969 41.109375 28.792969 Z M 40.164062 33.101562 C 40.335938 33.101562 40.476562 33.242188 40.476562 33.414062 C 40.476562 33.585938 40.335938 33.726562 40.164062 33.726562 C 39.988281 33.726562 39.847656 33.585938 39.847656 33.414062 C 39.847656 33.242188 39.988281 33.101562 40.164062 33.101562 Z M 46.125 25.347656 C 46.320312 25.347656 46.476562 25.503906 46.476562 25.699219 C 46.476562 25.894531 46.320312 26.054688 46.125 26.054688 C 45.925781 26.054688 45.769531 25.894531 45.769531 25.699219 C 45.769531 25.503906 45.925781 25.347656 46.125 25.347656 Z M 37.714844 16.496094 C 37.976562 16.496094 38.1875 16.707031 38.1875 16.96875 C 38.1875 17.226562 37.976562 17.4375 37.714844 17.4375 C 37.453125 17.4375 37.242188 17.226562 37.242188 16.96875 C 37.242188 16.707031 37.453125 16.496094 37.714844 16.496094 Z M 30.6875 4.75 C 31.035156 4.75 31.320312 5.03125 31.320312 5.375 C 31.320312 5.722656 31.035156 6.003906 30.6875 6.003906 C 30.339844 6.003906 30.054688 5.722656 30.054688 5.375 C 30.054688 5.03125 30.339844 4.75 30.6875 4.75 Z M 27.214844 4.75 C 27.476562 4.75 27.6875 4.960938 27.6875 5.21875 C 27.6875 5.480469 27.476562 5.691406 27.214844 5.691406 C 26.953125 5.691406 26.738281 5.480469 26.738281 5.21875 C 26.738281 4.960938 26.953125 4.75 27.214844 4.75 Z M 33.648438 10.9375 C 33.757812 10.9375 33.847656 11.023438 33.847656 11.132812 C 33.847656 11.242188 33.757812 11.328125 33.648438 11.328125 C 33.539062 11.328125 33.453125 11.242188 33.453125 11.132812 C 33.453125 11.023438 33.539062 10.9375 33.648438 10.9375 Z M 22.492188 8.332031 C 23.003906 8.332031 23.414062 8.742188 23.414062 9.246094 C 23.414062 9.753906 23.003906 10.164062 22.492188 10.164062 C 21.984375 10.164062 21.570312 9.753906 21.570312 9.246094 C 21.570312 8.742188 21.984375 8.332031 22.492188 8.332031 Z M 22.414062 22.542969 C 22.714844 22.542969 22.957031 22.785156 22.957031 23.085938 C 22.957031 23.382812 22.714844 23.625 22.414062 23.625 C 22.113281 23.625 21.867188 23.382812 21.867188 23.085938 C 21.867188 22.785156 22.113281 22.542969 22.414062 22.542969 Z M 14.027344 22.292969 C 14.378906 22.292969 14.660156 22.574219 14.660156 22.921875 C 14.660156 23.265625 14.378906 23.546875 14.027344 23.546875 C 13.679688 23.546875 13.398438 23.265625 13.398438 22.921875 C 13.398438 22.574219 13.679688 22.292969 14.027344 22.292969 Z M 5.066406 17.828125 C 5.613281 17.828125 6.054688 18.269531 6.054688 18.808594 C 6.054688 19.347656 5.613281 19.789062 5.066406 19.789062 C 4.523438 19.789062 4.082031 19.347656 4.082031 18.808594 C 4.082031 18.269531 4.523438 17.828125 5.066406 17.828125 Z M 28.914062 22.738281 C 29.039062 22.738281 29.144531 22.839844 29.144531 22.964844 C 29.144531 23.09375 29.039062 23.195312 28.914062 23.195312 C 28.785156 23.195312 28.683594 23.09375 28.683594 22.964844 C 28.683594 22.839844 28.785156 22.738281 28.914062 22.738281 Z M 21.550781 28.558594 C 21.777344 28.558594 21.964844 28.742188 21.964844 28.96875 C 21.964844 29.195312 21.777344 29.382812 21.550781 29.382812 C 21.320312 29.382812 21.132812 29.195312 21.132812 28.96875 C 21.132812 28.742188 21.320312 28.558594 21.550781 28.558594 Z M 22.59375 25.972656 C 22.898438 25.972656 23.148438 26.21875 23.148438 26.523438 C 23.148438 26.824219 22.898438 27.070312 22.59375 27.070312 C 22.289062 27.070312 22.042969 26.824219 22.042969 26.523438 C 22.042969 26.21875 22.289062 25.972656 22.59375 25.972656 Z M 18.273438 27.894531 C 18.5 27.894531 18.6875 28.078125 18.6875 28.304688 C 18.6875 28.53125 18.5 28.714844 18.273438 28.714844 C 18.042969 28.714844 17.859375 28.53125 17.859375 28.304688 C 17.859375 28.078125 18.042969 27.894531 18.273438 27.894531 Z M 20.996094 12.542969 C 21.246094 12.542969 21.449219 12.746094 21.449219 12.992188 C 21.449219 13.242188 21.246094 13.445312 20.996094 13.445312 C 20.746094 13.445312 20.542969 13.242188 20.542969 12.992188 C 20.542969 12.746094 20.746094 12.542969 20.996094 12.542969 Z M 13.753906 7.414062 C 14.078125 7.414062 14.34375 7.675781 14.34375 8 C 14.34375 8.324219 14.078125 8.589844 13.753906 8.589844 C 13.425781 8.589844 13.160156 8.324219 13.160156 8 C 13.160156 7.675781 13.425781 7.414062 13.753906 7.414062 Z M 9.371094 32.320312 C 9.675781 32.320312 9.921875 32.5625 9.921875 32.867188 C 9.921875 33.167969 9.675781 33.414062 9.371094 33.414062 C 9.066406 33.414062 8.816406 33.167969 8.816406 32.867188 C 8.816406 32.5625 9.066406 32.320312 9.371094 32.320312 "/>
<path style=" stroke:none;fill-rule:nonzero;fill:rgb(24.313725%,16.862745%,10.980392%);fill-opacity:1;" d="M 9.335938 46.894531 L 40.636719 46.894531 L 40.636719 58.199219 L 9.335938 58.199219 Z M 9.335938 46.894531 "/>
<path style=" stroke:none;fill-rule:nonzero;fill:rgb(47.058824%,30.588235%,15.294118%);fill-opacity:1;" d="M 5.199219 41.898438 L 44.773438 41.898438 L 44.773438 48.203125 L 5.199219 48.203125 Z M 5.199219 41.898438 "/>
<path style=" stroke:none;fill-rule:nonzero;fill:rgb(47.058824%,30.588235%,15.294118%);fill-opacity:1;" d="M 3.636719 56.53125 L 46.332031 56.53125 L 46.332031 59.746094 L 3.636719 59.746094 Z M 3.636719 56.53125 "/>
<path style=" stroke:none;fill-rule:nonzero;fill:rgb(95.294118%,70.980392%,15.686275%);fill-opacity:1;" d="M 15.648438 49.394531 L 34.324219 49.394531 L 34.324219 50.910156 L 34.328125 50.910156 C 35.167969 50.910156 35.855469 51.59375 35.855469 52.429688 C 35.855469 53.261719 35.167969 53.945312 34.328125 53.945312 L 34.324219 53.945312 L 34.324219 55.460938 L 15.648438 55.460938 L 15.648438 53.945312 L 15.644531 53.945312 C 14.804688 53.945312 14.113281 53.261719 14.113281 52.429688 C 14.113281 51.59375 14.804688 50.910156 15.644531 50.910156 L 15.648438 50.910156 L 15.648438 49.394531 "/>
</g>
</svg>
